<svg height="512" viewBox="0 0 512 512" width="512" xmlns="http://www.w3.org/2000/svg" xmlns:xlink="http://www.w3.org/1999/xlink"><linearGradient id="linear-gradient" gradientUnits="userSpaceOnUse" x1="43.843" x2="403.532" y1="471.157" y2="111.469"><stop offset="0" stop-color="#41dfd0"/><stop offset="1" stop-color="#ee83ef"/></linearGradient><g id="gradient"><path d="m489.512 201.967a61.113 61.113 0 0 0 -54.96-33.967h-21.84a61.11 61.11 0 0 0 -35.712 11.445l-10.234 7.311q.418-5.514.771-11.036l.451-7.221a8 8 0 0 0 -7.988-8.499h-304a8 8 0 0 0 -7.984 8.5l.451 7.221a836.351 836.351 0 0 0 30.046 175.7 52.006 52.006 0 0 0 -28.51.831c-11.373 3.748-19.759 11.365-23.682 21.473-.017.039-.031.079-.048.118-.042.112-.093.219-.134.332-.024.065-.042.131-.066.2s-.047.135-.068.2a35.75 35.75 0 0 0 .718 25.425h-2.723a8 8 0 0 0 -7.49 10.81 349.68 349.68 0 0 0 30.819 62.412l1.887 3.018a8 8 0 0 0 6.784 3.76h304a8 8 0 0 0 6.784-3.76l1.887-3.018a349.68 349.68 0 0 0 30.819-62.412 8 8 0 0 0 -7.49-10.81h-69.907q5.579-15.9 10.507-32h17.248a79.793 79.793 0 0 0 56.42-23.369l71.732-71.731a61.37 61.37 0 0 0 11.512-70.933zm-131.286 56.352 43.756-38.288a16.3 16.3 0 0 1 10.729-4.031h16.518a16.291 16.291 0 0 1 11.171 28.146l-68.1 64.185a13.473 13.473 0 0 1 -22.022-5.541l-.339-1.019q4.72-21.609 8.287-43.452zm-262.846 108.551a42.362 42.362 0 0 1 5.288-4.388c7.269-5.092 15.6-7.62 23.443-7.122a23.312 23.312 0 0 1 12.253 4.1l-10.964 12.64a16.176 16.176 0 0 1 -9.842 5.4 32.2 32.2 0 0 0 -19.574 10.74l-8.941 10.305c-4.91-9.311-1.375-22.18 8.332-31.67zm35.686 32.737c-.149.125-.286.26-.424.393h-23.678l1.1-1.272a16.19 16.19 0 0 1 9.841-5.4 32.183 32.183 0 0 0 19.575-10.74l6.464-7.45c-.098 8.346-4.689 17.631-12.878 24.469zm-76.053-32.166a36.075 36.075 0 0 1 20.175-.362 49.144 49.144 0 0 0 -3.994 8.88 32.155 32.155 0 0 0 -12.777-4.274l-9.87-1.1a25.979 25.979 0 0 1 6.466-3.144zm-14.991 18.287 16.619 1.857a16.191 16.191 0 0 1 10.03 5.04 32.132 32.132 0 0 0 2.693 2.548 35.4 35.4 0 0 0 1.089 4.827h-25.653a24.208 24.208 0 0 1 -4.778-14.272zm315.542 78.272h-295.128a333.692 333.692 0 0 1 -24.674-48h344.476a333.692 333.692 0 0 1 -24.674 48zm-203.539-64c9.637-14.508 10.838-31.991 1.988-45.006-.018-.03-.039-.058-.057-.088-.071-.1-.134-.209-.206-.311-.042-.06-.088-.116-.131-.176s-.072-.1-.109-.147c-6.343-8.832-16.4-14.116-28.382-14.879a52.8 52.8 0 0 0 -31.048 8.282 820.264 820.264 0 0 1 -29.563-171.675h286.966a818.664 818.664 0 0 1 -46.366 224zm314.663-138.418-71.735 71.734a63.78 63.78 0 0 1 -45.105 18.684h-12.52q4.245-14.929 7.926-30a29.451 29.451 0 0 0 38.02-2.025l68.1-64.187a32.291 32.291 0 0 0 -22.145-55.788h-16.518a32.293 32.293 0 0 0 -21.265 7.989l-29.6 25.9q1.737-13.042 3.061-26.147l21.39-15.279a45.2 45.2 0 0 1 26.415-8.463h21.84a45.447 45.447 0 0 1 32.136 77.582zm-347.1 39.889a8 8 0 1 1 -15.18 5.058l-3.35-10.052a8 8 0 1 1 15.179-5.059zm-18.878-29.471a8 8 0 0 1 -7.838-6.444 255.1 255.1 0 0 1 -4.872-49.556 8 8 0 0 1 16 0 239.046 239.046 0 0 0 4.565 46.442 8.009 8.009 0 0 1 -7.855 9.558zm57.69-211.2c-2.744 3.658-4.4 5.866-4.4 11.2s1.656 7.542 4.4 11.2c3.207 4.277 7.6 10.134 7.6 20.8s-4.393 16.524-7.6 20.8c-2.744 3.659-4.4 5.867-4.4 11.2a8 8 0 0 1 -16 0c0-10.667 4.393-16.524 7.6-20.8 2.744-3.659 4.4-5.867 4.4-11.2s-1.656-7.542-4.4-11.2c-3.207-4.279-7.6-10.136-7.6-20.8s4.393-16.523 7.6-20.8c2.743-3.657 4.4-5.865 4.4-11.2a8 8 0 0 1 16 0c0 10.666-4.393 16.522-7.6 20.8zm56 0c-2.744 3.658-4.4 5.866-4.4 11.2s1.656 7.542 4.4 11.2c3.207 4.277 7.6 10.134 7.6 20.8s-4.393 16.524-7.6 20.8c-2.744 3.659-4.4 5.867-4.4 11.2a8 8 0 0 1 -16 0c0-10.667 4.393-16.524 7.6-20.8 2.744-3.659 4.4-5.867 4.4-11.2s-1.656-7.542-4.4-11.2c-3.207-4.279-7.6-10.136-7.6-20.8s4.393-16.523 7.6-20.8c2.743-3.657 4.4-5.865 4.4-11.2a8 8 0 0 1 16 0c0 10.666-4.393 16.522-7.6 20.8zm56 0c-2.744 3.658-4.4 5.866-4.4 11.2s1.656 7.542 4.4 11.2c3.207 4.277 7.6 10.134 7.6 20.8s-4.393 16.524-7.6 20.8c-2.744 3.659-4.4 5.867-4.4 11.2a8 8 0 0 1 -16 0c0-10.667 4.393-16.524 7.6-20.8 2.744-3.659 4.4-5.867 4.4-11.2s-1.656-7.542-4.4-11.2c-3.207-4.279-7.6-10.136-7.6-20.8s4.393-16.523 7.6-20.8c2.743-3.657 4.4-5.865 4.4-11.2a8 8 0 0 1 16 0c0 10.666-4.393 16.522-7.6 20.8z" fill="url(#linear-gradient)"/></g></svg>