<?xml version="1.0" standalone="no"?>
<!DOCTYPE svg PUBLIC "-//W3C//DTD SVG 20010904//EN"
 "http://www.w3.org/TR/2001/REC-SVG-20010904/DTD/svg10.dtd">
<svg version="1.0" xmlns="http://www.w3.org/2000/svg"
 width="267.000000pt" height="248.000000pt" viewBox="0 0 267.000000 248.000000"
 preserveAspectRatio="xMidYMid meet">
<metadata>
Created by potrace 1.16, written by Peter Selinger 2001-2019
</metadata>
<g transform="translate(0.000000,248.000000) scale(0.100000,-0.100000)"
fill="#000000" stroke="none">
<path d="M353 2036 l-28 -24 -3 -641 c-3 -710 -4 -692 59 -705 17 -3 198 -6
401 -6 347 0 369 -1 364 -17 -2 -10 -12 -44 -22 -76 l-18 -57 -90 0 c-50 0
-97 -4 -104 -8 -9 -6 -12 -37 -10 -118 l3 -109 435 0 435 0 3 109 c2 81 -1
112 -10 118 -7 4 -54 8 -104 8 l-90 0 -18 58 c-10 31 -20 65 -22 75 -5 16 17
17 364 17 203 0 384 3 401 6 63 13 62 -5 59 705 l-3 641 -28 24 c-36 30 -101
34 -116 5 -13 -24 4 -46 42 -55 l27 -6 0 -540 0 -540 -940 0 -940 0 0 540 c0
297 1 541 3 542 1 1 119 5 262 8 l260 5 0 30 0 30 -272 3 -272 2 -28 -24z"/>
<path d="M502 1908 c-8 -8 -12 -51 -12 -134 0 -131 6 -149 52 -142 22 3 23 7
26 106 l3 102 133 0 c121 0 135 2 152 21 14 15 16 24 8 37 -10 15 -34 17 -180
20 -123 2 -173 -1 -182 -10z"/>
<path d="M502 1238 c-17 -17 -17 -249 0 -266 8 -8 63 -12 180 -12 155 0 168 1
178 19 13 25 13 27 -6 45 -12 13 -41 16 -149 16 l-134 0 -3 103 c-3 101 -3
102 -28 105 -14 2 -31 -3 -38 -10z"/>
<path d="M2117 1243 c-4 -3 -7 -51 -7 -105 l0 -98 -134 0 c-109 0 -138 -3
-150 -16 -19 -18 -19 -20 -6 -45 10 -18 23 -19 178 -19 117 0 172 4 180 12 8
8 12 52 12 133 0 81 -4 125 -12 133 -13 13 -50 16 -61 5z"/>
</g>
</svg>
