<svg id="svg" version="1.1" xmlns="http://www.w3.org/2000/svg" xmlns:xlink="http://www.w3.org/1999/xlink" width="400" height="371.53558052434454" viewBox="0, 0, 400,371.53558052434454"><g id="svgg"><path id="path0" d="M60.186 63.222 C 55.292 63.942,51.099 67.762,49.198 73.234 L 48.359 75.651 48.343 168.414 L 48.327 261.178 49.102 263.384 C 50.880 268.441,53.033 270.807,56.134 271.111 C 57.258 271.222,58.680 271.576,59.294 271.899 C 60.296 272.426,66.081 272.486,116.218 272.488 C 163.383 272.490,172.094 272.571,172.456 273.007 C 172.920 273.565,172.641 275.158,171.603 277.881 C 171.291 278.699,171.029 279.677,171.020 280.055 C 171.011 280.433,170.771 281.270,170.486 281.914 C 170.201 282.558,169.515 284.591,168.962 286.431 C 167.068 292.735,166.146 295.325,165.694 295.612 C 165.445 295.770,159.287 295.902,152.009 295.905 C 133.101 295.913,134.885 294.021,135.025 313.913 L 135.130 328.810 136.245 329.926 L 137.361 331.041 200.813 331.041 L 264.266 331.041 265.404 329.766 L 266.543 328.491 266.543 313.738 C 266.543 294.046,268.309 295.911,249.654 295.911 C 235.651 295.911,234.944 295.820,234.944 294.013 C 234.944 293.605,234.713 292.820,234.431 292.268 C 234.149 291.716,233.806 290.678,233.668 289.963 C 233.530 289.247,233.192 288.076,232.917 287.361 C 232.642 286.645,231.964 284.554,231.409 282.714 C 230.855 280.874,230.085 278.475,229.699 277.383 C 228.829 274.925,228.782 273.024,229.584 272.716 C 229.908 272.592,255.078 272.491,285.519 272.491 C 339.988 272.491,340.895 272.479,342.751 271.747 C 343.788 271.338,345.265 271.004,346.033 271.004 C 348.242 271.004,350.912 267.947,352.399 263.714 C 353.579 260.357,353.603 76.756,352.424 73.256 C 351.505 70.528,350.321 68.499,348.944 67.290 C 348.359 66.777,347.592 66.093,347.239 65.771 C 342.548 61.485,332.040 62.129,331.256 66.750 C 330.507 71.163,332.475 73.526,336.945 73.580 C 339.244 73.607,341.261 74.495,341.878 75.751 C 342.519 77.057,342.459 236.068,341.817 237.048 L 341.247 237.918 201.082 237.918 C 105.174 237.918,60.691 237.797,60.199 237.533 C 59.491 237.155,59.480 235.856,59.480 156.629 L 59.480 76.110 60.807 74.858 L 62.135 73.606 98.670 73.606 C 123.641 73.606,135.546 73.480,136.283 73.209 C 140.882 71.516,140.133 64.111,135.267 63.171 C 133.181 62.768,62.948 62.816,60.186 63.222 M78.606 84.335 C 77.036 84.664,75.561 85.924,74.903 87.498 C 74.195 89.192,74.072 121.724,74.766 123.829 C 76.250 128.335,82.479 128.617,84.712 124.281 C 84.999 123.723,85.130 119.234,85.130 109.947 C 85.130 98.859,85.225 96.295,85.657 95.703 C 86.165 95.008,86.941 94.974,106.382 94.781 C 117.491 94.671,126.614 94.546,126.656 94.503 C 126.698 94.459,127.151 94.004,127.664 93.492 C 129.959 91.196,129.726 87.177,127.185 85.232 L 125.836 84.201 102.788 84.149 C 90.112 84.120,79.229 84.204,78.606 84.335 M77.695 184.648 C 74.466 185.823,74.295 186.985,74.424 206.877 C 74.545 225.504,74.506 225.165,76.716 226.680 L 77.927 227.509 101.862 227.509 L 125.796 227.509 127.168 226.559 C 129.389 225.019,129.951 221.509,128.373 219.021 C 127.121 217.047,126.688 217.007,105.639 216.959 C 86.838 216.916,86.168 216.890,85.658 216.193 C 85.225 215.601,85.130 213.014,85.130 201.754 L 85.130 188.037 84.108 186.605 C 82.664 184.582,80.060 183.788,77.695 184.648 M318.893 185.100 C 316.325 187.126,316.357 186.914,316.357 202.136 C 316.357 214.481,316.294 215.947,315.742 216.404 C 315.240 216.821,311.648 216.921,296.132 216.948 C 285.685 216.967,276.617 217.100,275.982 217.245 C 271.945 218.164,271.021 224.020,274.493 226.686 L 275.565 227.509 299.703 227.509 L 323.841 227.509 325.059 226.581 C 327.135 224.997,327.204 224.327,327.212 205.607 C 327.221 187.157,327.216 187.105,325.115 185.453 C 323.551 184.222,320.242 184.035,318.893 185.100 M178.725 251.439 C 183.714 254.609,183.435 260.689,178.178 263.340 C 175.570 264.656,172.231 263.628,170.255 260.901 C 166.333 255.487,173.136 247.887,178.725 251.439 M203.686 251.285 C 208.624 253.804,208.662 260.073,203.756 263.092 C 200.159 265.307,194.623 262.505,194.414 258.364 C 194.269 255.499,194.447 254.719,195.569 253.304 C 197.683 250.637,200.865 249.846,203.686 251.285 M228.957 251.368 C 233.757 253.930,233.698 260.716,228.855 263.135 C 225.380 264.870,221.398 263.335,219.866 259.669 C 217.522 254.058,223.599 248.508,228.957 251.368 " stroke="none" fill="#17264e" fill-rule="evenodd"></path><path id="path1" d="M224.823 16.751 C 222.630 16.908,220.288 17.208,219.619 17.417 C 218.949 17.626,217.160 17.981,215.643 18.206 C 212.803 18.626,211.507 18.969,205.762 20.822 C 199.433 22.863,198.694 23.165,192.379 26.289 C 180.522 32.155,170.328 40.059,162.068 49.791 C 160.951 51.107,159.786 52.460,159.480 52.796 C 159.173 53.133,158.671 53.794,158.364 54.265 C 158.058 54.737,157.463 55.559,157.044 56.093 C 150.694 64.173,150.159 70.272,155.159 77.587 C 156.206 79.119,157.230 80.644,157.435 80.975 C 159.002 83.514,167.609 93.127,170.074 95.091 C 171.467 96.200,173.490 97.952,175.331 99.641 C 175.769 100.043,176.304 100.372,176.521 100.372 C 176.738 100.372,177.049 100.587,177.212 100.850 C 177.376 101.113,178.429 101.946,179.554 102.702 C 180.678 103.457,182.280 104.539,183.112 105.105 C 185.698 106.863,186.026 107.063,187.241 107.622 C 187.890 107.921,189.259 108.659,190.282 109.263 C 191.306 109.866,193.367 110.880,194.863 111.517 C 196.359 112.153,198.028 112.917,198.570 113.214 C 199.113 113.511,199.757 113.755,200.001 113.755 C 200.245 113.755,200.972 113.986,201.617 114.268 C 204.586 115.570,211.886 117.682,215.985 118.426 C 220.215 119.193,221.640 119.601,221.982 120.140 C 222.503 120.962,222.385 149.585,221.859 150.112 C 221.523 150.448,216.428 150.558,201.214 150.558 L 181.016 150.558 179.257 151.449 C 176.006 153.097,175.898 153.718,175.839 171.082 C 175.837 171.431,175.444 172.100,174.965 172.569 C 172.137 175.332,171.209 181.618,173.255 184.151 C 173.442 184.383,174.017 185.100,174.532 185.744 C 177.696 189.699,184.880 189.774,188.405 185.890 C 191.855 182.088,191.739 176.451,188.131 172.561 C 186.868 171.200,186.337 163.254,187.435 162.156 C 188.070 161.521,207.097 161.521,207.732 162.156 C 208.048 162.471,208.183 164.733,208.195 169.870 C 208.214 177.864,208.343 178.470,210.387 180.166 L 211.665 181.227 220.580 181.327 C 226.387 181.392,229.668 181.570,229.989 181.837 C 231.081 182.743,230.650 191.446,229.439 192.945 C 225.344 198.012,225.458 203.289,229.740 206.922 C 239.028 214.804,250.324 202.618,242.538 193.114 L 241.313 191.619 241.196 182.476 L 241.078 173.333 239.963 172.205 C 238.298 170.521,236.717 170.265,228.001 170.262 C 218.480 170.260,218.959 170.497,218.959 165.795 C 218.959 161.741,218.668 161.941,224.907 161.710 C 232.895 161.414,233.457 160.713,233.457 151.040 C 233.457 146.650,233.592 144.624,233.903 144.312 C 234.226 143.990,236.865 143.866,243.438 143.866 L 252.526 143.866 254.098 145.155 C 260.234 150.183,268.502 147.695,269.874 140.407 C 271.057 134.122,267.235 129.255,261.078 129.206 C 258.139 129.183,254.647 130.321,254.647 131.302 C 254.647 132.685,235.519 133.590,233.942 132.282 C 233.586 131.986,233.457 130.510,233.457 126.720 C 233.457 119.859,233.026 120.248,240.928 119.985 C 247.118 119.779,253.413 118.873,258.550 117.448 C 259.981 117.051,261.403 116.721,261.710 116.715 C 262.017 116.709,262.937 116.380,263.755 115.985 C 264.572 115.590,265.576 115.260,265.985 115.252 C 266.394 115.244,267.172 115.005,267.715 114.722 C 268.257 114.439,269.345 114.000,270.131 113.747 C 270.918 113.493,271.729 113.161,271.933 113.008 C 272.138 112.855,272.723 112.611,273.234 112.466 C 274.376 112.140,281.151 108.837,281.426 108.472 C 281.535 108.326,282.204 107.940,282.913 107.613 C 284.661 106.806,285.562 106.245,289.591 103.453 C 297.319 98.098,309.132 86.950,311.304 82.962 C 311.490 82.621,312.247 81.589,312.988 80.669 C 318.859 73.376,320.090 66.664,316.568 61.152 C 313.443 56.261,312.913 55.519,309.936 51.876 C 307.206 48.534,302.135 43.131,299.936 41.221 C 296.749 38.454,290.058 33.086,289.796 33.086 C 289.679 33.086,288.740 32.492,287.708 31.768 C 286.677 31.043,285.466 30.281,285.017 30.076 C 284.568 29.870,283.532 29.302,282.714 28.814 C 281.266 27.949,276.291 25.443,272.807 23.822 C 270.575 22.784,261.702 19.706,260.936 19.704 C 260.613 19.703,259.275 19.391,257.962 19.009 C 249.873 16.659,237.681 15.828,224.823 16.751 M268.972 34.201 C 269.262 34.201,275.269 37.180,277.974 38.665 C 279.561 39.536,285.644 43.569,286.059 44.026 C 286.264 44.250,286.896 44.731,287.464 45.095 C 288.031 45.458,289.286 46.475,290.252 47.356 C 291.217 48.236,292.827 49.693,293.829 50.593 C 295.455 52.056,299.177 56.148,302.482 60.109 C 305.002 63.129,307.417 67.098,307.426 68.235 C 307.454 71.778,295.236 85.647,286.242 92.282 C 284.097 93.865,282.175 95.289,281.970 95.448 C 280.954 96.238,275.982 98.967,272.677 100.550 C 270.632 101.529,268.669 102.475,268.314 102.652 C 265.530 104.041,265.588 102.445,268.423 99.637 C 270.240 97.838,272.162 95.339,273.433 93.123 C 274.020 92.100,274.614 91.180,274.755 91.078 C 274.978 90.916,276.353 88.059,277.887 84.572 C 278.156 83.959,278.501 82.788,278.652 81.970 C 278.803 81.152,279.146 79.959,279.413 79.318 C 282.531 71.849,279.969 53.841,274.555 45.167 C 273.108 42.850,271.928 41.072,271.716 40.892 C 271.596 40.790,271.342 40.421,271.152 40.071 C 270.962 39.722,269.967 38.551,268.941 37.469 C 266.124 34.497,265.590 33.544,266.643 33.371 C 267.099 33.297,267.736 33.453,268.059 33.718 C 268.382 33.984,268.793 34.201,268.972 34.201 M201.969 34.695 C 202.073 34.967,201.253 36.180,200.145 37.390 C 184.581 54.407,184.647 82.316,200.292 99.244 C 202.649 101.794,201.501 103.465,198.885 101.294 C 198.578 101.040,197.909 100.708,197.398 100.556 C 196.887 100.405,196.286 100.136,196.063 99.958 C 195.840 99.781,194.669 99.113,193.461 98.475 C 192.253 97.836,191.000 97.081,190.677 96.798 C 190.354 96.514,189.990 96.283,189.867 96.283 C 187.612 96.283,174.658 84.820,169.080 77.887 C 167.268 75.635,165.620 73.589,165.419 73.341 C 165.217 73.093,164.859 72.466,164.623 71.947 C 164.386 71.428,164.065 71.004,163.910 71.004 C 163.754 71.004,163.439 70.435,163.209 69.740 C 162.568 67.797,163.033 66.524,165.613 63.156 C 166.022 62.622,166.608 61.800,166.914 61.329 C 167.221 60.858,167.746 60.184,168.081 59.832 C 168.415 59.480,168.834 58.942,169.010 58.637 C 172.156 53.194,186.603 41.445,195.911 36.761 C 197.240 36.092,198.578 35.341,198.885 35.092 C 199.191 34.844,199.861 34.564,200.372 34.471 C 200.883 34.378,201.409 34.279,201.540 34.251 C 201.672 34.224,201.865 34.423,201.969 34.695 M218.846 41.642 C 225.028 43.069,228.740 51.497,225.555 56.877 C 221.740 63.321,213.478 64.692,208.494 59.708 C 200.572 51.786,207.840 39.102,218.846 41.642 " stroke="none" fill="#12bcd2" fill-rule="evenodd"></path><path id="path2" d="M0.000 185.874 L 0.000 371.747 200.000 371.747 L 400.000 371.747 400.000 185.874 L 400.000 0.000 200.000 0.000 L 0.000 0.000 0.000 185.874 M247.093 16.091 C 249.992 16.405,252.919 16.841,253.598 17.060 C 254.277 17.279,256.004 17.699,257.435 17.994 C 261.568 18.844,264.497 19.649,265.656 20.254 C 266.246 20.561,267.022 20.814,267.381 20.816 C 267.739 20.817,268.657 21.152,269.420 21.561 C 270.183 21.970,271.027 22.305,271.296 22.305 C 271.566 22.305,272.404 22.626,273.161 23.018 C 273.917 23.411,276.208 24.535,278.253 25.518 C 280.297 26.500,282.026 27.434,282.094 27.593 C 282.162 27.751,282.426 27.881,282.681 27.881 C 282.936 27.881,283.967 28.414,284.973 29.066 C 285.980 29.717,287.723 30.837,288.848 31.556 C 289.972 32.274,291.394 33.253,292.007 33.733 C 292.621 34.212,293.503 34.890,293.968 35.239 C 294.434 35.588,295.086 36.120,295.419 36.421 C 295.752 36.723,297.044 37.782,298.291 38.776 C 302.401 42.053,307.771 47.640,311.338 52.350 C 311.543 52.620,312.000 53.161,312.354 53.551 C 313.242 54.531,317.843 61.297,317.846 61.628 C 317.847 61.775,318.136 62.398,318.487 63.011 C 318.985 63.880,319.126 65.030,319.126 68.216 C 319.126 71.401,318.985 72.551,318.487 73.420 C 318.136 74.033,317.847 74.645,317.846 74.780 C 317.840 75.433,312.120 83.537,310.037 85.843 C 309.730 86.182,308.914 87.123,308.224 87.933 C 305.182 91.499,298.011 98.448,296.422 99.369 C 296.139 99.533,295.510 100.035,295.025 100.484 C 294.540 100.934,293.161 101.968,291.960 102.783 C 290.759 103.598,289.643 104.476,289.480 104.735 C 289.316 104.993,289.027 105.204,288.836 105.204 C 288.646 105.204,287.525 105.831,286.346 106.598 C 285.166 107.364,283.783 108.197,283.271 108.449 C 282.760 108.702,282.091 109.078,281.784 109.287 C 281.478 109.495,280.809 109.836,280.297 110.044 C 279.786 110.251,278.451 110.921,277.331 111.530 C 276.210 112.140,275.123 112.640,274.914 112.642 C 274.706 112.643,274.037 112.904,273.427 113.222 C 271.857 114.041,268.048 115.523,266.729 115.829 C 266.115 115.971,265.427 116.234,265.199 116.412 C 264.660 116.834,260.032 118.102,256.592 118.770 C 255.106 119.059,253.716 119.403,253.503 119.534 C 253.008 119.840,244.761 120.761,240.149 121.025 C 238.206 121.136,236.073 121.310,235.409 121.411 L 234.201 121.595 234.201 126.557 C 234.201 130.739,234.293 131.554,234.789 131.745 C 236.157 132.270,252.681 131.989,253.143 131.433 C 256.611 127.255,264.714 127.317,268.487 131.552 C 271.601 135.047,271.947 141.360,269.188 144.325 C 267.493 146.146,266.322 147.211,266.014 147.211 C 265.826 147.212,265.367 147.488,264.994 147.825 C 262.912 149.710,257.314 148.720,253.679 145.825 L 252.154 144.610 243.595 144.610 C 237.123 144.610,234.940 144.725,234.643 145.082 C 234.412 145.361,234.202 148.224,234.133 152.063 C 233.965 161.328,233.245 162.188,225.474 162.399 C 219.901 162.551,220.088 162.426,220.080 166.004 C 220.072 169.681,219.635 169.515,229.349 169.529 L 237.732 169.541 239.219 170.559 C 241.852 172.360,242.050 173.182,242.126 182.656 L 242.193 190.983 243.208 192.425 C 246.442 197.016,246.970 201.138,244.811 204.924 C 243.853 206.603,241.494 208.922,240.744 208.922 C 240.551 208.922,240.091 209.195,239.723 209.529 C 239.228 209.976,238.293 210.140,236.158 210.154 C 227.515 210.209,222.446 200.243,227.799 193.717 L 229.182 192.030 229.306 187.672 C 229.477 181.626,230.145 182.089,221.331 182.140 C 207.870 182.217,207.063 181.524,207.063 169.872 C 207.063 166.439,206.962 163.365,206.838 163.042 C 206.640 162.527,205.454 162.454,197.365 162.454 L 188.118 162.454 187.889 163.367 C 187.237 165.963,187.883 171.257,188.985 172.356 C 195.347 178.701,190.715 189.405,181.607 189.405 C 172.620 189.405,167.744 179.216,173.691 172.861 L 174.907 171.561 175.093 162.825 C 175.387 149.010,173.338 150.057,200.558 149.814 L 221.375 149.628 221.375 134.944 L 221.375 120.260 220.260 120.156 C 219.180 120.056,213.997 118.953,210.967 118.179 C 210.149 117.970,208.592 117.572,207.508 117.293 C 206.423 117.014,205.336 116.629,205.091 116.437 C 204.847 116.245,204.145 115.971,203.532 115.829 C 199.261 114.839,190.312 110.538,181.813 105.390 C 181.476 105.186,180.955 104.807,180.656 104.549 C 180.356 104.291,179.442 103.584,178.625 102.978 C 177.807 102.372,176.873 101.621,176.549 101.310 C 176.225 100.998,175.836 100.743,175.685 100.743 C 174.051 100.743,162.167 88.610,156.569 81.227 C 155.305 79.560,152.788 75.783,152.788 75.554 C 152.788 75.396,152.423 74.601,151.976 73.786 C 150.662 71.389,150.777 64.824,152.178 62.268 C 153.674 59.537,155.350 56.856,156.357 55.582 C 156.844 54.965,157.486 54.126,157.784 53.717 C 161.463 48.665,169.621 40.319,174.317 36.803 C 175.000 36.292,175.834 35.623,176.170 35.316 C 176.869 34.679,177.289 34.378,181.221 31.691 C 182.792 30.618,184.139 29.740,184.215 29.740 C 184.291 29.740,184.911 29.362,185.591 28.900 C 186.678 28.162,191.873 25.529,197.589 22.817 C 198.614 22.331,199.734 21.933,200.076 21.933 C 200.419 21.933,200.800 21.770,200.923 21.571 C 201.046 21.373,201.851 21.031,202.711 20.812 C 203.571 20.594,204.610 20.249,205.019 20.046 C 205.909 19.605,209.250 18.727,212.825 17.996 C 214.257 17.703,215.929 17.292,216.543 17.083 C 217.156 16.875,220.167 16.455,223.234 16.152 C 226.301 15.849,229.061 15.532,229.368 15.449 C 230.544 15.128,242.061 15.545,247.093 16.091 M268.401 35.185 C 268.401 35.387,270.509 38.130,272.198 40.125 C 273.297 41.425,275.740 45.359,276.715 47.399 C 279.557 53.350,279.932 54.647,281.444 63.755 C 282.365 69.300,280.635 81.178,278.223 85.874 C 277.960 86.385,277.227 87.890,276.594 89.219 C 274.803 92.978,270.569 99.112,268.587 100.821 C 266.996 102.193,272.910 99.990,275.836 98.120 C 276.143 97.924,276.812 97.558,277.323 97.307 C 278.156 96.898,284.667 92.579,285.662 91.777 C 285.880 91.600,287.063 90.669,288.290 89.708 C 295.102 84.371,306.691 70.877,306.691 68.283 C 306.691 67.638,305.414 65.165,304.833 64.684 C 304.710 64.582,304.032 63.671,303.327 62.660 C 302.621 61.649,301.794 60.539,301.487 60.193 C 301.180 59.847,300.261 58.750,299.443 57.756 C 296.467 54.134,288.180 46.211,286.317 45.205 C 285.971 45.018,285.027 44.348,284.219 43.715 C 282.714 42.537,282.551 42.429,280.069 40.976 C 279.275 40.510,278.039 39.774,277.323 39.339 C 275.274 38.092,271.232 36.074,270.770 36.066 C 270.540 36.063,270.143 35.809,269.888 35.502 C 269.427 34.946,268.401 34.728,268.401 35.185 M196.097 37.537 C 195.074 38.096,193.652 38.911,192.937 39.348 C 192.221 39.785,191.217 40.350,190.706 40.602 C 190.195 40.855,188.831 41.735,187.674 42.557 C 186.517 43.379,185.197 44.303,184.740 44.610 C 184.283 44.916,183.527 45.502,183.061 45.911 C 182.595 46.320,180.471 48.160,178.342 50.000 C 176.214 51.840,173.858 54.099,173.109 55.019 C 172.359 55.939,171.286 57.210,170.724 57.844 C 170.162 58.478,169.368 59.466,168.959 60.038 C 168.550 60.611,167.965 61.353,167.658 61.687 C 165.087 64.485,163.382 67.920,163.937 69.189 C 164.752 71.057,167.957 75.566,170.519 78.452 C 171.706 79.789,173.095 81.378,173.607 81.984 C 174.903 83.518,182.122 90.056,183.466 90.913 C 184.074 91.301,184.656 91.718,184.758 91.839 C 185.459 92.670,193.741 97.834,196.283 99.024 C 196.589 99.168,197.241 99.516,197.730 99.797 C 199.923 101.056,199.327 98.752,196.869 96.468 C 196.516 96.141,195.631 94.817,194.135 92.379 C 191.817 88.602,189.179 81.779,188.504 77.815 C 188.301 76.624,187.962 74.647,187.750 73.420 C 187.209 70.289,187.267 65.500,187.885 62.345 C 188.173 60.871,188.510 58.953,188.633 58.082 C 188.874 56.380,190.399 51.456,191.037 50.320 C 191.250 49.940,191.937 48.541,192.563 47.212 C 194.320 43.482,198.258 37.672,199.325 37.237 C 199.492 37.169,199.628 36.959,199.628 36.772 C 199.628 36.150,197.980 36.507,196.097 37.537 M213.383 42.332 C 210.362 42.983,207.683 45.548,206.566 48.858 C 202.531 60.815,219.766 67.107,225.104 55.625 C 228.414 48.504,221.440 40.594,213.383 42.332 M136.359 62.126 C 142.106 64.718,142.255 71.620,136.624 74.346 C 135.111 75.078,134.375 75.093,98.596 75.093 L 62.111 75.093 61.353 75.907 C 60.595 76.720,60.595 76.734,60.590 155.739 C 60.587 199.200,60.484 235.135,60.360 235.595 L 60.136 236.431 200.700 236.431 L 341.264 236.431 341.264 156.675 L 341.264 76.918 340.351 76.005 C 339.595 75.249,339.075 75.093,337.309 75.093 C 334.101 75.093,330.483 72.998,330.483 71.139 C 330.483 70.860,330.331 70.632,330.144 70.632 C 328.716 70.632,329.774 65.394,331.563 63.604 C 333.656 61.511,339.875 60.514,341.715 61.977 C 341.978 62.186,342.816 62.469,343.577 62.606 C 344.985 62.859,347.955 64.566,347.955 65.122 C 347.955 65.290,348.145 65.428,348.376 65.428 C 348.608 65.428,349.362 66.055,350.053 66.822 C 350.743 67.588,351.536 68.467,351.815 68.773 C 352.094 69.080,352.447 69.749,352.599 70.260 C 352.751 70.771,353.149 71.500,353.483 71.879 C 354.413 72.937,354.418 263.858,353.487 264.924 C 353.156 265.303,352.738 266.065,352.558 266.617 C 351.878 268.702,348.723 271.747,347.243 271.747 C 346.504 271.747,345.233 272.124,344.418 272.584 L 342.937 273.420 286.524 273.521 C 231.186 273.620,230.112 273.636,230.112 274.336 C 230.112 274.728,230.269 275.146,230.462 275.266 C 230.654 275.385,230.924 276.273,231.060 277.239 C 231.196 278.206,231.536 279.361,231.816 279.807 C 232.096 280.252,232.439 281.340,232.577 282.223 C 232.716 283.106,233.046 284.164,233.311 284.572 C 233.575 284.981,233.910 286.069,234.054 286.989 C 234.199 287.909,234.529 288.996,234.789 289.405 C 235.049 289.814,235.376 290.818,235.516 291.636 C 235.656 292.454,236.007 293.499,236.296 293.959 L 236.820 294.796 249.984 294.796 C 265.387 294.796,265.861 294.900,267.430 298.655 C 268.142 300.359,268.353 327.637,267.658 328.067 C 267.454 328.193,267.286 328.580,267.286 328.926 C 267.286 329.706,265.662 331.258,263.976 332.089 C 262.067 333.031,139.939 333.054,137.685 332.113 C 133.582 330.400,133.457 329.859,133.457 313.738 C 133.457 298.492,133.501 298.193,136.052 296.046 L 137.316 294.981 151.132 294.872 L 164.948 294.762 165.347 293.942 C 165.566 293.492,165.942 292.244,166.181 291.171 C 166.421 290.098,166.749 289.219,166.909 289.219 C 167.070 289.219,167.317 288.425,167.459 287.454 C 167.600 286.482,167.929 285.353,168.190 284.944 C 168.451 284.535,168.779 283.429,168.920 282.485 C 169.060 281.542,169.414 280.454,169.706 280.069 C 169.998 279.683,170.249 278.950,170.265 278.439 C 170.290 277.612,170.718 276.219,171.547 274.266 C 171.804 273.660,168.648 273.619,115.185 273.522 L 58.550 273.420 57.069 272.584 C 56.254 272.124,54.999 271.744,54.281 271.740 C 53.250 271.733,52.738 271.455,51.859 270.425 C 51.245 269.706,50.367 268.681,49.907 268.148 C 49.447 267.614,49.071 266.923,49.071 266.611 C 49.071 266.299,48.803 265.748,48.477 265.388 C 47.251 264.033,47.190 258.900,47.294 166.171 L 47.398 73.420 48.482 71.208 C 49.079 69.991,50.125 68.438,50.806 67.757 C 51.487 67.075,52.045 66.356,52.045 66.159 C 52.045 65.961,52.187 65.799,52.362 65.799 C 52.537 65.799,53.131 65.381,53.682 64.870 C 54.234 64.359,54.927 63.941,55.224 63.941 C 55.520 63.941,55.762 63.780,55.762 63.584 C 55.762 63.387,56.473 63.034,57.342 62.799 C 58.211 62.564,59.257 62.231,59.665 62.060 C 60.074 61.889,60.743 61.676,61.152 61.586 C 64.384 60.883,134.721 61.387,136.359 62.126 M125.304 83.101 C 131.173 84.767,132.498 91.841,127.566 95.178 L 126.208 96.097 106.320 96.294 C 95.381 96.402,86.401 96.527,86.363 96.572 C 86.326 96.617,86.278 102.551,86.256 109.758 C 86.214 123.774,86.105 124.965,84.723 126.447 C 81.435 129.974,76.988 129.529,74.071 125.383 L 73.234 124.194 73.234 105.580 C 73.234 89.377,73.306 86.938,73.792 86.752 C 74.099 86.634,74.349 86.346,74.349 86.111 C 74.349 85.511,76.214 83.835,77.323 83.437 C 77.835 83.254,88.290 83.014,100.558 82.903 C 112.825 82.793,122.958 82.663,123.074 82.615 C 123.190 82.567,124.194 82.786,125.304 83.101 M82.352 183.601 C 86.171 185.648,86.246 186.002,86.252 202.100 C 86.256 213.616,86.326 215.193,86.839 215.390 C 87.159 215.513,96.065 215.619,106.629 215.625 L 125.836 215.637 127.220 216.488 C 132.582 219.785,131.417 227.333,125.353 228.589 C 122.587 229.161,81.048 229.150,78.372 228.575 C 76.461 228.166,74.349 226.700,74.349 225.784 C 74.349 225.550,74.099 225.262,73.792 225.144 C 72.949 224.821,72.949 187.688,73.792 186.989 C 74.099 186.734,74.349 186.322,74.349 186.072 C 74.349 183.915,79.799 182.232,82.352 183.601 M324.509 183.677 C 325.546 184.151,326.643 185.056,327.323 186.000 L 328.439 187.546 328.439 206.003 L 328.439 224.460 326.912 226.263 C 325.680 227.719,325.034 228.150,323.566 228.496 C 321.031 229.094,278.888 229.164,276.141 228.575 C 274.342 228.190,272.119 226.713,272.119 225.904 C 272.119 225.735,271.868 225.347,271.561 225.040 C 269.848 223.326,271.359 218.457,274.170 216.636 L 275.747 215.613 294.844 215.608 C 305.347 215.606,314.275 215.513,314.684 215.404 C 315.411 215.208,315.425 214.934,315.325 202.720 C 315.213 189.093,315.428 186.701,316.903 185.226 C 319.208 182.921,321.733 182.407,324.509 183.677 M173.305 252.276 C 167.398 254.915,170.539 263.351,177.021 262.256 C 180.470 261.673,182.471 256.195,180.057 253.945 C 179.617 253.536,179.193 253.005,179.112 252.765 C 178.957 252.299,174.157 251.895,173.305 252.276 M196.986 253.529 C 192.918 257.805,196.909 263.753,202.730 262.089 C 207.020 260.863,207.345 253.445,203.160 252.265 C 200.652 251.557,198.429 252.012,196.986 253.529 M223.420 252.316 C 222.445 252.689,221.101 254.378,220.741 255.684 C 218.937 262.215,228.137 265.271,230.916 259.063 C 232.834 254.780,228.108 250.525,223.420 252.316 " stroke="none" fill="#f3f3f4" fill-rule="evenodd"></path><path id="path3" d="M229.368 15.449 C 229.061 15.532,226.301 15.849,223.234 16.152 C 220.167 16.455,217.156 16.875,216.543 17.083 C 215.929 17.292,214.257 17.703,212.825 17.996 C 209.250 18.727,205.909 19.605,205.019 20.046 C 204.610 20.249,203.571 20.594,202.711 20.812 C 201.851 21.031,201.046 21.373,200.923 21.571 C 200.800 21.770,200.419 21.933,200.076 21.933 C 199.734 21.933,198.614 22.331,197.589 22.817 C 191.873 25.529,186.678 28.162,185.591 28.900 C 184.911 29.362,184.291 29.740,184.215 29.740 C 184.139 29.740,182.792 30.618,181.221 31.691 C 177.289 34.378,176.869 34.679,176.170 35.316 C 175.834 35.623,175.000 36.292,174.317 36.803 C 169.621 40.319,161.463 48.665,157.784 53.717 C 157.486 54.126,156.844 54.965,156.357 55.582 C 155.350 56.856,153.674 59.537,152.178 62.268 C 150.777 64.824,150.662 71.389,151.976 73.786 C 152.423 74.601,152.788 75.396,152.788 75.554 C 152.788 75.783,155.305 79.560,156.569 81.227 C 162.167 88.610,174.051 100.743,175.685 100.743 C 175.836 100.743,176.225 100.998,176.549 101.310 C 176.873 101.621,177.807 102.372,178.625 102.978 C 179.442 103.584,180.356 104.291,180.656 104.549 C 180.955 104.807,181.476 105.186,181.813 105.390 C 190.312 110.538,199.261 114.839,203.532 115.829 C 204.145 115.971,204.847 116.245,205.091 116.437 C 205.336 116.629,206.423 117.014,207.508 117.293 C 208.592 117.572,210.149 117.970,210.967 118.179 C 213.997 118.953,219.180 120.056,220.260 120.156 L 221.375 120.260 221.375 134.944 L 221.375 149.628 200.558 149.814 C 173.338 150.057,175.387 149.010,175.093 162.825 L 174.907 171.561 173.691 172.861 C 167.744 179.216,172.620 189.405,181.607 189.405 C 190.715 189.405,195.347 178.701,188.985 172.356 C 187.883 171.257,187.237 165.963,187.889 163.367 L 188.118 162.454 197.365 162.454 C 205.454 162.454,206.640 162.527,206.838 163.042 C 206.962 163.365,207.063 166.439,207.063 169.872 C 207.063 181.524,207.870 182.217,221.331 182.140 C 230.145 182.089,229.477 181.626,229.306 187.672 L 229.182 192.030 227.799 193.717 C 222.446 200.243,227.515 210.209,236.158 210.154 C 238.293 210.140,239.228 209.976,239.723 209.529 C 240.091 209.195,240.551 208.922,240.744 208.922 C 241.494 208.922,243.853 206.603,244.811 204.924 C 246.970 201.138,246.442 197.016,243.208 192.425 L 242.193 190.983 242.126 182.656 C 242.050 173.182,241.852 172.360,239.219 170.559 L 237.732 169.541 229.349 169.529 C 219.635 169.515,220.072 169.681,220.080 166.004 C 220.088 162.426,219.901 162.551,225.474 162.399 C 233.245 162.188,233.965 161.328,234.133 152.063 C 234.202 148.224,234.412 145.361,234.643 145.082 C 234.940 144.725,237.123 144.610,243.595 144.610 L 252.154 144.610 253.679 145.825 C 257.314 148.720,262.912 149.710,264.994 147.825 C 265.367 147.488,265.826 147.212,266.014 147.211 C 266.322 147.211,267.493 146.146,269.188 144.325 C 271.947 141.360,271.601 135.047,268.487 131.552 C 264.714 127.317,256.611 127.255,253.143 131.433 C 252.681 131.989,236.157 132.270,234.789 131.745 C 234.293 131.554,234.201 130.739,234.201 126.557 L 234.201 121.595 235.409 121.411 C 236.073 121.310,238.206 121.136,240.149 121.025 C 244.761 120.761,253.008 119.840,253.503 119.534 C 253.716 119.403,255.106 119.059,256.592 118.770 C 260.032 118.102,264.660 116.834,265.199 116.412 C 265.427 116.234,266.115 115.971,266.729 115.829 C 268.048 115.523,271.857 114.041,273.427 113.222 C 274.037 112.904,274.706 112.643,274.914 112.642 C 275.123 112.640,276.210 112.140,277.331 111.530 C 278.451 110.921,279.786 110.251,280.297 110.044 C 280.809 109.836,281.478 109.495,281.784 109.287 C 282.091 109.078,282.760 108.702,283.271 108.449 C 283.783 108.197,285.166 107.364,286.346 106.598 C 287.525 105.831,288.646 105.204,288.836 105.204 C 289.027 105.204,289.316 104.993,289.480 104.735 C 289.643 104.476,290.759 103.598,291.960 102.783 C 293.161 101.968,294.540 100.934,295.025 100.484 C 295.510 100.035,296.139 99.533,296.422 99.369 C 298.011 98.448,305.182 91.499,308.224 87.933 C 308.914 87.123,309.730 86.182,310.037 85.843 C 312.120 83.537,317.840 75.433,317.846 74.780 C 317.847 74.645,318.136 74.033,318.487 73.420 C 318.985 72.551,319.126 71.401,319.126 68.216 C 319.126 65.030,318.985 63.880,318.487 63.011 C 318.136 62.398,317.847 61.775,317.846 61.628 C 317.843 61.297,313.242 54.531,312.354 53.551 C 312.000 53.161,311.543 52.620,311.338 52.350 C 307.771 47.640,302.401 42.053,298.291 38.776 C 297.044 37.782,295.752 36.723,295.419 36.421 C 295.086 36.120,294.434 35.588,293.968 35.239 C 293.503 34.890,292.621 34.212,292.007 33.733 C 291.394 33.253,289.972 32.274,288.848 31.556 C 287.723 30.837,285.980 29.717,284.973 29.066 C 283.967 28.414,282.936 27.881,282.681 27.881 C 282.426 27.881,282.162 27.751,282.094 27.593 C 282.026 27.434,280.297 26.500,278.253 25.518 C 276.208 24.535,273.917 23.411,273.161 23.018 C 272.404 22.626,271.566 22.305,271.296 22.305 C 271.027 22.305,270.183 21.970,269.420 21.561 C 268.657 21.152,267.739 20.817,267.381 20.816 C 267.022 20.814,266.246 20.561,265.656 20.254 C 264.497 19.649,261.568 18.844,257.435 17.994 C 256.004 17.699,254.277 17.279,253.598 17.060 C 250.643 16.106,231.603 14.840,229.368 15.449 M244.610 16.707 C 249.274 17.071,254.234 17.926,257.962 19.009 C 259.275 19.391,260.613 19.703,260.936 19.704 C 261.702 19.706,270.575 22.784,272.807 23.822 C 276.291 25.443,281.266 27.949,282.714 28.814 C 283.532 29.302,284.568 29.870,285.017 30.076 C 285.466 30.281,286.677 31.043,287.708 31.768 C 288.740 32.492,289.679 33.086,289.796 33.086 C 290.058 33.086,296.749 38.454,299.936 41.221 C 302.135 43.131,307.206 48.534,309.936 51.876 C 312.913 55.519,313.443 56.261,316.568 61.152 C 320.090 66.664,318.859 73.376,312.988 80.669 C 312.247 81.589,311.490 82.621,311.304 82.962 C 309.132 86.950,297.319 98.098,289.591 103.453 C 285.562 106.245,284.661 106.806,282.913 107.613 C 282.204 107.940,281.535 108.326,281.426 108.472 C 281.151 108.837,274.376 112.140,273.234 112.466 C 272.723 112.611,272.138 112.855,271.933 113.008 C 271.729 113.161,270.918 113.493,270.131 113.747 C 269.345 114.000,268.257 114.439,267.715 114.722 C 267.172 115.005,266.394 115.244,265.985 115.252 C 265.576 115.260,264.572 115.590,263.755 115.985 C 262.937 116.380,262.017 116.709,261.710 116.715 C 261.403 116.721,259.981 117.051,258.550 117.448 C 253.413 118.873,247.118 119.779,240.928 119.985 C 233.026 120.248,233.457 119.859,233.457 126.720 C 233.457 130.510,233.586 131.986,233.942 132.282 C 235.519 133.590,254.647 132.685,254.647 131.302 C 254.647 130.321,258.139 129.183,261.078 129.206 C 267.235 129.255,271.057 134.122,269.874 140.407 C 268.502 147.695,260.234 150.183,254.098 145.155 L 252.526 143.866 243.438 143.866 C 236.865 143.866,234.226 143.990,233.903 144.312 C 233.592 144.624,233.457 146.650,233.457 151.040 C 233.457 160.713,232.895 161.414,224.907 161.710 C 218.668 161.941,218.959 161.741,218.959 165.795 C 218.959 170.497,218.480 170.260,228.001 170.262 C 236.717 170.265,238.298 170.521,239.963 172.205 L 241.078 173.333 241.196 182.476 L 241.313 191.619 242.538 193.114 C 250.324 202.618,239.028 214.804,229.740 206.922 C 225.458 203.289,225.344 198.012,229.439 192.945 C 230.650 191.446,231.081 182.743,229.989 181.837 C 229.668 181.570,226.387 181.392,220.580 181.327 L 211.665 181.227 210.387 180.166 C 208.343 178.470,208.214 177.864,208.195 169.870 C 208.183 164.733,208.048 162.471,207.732 162.156 C 207.097 161.521,188.070 161.521,187.435 162.156 C 186.337 163.254,186.868 171.200,188.131 172.561 C 191.739 176.451,191.855 182.088,188.405 185.890 C 184.880 189.774,177.696 189.699,174.532 185.744 C 174.017 185.100,173.442 184.383,173.255 184.151 C 171.209 181.618,172.137 175.332,174.965 172.569 C 175.444 172.100,175.837 171.431,175.839 171.082 C 175.898 153.718,176.006 153.097,179.257 151.449 L 181.016 150.558 201.214 150.558 C 216.428 150.558,221.523 150.448,221.859 150.112 C 222.385 149.585,222.503 120.962,221.982 120.140 C 221.640 119.601,220.215 119.193,215.985 118.426 C 211.886 117.682,204.586 115.570,201.617 114.268 C 200.972 113.986,200.245 113.755,200.001 113.755 C 199.757 113.755,199.113 113.511,198.570 113.214 C 198.028 112.917,196.359 112.153,194.863 111.517 C 193.367 110.880,191.306 109.866,190.282 109.263 C 189.259 108.659,187.890 107.921,187.241 107.622 C 186.026 107.063,185.698 106.863,183.112 105.105 C 182.280 104.539,180.678 103.457,179.554 102.702 C 178.429 101.946,177.376 101.113,177.212 100.850 C 177.049 100.587,176.738 100.372,176.521 100.372 C 176.304 100.372,175.769 100.043,175.331 99.641 C 173.490 97.952,171.467 96.200,170.074 95.091 C 167.609 93.127,159.002 83.514,157.435 80.975 C 157.230 80.644,156.206 79.119,155.159 77.587 C 150.159 70.272,150.694 64.173,157.044 56.093 C 157.463 55.559,158.058 54.737,158.364 54.265 C 158.671 53.794,159.173 53.133,159.480 52.796 C 159.786 52.460,160.951 51.107,162.068 49.791 C 170.328 40.059,180.522 32.155,192.379 26.289 C 198.694 23.165,199.433 22.863,205.762 20.822 C 211.507 18.969,212.803 18.626,215.643 18.206 C 217.160 17.981,218.949 17.626,219.619 17.417 C 222.478 16.524,236.969 16.112,244.610 16.707 M266.643 33.371 C 265.590 33.544,266.124 34.497,268.941 37.469 C 269.967 38.551,270.962 39.722,271.152 40.071 C 271.342 40.421,271.596 40.790,271.716 40.892 C 271.928 41.072,273.108 42.850,274.555 45.167 C 279.969 53.841,282.531 71.849,279.413 79.318 C 279.146 79.959,278.803 81.152,278.652 81.970 C 278.501 82.788,278.156 83.959,277.887 84.572 C 276.353 88.059,274.978 90.916,274.755 91.078 C 274.614 91.180,274.020 92.100,273.433 93.123 C 272.162 95.339,270.240 97.838,268.423 99.637 C 265.588 102.445,265.530 104.041,268.314 102.652 C 268.669 102.475,270.632 101.529,272.677 100.550 C 275.982 98.967,280.954 96.238,281.970 95.448 C 282.175 95.289,284.097 93.865,286.242 92.282 C 295.236 85.647,307.454 71.778,307.426 68.235 C 307.417 67.098,305.002 63.129,302.482 60.109 C 299.177 56.148,295.455 52.056,293.829 50.593 C 292.827 49.693,291.217 48.236,290.252 47.356 C 289.286 46.475,288.031 45.458,287.464 45.095 C 286.896 44.731,286.264 44.250,286.059 44.026 C 285.644 43.569,279.561 39.536,277.974 38.665 C 275.269 37.180,269.262 34.201,268.972 34.201 C 268.793 34.201,268.382 33.984,268.059 33.718 C 267.736 33.453,267.099 33.297,266.643 33.371 M200.372 34.471 C 199.861 34.564,199.191 34.844,198.885 35.092 C 198.578 35.341,197.240 36.092,195.911 36.761 C 186.603 41.445,172.156 53.194,169.010 58.637 C 168.834 58.942,168.415 59.480,168.081 59.832 C 167.746 60.184,167.221 60.858,166.914 61.329 C 166.608 61.800,166.022 62.622,165.613 63.156 C 163.033 66.524,162.568 67.797,163.209 69.740 C 163.439 70.435,163.754 71.004,163.910 71.004 C 164.065 71.004,164.386 71.428,164.623 71.947 C 164.859 72.466,165.217 73.093,165.419 73.341 C 165.620 73.589,167.268 75.635,169.080 77.887 C 174.658 84.820,187.612 96.283,189.867 96.283 C 189.990 96.283,190.354 96.514,190.677 96.798 C 191.000 97.081,192.253 97.836,193.461 98.475 C 194.669 99.113,195.840 99.781,196.063 99.958 C 196.286 100.136,196.887 100.405,197.398 100.556 C 197.909 100.708,198.578 101.040,198.885 101.294 C 201.501 103.465,202.649 101.794,200.292 99.244 C 184.647 82.316,184.581 54.407,200.145 37.390 C 201.833 35.545,202.498 34.048,201.540 34.251 C 201.409 34.279,200.883 34.378,200.372 34.471 M269.888 35.502 C 270.143 35.809,270.540 36.063,270.770 36.066 C 271.232 36.074,275.274 38.092,277.323 39.339 C 278.039 39.774,279.275 40.510,280.069 40.976 C 282.551 42.429,282.714 42.537,284.219 43.715 C 285.027 44.348,285.971 45.018,286.317 45.205 C 288.180 46.211,296.467 54.134,299.443 57.756 C 300.261 58.750,301.180 59.847,301.487 60.193 C 301.794 60.539,302.621 61.649,303.327 62.660 C 304.032 63.671,304.710 64.582,304.833 64.684 C 305.414 65.165,306.691 67.638,306.691 68.283 C 306.691 70.877,295.102 84.371,288.290 89.708 C 287.063 90.669,285.880 91.600,285.662 91.777 C 284.667 92.579,278.156 96.898,277.323 97.307 C 276.812 97.558,276.143 97.924,275.836 98.120 C 272.910 99.990,266.996 102.193,268.587 100.821 C 270.569 99.112,274.803 92.978,276.594 89.219 C 277.227 87.890,277.960 86.385,278.223 85.874 C 280.635 81.178,282.365 69.300,281.444 63.755 C 279.932 54.647,279.557 53.350,276.715 47.399 C 275.740 45.359,273.297 41.425,272.198 40.125 C 270.509 38.130,268.401 35.387,268.401 35.185 C 268.401 34.728,269.427 34.946,269.888 35.502 M199.628 36.772 C 199.628 36.959,199.492 37.169,199.325 37.237 C 198.258 37.672,194.320 43.482,192.563 47.212 C 191.937 48.541,191.250 49.940,191.037 50.320 C 190.399 51.456,188.874 56.380,188.633 58.082 C 188.510 58.953,188.173 60.871,187.885 62.345 C 187.267 65.500,187.209 70.289,187.750 73.420 C 187.962 74.647,188.301 76.624,188.504 77.815 C 189.179 81.779,191.817 88.602,194.135 92.379 C 195.631 94.817,196.516 96.141,196.869 96.468 C 199.327 98.752,199.923 101.056,197.730 99.797 C 197.241 99.516,196.589 99.168,196.283 99.024 C 193.741 97.834,185.459 92.670,184.758 91.839 C 184.656 91.718,184.074 91.301,183.466 90.913 C 182.122 90.056,174.903 83.518,173.607 81.984 C 173.095 81.378,171.706 79.789,170.519 78.452 C 167.957 75.566,164.752 71.057,163.937 69.189 C 163.382 67.920,165.087 64.485,167.658 61.687 C 167.965 61.353,168.550 60.611,168.959 60.038 C 169.368 59.466,170.162 58.478,170.724 57.844 C 171.286 57.210,172.359 55.939,173.109 55.019 C 173.858 54.099,176.214 51.840,178.342 50.000 C 180.471 48.160,182.595 46.320,183.061 45.911 C 183.527 45.502,184.283 44.916,184.740 44.610 C 185.197 44.303,186.517 43.379,187.674 42.557 C 188.831 41.735,190.195 40.855,190.706 40.602 C 191.217 40.350,192.221 39.785,192.937 39.348 C 197.078 36.818,199.628 35.836,199.628 36.772 M212.620 41.694 C 210.242 42.329,207.742 44.553,206.416 47.212 C 201.166 57.740,213.975 67.715,222.865 60.022 C 231.713 52.363,224.043 38.641,212.620 41.694 M220.723 43.310 C 230.196 49.488,225.784 62.628,214.589 61.583 C 205.548 60.739,202.823 48.493,210.580 43.566 C 213.439 41.750,218.149 41.631,220.723 43.310 M61.152 61.586 C 60.743 61.676,60.074 61.889,59.665 62.060 C 59.257 62.231,58.211 62.564,57.342 62.799 C 56.473 63.034,55.762 63.387,55.762 63.584 C 55.762 63.780,55.520 63.941,55.224 63.941 C 54.927 63.941,54.234 64.359,53.682 64.870 C 53.131 65.381,52.537 65.799,52.362 65.799 C 52.187 65.799,52.045 65.961,52.045 66.159 C 52.045 66.356,51.487 67.075,50.806 67.757 C 50.125 68.438,49.079 69.991,48.482 71.208 L 47.398 73.420 47.294 166.171 C 47.190 258.900,47.251 264.033,48.477 265.388 C 48.803 265.748,49.071 266.299,49.071 266.611 C 49.071 266.923,49.447 267.614,49.907 268.148 C 50.367 268.681,51.245 269.706,51.859 270.425 C 52.615 271.311,53.273 271.720,53.903 271.696 C 54.668 271.667,54.701 271.629,54.089 271.478 C 52.595 271.111,50.201 268.104,48.679 264.684 L 47.770 262.639 47.770 168.401 L 47.770 74.164 48.606 72.418 C 49.066 71.458,49.442 70.569,49.442 70.442 C 49.442 69.346,53.375 65.425,55.909 63.995 C 59.327 62.066,60.203 62.029,99.628 62.153 C 135.098 62.265,135.901 62.284,137.136 63.011 C 140.954 65.260,141.093 70.642,137.404 73.397 C 136.387 74.156,136.022 74.165,99.322 74.349 C 58.347 74.555,60.918 74.383,60.222 76.959 C 59.696 78.906,59.751 236.049,60.278 236.684 C 60.849 237.372,340.501 237.417,341.189 236.730 C 341.769 236.149,341.846 77.924,341.266 76.400 C 340.808 75.194,338.892 74.349,336.617 74.349 C 332.124 74.349,329.157 70.562,330.489 66.526 C 333.106 58.595,347.731 61.577,352.340 70.982 L 353.717 73.792 353.717 168.401 L 353.717 263.011 352.303 265.836 C 350.862 268.716,348.735 271.164,347.398 271.483 C 346.808 271.624,346.853 271.670,347.620 271.704 C 348.717 271.753,351.979 268.393,352.558 266.617 C 352.738 266.065,353.156 265.303,353.487 264.924 C 354.418 263.858,354.413 72.937,353.483 71.879 C 353.149 71.500,352.751 70.771,352.599 70.260 C 352.447 69.749,352.094 69.080,351.815 68.773 C 351.536 68.467,350.743 67.588,350.053 66.822 C 349.362 66.055,348.608 65.428,348.376 65.428 C 348.145 65.428,347.955 65.290,347.955 65.122 C 347.955 64.566,344.985 62.859,343.577 62.606 C 342.816 62.469,341.978 62.186,341.715 61.977 C 339.875 60.514,333.656 61.511,331.563 63.604 C 329.774 65.394,328.716 70.632,330.144 70.632 C 330.331 70.632,330.483 70.860,330.483 71.139 C 330.483 72.998,334.101 75.093,337.309 75.093 C 339.075 75.093,339.595 75.249,340.351 76.005 L 341.264 76.918 341.264 156.675 L 341.264 236.431 200.700 236.431 L 60.136 236.431 60.360 235.595 C 60.484 235.135,60.587 199.200,60.590 155.739 C 60.595 76.734,60.595 76.720,61.353 75.907 L 62.111 75.093 98.596 75.093 C 134.375 75.093,135.111 75.078,136.624 74.346 C 142.255 71.620,142.106 64.718,136.359 62.126 C 134.721 61.387,64.384 60.883,61.152 61.586 M100.558 82.903 C 88.290 83.014,77.835 83.254,77.323 83.437 C 76.214 83.835,74.349 85.511,74.349 86.111 C 74.349 86.346,74.099 86.634,73.792 86.752 C 73.306 86.938,73.234 89.377,73.234 105.580 L 73.234 124.194 74.071 125.383 C 75.459 127.356,78.071 128.996,79.824 128.996 C 81.980 128.996,85.899 125.990,85.850 124.375 C 85.827 123.617,85.822 123.617,85.510 124.349 C 83.950 128.021,79.250 129.271,76.105 126.851 C 73.549 124.885,73.606 125.363,73.606 105.742 L 73.606 88.089 74.487 86.703 C 76.482 83.563,73.938 83.842,101.642 83.728 L 126.255 83.628 127.593 84.658 C 130.621 86.988,130.918 90.832,128.302 93.811 C 126.610 95.737,126.883 95.712,105.762 95.911 L 86.059 96.097 85.962 109.825 C 85.908 117.376,85.945 123.472,86.044 123.374 C 86.143 123.275,86.240 117.223,86.259 109.924 C 86.279 102.626,86.326 96.617,86.363 96.572 C 86.401 96.527,95.381 96.402,106.320 96.294 L 126.208 96.097 127.566 95.178 C 132.498 91.841,131.173 84.767,125.304 83.101 C 124.194 82.786,123.190 82.567,123.074 82.615 C 122.958 82.663,112.825 82.793,100.558 82.903 M77.019 183.654 C 75.442 184.502,74.349 185.492,74.349 186.072 C 74.349 186.322,74.099 186.734,73.792 186.989 C 72.949 187.688,72.949 224.821,73.792 225.144 C 74.099 225.262,74.349 225.550,74.349 225.784 C 74.349 226.700,76.461 228.166,78.372 228.575 C 81.048 229.150,122.587 229.161,125.353 228.589 C 131.417 227.333,132.582 219.785,127.220 216.488 L 125.836 215.637 106.629 215.625 C 96.065 215.619,87.159 215.513,86.839 215.390 C 86.326 215.193,86.256 213.616,86.252 202.100 C 86.249 194.913,86.095 188.399,85.910 187.624 C 85.044 184.001,80.308 181.886,77.019 183.654 M319.045 183.645 C 315.391 185.613,315.219 186.484,315.320 202.560 L 315.398 215.056 315.598 201.459 L 315.799 187.862 316.846 186.281 C 319.496 182.278,325.288 182.865,327.440 187.355 C 328.000 188.523,328.067 190.503,328.067 205.960 C 328.067 225.186,328.077 225.105,325.539 227.138 L 324.379 228.067 299.763 228.067 C 275.361 228.067,275.138 228.060,274.098 227.288 C 270.183 224.385,270.732 218.954,275.171 216.689 C 276.472 216.025,277.646 215.985,295.874 215.985 C 306.502 215.985,315.275 215.860,315.370 215.706 C 315.465 215.553,306.580 215.475,295.626 215.533 L 275.709 215.638 274.151 216.648 C 271.358 218.458,269.854 223.333,271.561 225.040 C 271.868 225.347,272.119 225.735,272.119 225.904 C 272.119 226.713,274.342 228.190,276.141 228.575 C 278.888 229.164,321.031 229.094,323.566 228.496 C 325.034 228.150,325.680 227.719,326.912 226.263 L 328.439 224.460 328.439 206.003 L 328.439 187.546 327.323 186.000 C 325.342 183.253,321.698 182.216,319.045 183.645 M83.171 184.627 C 85.776 186.573,85.676 185.932,85.798 201.409 C 85.880 211.811,86.023 215.478,86.356 215.689 C 86.602 215.846,95.385 215.976,105.873 215.979 C 126.473 215.986,125.951 215.939,128.195 217.980 C 131.190 220.705,130.420 225.922,126.749 227.780 C 125.492 228.416,78.411 228.463,77.227 227.830 C 76.198 227.279,75.012 226.090,74.230 224.827 C 73.215 223.186,73.287 189.071,74.310 187.067 C 75.994 183.767,80.396 182.555,83.171 184.627 M173.173 251.905 C 167.726 254.166,169.620 263.197,175.541 263.197 C 182.043 263.197,183.691 253.434,177.480 251.710 C 175.586 251.184,174.827 251.218,173.173 251.905 M198.591 251.750 C 197.919 251.976,196.837 252.832,196.187 253.652 C 192.381 258.458,197.841 265.273,203.268 262.490 C 210.066 259.003,205.847 249.312,198.591 251.750 M223.727 251.822 C 222.040 252.424,220.547 254.068,220.230 255.672 C 218.888 262.459,227.546 266.035,231.010 260.124 C 233.856 255.267,229.139 249.889,223.727 251.822 M179.112 252.765 C 179.193 253.005,179.617 253.536,180.057 253.945 C 182.471 256.195,180.470 261.673,177.021 262.256 C 170.539 263.351,167.398 254.915,173.305 252.276 C 174.157 251.895,178.957 252.299,179.112 252.765 M203.160 252.265 C 204.469 252.634,206.320 255.542,206.320 257.228 C 206.320 261.729,200.063 264.218,196.998 260.936 C 192.820 256.464,197.032 250.536,203.160 252.265 M229.137 252.819 C 233.930 256.589,230.489 263.395,224.370 262.247 C 220.672 261.553,219.259 256.375,221.976 253.476 C 223.558 251.787,227.379 251.436,229.137 252.819 M57.069 272.584 L 58.550 273.420 115.185 273.522 C 168.648 273.619,171.804 273.660,171.547 274.266 C 170.718 276.219,170.290 277.612,170.265 278.439 C 170.249 278.950,169.998 279.683,169.706 280.069 C 169.414 280.454,169.060 281.542,168.920 282.485 C 168.779 283.429,168.451 284.535,168.190 284.944 C 167.929 285.353,167.600 286.482,167.459 287.454 C 167.317 288.425,167.070 289.219,166.909 289.219 C 166.749 289.219,166.421 290.098,166.181 291.171 C 165.942 292.244,165.566 293.492,165.347 293.942 L 164.948 294.762 151.132 294.872 L 137.316 294.981 136.052 296.046 C 133.501 298.193,133.457 298.492,133.457 313.738 C 133.457 329.859,133.582 330.400,137.685 332.113 C 139.939 333.054,262.067 333.031,263.976 332.089 C 265.662 331.258,267.286 329.706,267.286 328.926 C 267.286 328.580,267.454 328.193,267.658 328.067 C 268.353 327.637,268.142 300.359,267.430 298.655 C 265.861 294.900,265.387 294.796,249.984 294.796 L 236.820 294.796 236.296 293.959 C 236.007 293.499,235.656 292.454,235.516 291.636 C 235.376 290.818,235.049 289.814,234.789 289.405 C 234.529 288.996,234.199 287.909,234.054 286.989 C 233.910 286.069,233.575 284.981,233.311 284.572 C 233.046 284.164,232.716 283.106,232.577 282.223 C 232.439 281.340,232.096 280.252,231.816 279.807 C 231.536 279.361,231.196 278.206,231.060 277.239 C 230.924 276.273,230.654 275.385,230.462 275.266 C 230.269 275.146,230.112 274.728,230.112 274.336 C 230.112 273.636,231.186 273.620,286.524 273.521 L 342.937 273.420 344.418 272.584 C 346.154 271.604,345.317 271.442,343.459 272.398 C 342.275 273.006,338.567 273.060,285.874 273.234 C 236.086 273.399,229.565 273.485,229.648 273.978 C 229.750 274.585,230.584 277.446,231.597 280.669 C 231.951 281.794,232.596 283.885,233.031 285.316 C 233.466 286.747,234.242 289.201,234.755 290.769 C 235.268 292.337,235.688 293.884,235.688 294.207 C 235.688 294.531,235.730 294.830,235.781 294.873 C 235.832 294.916,242.147 295.041,249.814 295.152 L 263.755 295.353 265.109 296.390 C 267.328 298.087,267.322 298.034,267.206 314.228 L 267.100 328.985 265.700 330.384 L 264.300 331.784 201.388 331.879 C 142.031 331.968,138.404 331.937,137.201 331.321 C 134.327 329.851,134.399 330.267,134.281 314.466 C 134.161 298.411,134.210 298.008,136.492 296.425 L 138.039 295.353 151.703 295.167 C 159.218 295.065,165.434 294.898,165.517 294.796 C 165.599 294.693,166.134 293.104,166.706 291.264 C 167.278 289.424,168.037 286.998,168.394 285.874 C 168.751 284.749,169.423 282.574,169.888 281.041 C 170.354 279.507,171.070 277.281,171.480 276.094 C 171.936 274.773,172.092 273.802,171.882 273.592 C 171.675 273.386,149.121 273.208,115.416 273.148 C 62.778 273.055,59.220 273.008,58.104 272.398 C 57.450 272.040,56.616 271.747,56.251 271.747 C 55.856 271.747,56.188 272.086,57.069 272.584 " stroke="none" fill="#97c2ce" fill-rule="evenodd"></path><path id="path4" d="M59.665 62.616 C 57.149 63.145,54.594 64.493,52.740 66.271 C 51.433 67.524,49.442 70.042,49.442 70.442 C 49.442 70.569,49.066 71.458,48.606 72.418 L 47.770 74.164 47.770 168.401 L 47.770 262.639 48.679 264.684 C 50.655 269.125,52.696 271.279,55.242 271.613 C 56.244 271.744,57.565 272.121,58.178 272.450 C 59.187 272.991,64.664 273.058,115.416 273.148 C 149.121 273.208,171.675 273.386,171.882 273.592 C 172.092 273.802,171.936 274.773,171.480 276.094 C 171.070 277.281,170.354 279.507,169.888 281.041 C 169.423 282.574,168.751 284.749,168.394 285.874 C 168.037 286.998,167.278 289.424,166.706 291.264 C 166.134 293.104,165.599 294.693,165.517 294.796 C 165.434 294.898,159.218 295.065,151.703 295.167 L 138.039 295.353 136.492 296.425 C 134.210 298.008,134.161 298.411,134.281 314.466 C 134.399 330.267,134.327 329.851,137.201 331.321 C 138.404 331.937,142.031 331.968,201.388 331.879 L 264.300 331.784 265.700 330.384 L 267.100 328.985 267.206 314.228 C 267.322 298.034,267.328 298.087,265.109 296.390 L 263.755 295.353 249.814 295.152 C 242.147 295.041,235.832 294.916,235.781 294.873 C 235.730 294.830,235.688 294.531,235.688 294.207 C 235.688 293.884,235.268 292.337,234.755 290.769 C 234.242 289.201,233.466 286.747,233.031 285.316 C 232.596 283.885,231.951 281.794,231.597 280.669 C 230.584 277.446,229.750 274.585,229.648 273.978 C 229.565 273.485,236.086 273.399,285.874 273.234 C 337.417 273.064,342.304 272.996,343.494 272.429 C 344.210 272.089,345.576 271.704,346.531 271.575 C 348.706 271.279,350.587 269.379,352.446 265.597 L 353.717 263.011 353.717 168.401 L 353.717 73.792 352.340 70.982 C 347.731 61.577,333.106 58.595,330.489 66.526 C 329.157 70.562,332.124 74.349,336.617 74.349 C 338.892 74.349,340.808 75.194,341.266 76.400 C 341.846 77.924,341.769 236.149,341.189 236.730 C 340.501 237.417,60.849 237.372,60.278 236.684 C 59.751 236.049,59.696 78.906,60.222 76.959 C 60.918 74.383,58.347 74.555,99.322 74.349 C 136.022 74.165,136.387 74.156,137.404 73.397 C 141.093 70.642,140.954 65.260,137.136 63.011 C 135.548 62.076,63.974 61.711,59.665 62.616 M135.267 63.171 C 140.133 64.111,140.882 71.516,136.283 73.209 C 135.546 73.480,123.641 73.606,98.670 73.606 L 62.135 73.606 60.807 74.858 L 59.480 76.110 59.480 156.629 C 59.480 235.856,59.491 237.155,60.199 237.533 C 60.691 237.797,105.174 237.918,201.082 237.918 L 341.247 237.918 341.817 237.048 C 342.459 236.068,342.519 77.057,341.878 75.751 C 341.261 74.495,339.244 73.607,336.945 73.580 C 332.475 73.526,330.507 71.163,331.256 66.750 C 332.040 62.129,342.548 61.485,347.239 65.771 C 347.592 66.093,348.359 66.777,348.944 67.290 C 350.321 68.499,351.505 70.528,352.424 73.256 C 353.603 76.756,353.579 260.357,352.399 263.714 C 350.912 267.947,348.242 271.004,346.033 271.004 C 345.265 271.004,343.788 271.338,342.751 271.747 C 340.895 272.479,339.988 272.491,285.519 272.491 C 255.078 272.491,229.908 272.592,229.584 272.716 C 228.782 273.024,228.829 274.925,229.699 277.383 C 230.085 278.475,230.855 280.874,231.409 282.714 C 231.964 284.554,232.642 286.645,232.917 287.361 C 233.192 288.076,233.530 289.247,233.668 289.963 C 233.806 290.678,234.149 291.716,234.431 292.268 C 234.713 292.820,234.944 293.605,234.944 294.013 C 234.944 295.820,235.651 295.911,249.654 295.911 C 268.309 295.911,266.543 294.046,266.543 313.738 L 266.543 328.491 265.404 329.766 L 264.266 331.041 200.813 331.041 L 137.361 331.041 136.245 329.926 L 135.130 328.810 135.025 313.913 C 134.885 294.021,133.101 295.913,152.009 295.905 C 159.287 295.902,165.445 295.770,165.694 295.612 C 166.146 295.325,167.068 292.735,168.962 286.431 C 169.515 284.591,170.201 282.558,170.486 281.914 C 170.771 281.270,171.011 280.433,171.020 280.055 C 171.029 279.677,171.291 278.699,171.603 277.881 C 172.641 275.158,172.920 273.565,172.456 273.007 C 172.094 272.571,163.383 272.490,116.218 272.488 C 66.081 272.486,60.296 272.426,59.294 271.899 C 58.680 271.576,57.258 271.222,56.134 271.111 C 53.033 270.807,50.880 268.441,49.102 263.384 L 48.327 261.178 48.343 168.414 L 48.359 75.651 49.198 73.234 C 51.099 67.762,55.292 63.942,60.186 63.222 C 62.948 62.816,133.181 62.768,135.267 63.171 M77.323 83.907 C 76.425 84.237,75.431 85.217,74.487 86.703 L 73.606 88.089 73.606 105.773 C 73.606 124.867,73.592 124.721,75.604 126.485 C 78.455 128.985,82.230 128.672,84.576 125.739 L 85.688 124.349 85.874 110.223 L 86.059 96.097 105.762 95.911 C 126.883 95.712,126.610 95.737,128.302 93.811 C 130.915 90.836,130.621 86.988,127.603 84.665 L 126.274 83.643 102.078 83.672 C 88.770 83.689,77.630 83.794,77.323 83.907 M127.185 85.232 C 129.726 87.177,129.959 91.196,127.664 93.492 C 127.151 94.004,126.698 94.459,126.656 94.503 C 126.614 94.546,117.491 94.671,106.382 94.781 C 86.941 94.974,86.165 95.008,85.657 95.703 C 85.225 96.295,85.130 98.859,85.130 109.947 C 85.130 119.234,84.999 123.723,84.712 124.281 C 82.479 128.617,76.250 128.335,74.766 123.829 C 74.072 121.724,74.195 89.192,74.903 87.498 C 76.368 83.992,75.571 84.088,102.788 84.149 L 125.836 84.201 127.185 85.232 M77.331 184.038 C 76.008 184.595,75.114 185.491,74.310 187.067 C 73.287 189.071,73.215 223.186,74.230 224.827 C 75.012 226.090,76.198 227.279,77.227 227.830 C 78.411 228.463,125.492 228.416,126.749 227.780 C 130.420 225.922,131.190 220.705,128.195 217.980 C 125.951 215.939,126.473 215.986,105.873 215.979 C 95.385 215.976,86.602 215.846,86.356 215.689 C 86.023 215.478,85.880 211.811,85.798 201.409 C 85.676 185.932,85.776 186.573,83.171 184.627 C 82.031 183.777,78.741 183.444,77.331 184.038 M319.076 184.187 C 318.424 184.471,317.421 185.413,316.845 186.282 L 315.799 187.862 315.613 201.831 L 315.428 215.799 295.725 215.985 C 278.355 216.149,275.890 216.244,274.906 216.784 C 270.718 219.082,270.303 224.474,274.098 227.288 C 275.138 228.060,275.361 228.067,299.763 228.067 L 324.379 228.067 325.539 227.138 C 328.077 225.105,328.067 225.186,328.067 205.960 C 328.067 187.161,328.074 187.229,325.953 185.242 C 324.231 183.629,321.369 183.190,319.076 184.187 M82.232 184.780 C 82.701 184.996,83.546 185.817,84.108 186.605 L 85.130 188.037 85.130 201.754 C 85.130 213.014,85.225 215.601,85.658 216.193 C 86.168 216.890,86.838 216.916,105.639 216.959 C 126.688 217.007,127.121 217.047,128.373 219.021 C 129.951 221.509,129.389 225.019,127.168 226.559 L 125.796 227.509 101.862 227.509 L 77.927 227.509 76.716 226.680 C 74.506 225.165,74.545 225.504,74.424 206.877 C 74.305 188.481,74.393 187.406,76.155 185.766 C 77.672 184.354,80.359 183.918,82.232 184.780 M325.115 185.453 C 327.216 187.105,327.221 187.157,327.212 205.607 C 327.204 224.327,327.135 224.997,325.059 226.581 L 323.841 227.509 299.703 227.509 L 275.565 227.509 274.493 226.686 C 271.021 224.020,271.945 218.164,275.982 217.245 C 276.617 217.100,285.685 216.967,296.132 216.948 C 311.648 216.921,315.240 216.821,315.742 216.404 C 316.294 215.947,316.357 214.481,316.357 202.136 C 316.357 186.914,316.325 187.126,318.893 185.100 C 320.242 184.035,323.551 184.222,325.115 185.453 M172.763 251.330 C 167.884 253.905,167.929 260.680,172.843 263.187 C 176.478 265.041,180.794 263.021,181.991 258.906 C 183.554 253.531,177.699 248.724,172.763 251.330 M197.893 251.248 C 193.212 253.674,193.075 260.314,197.650 263.021 C 202.407 265.836,208.083 261.640,207.228 255.940 C 206.610 251.818,201.627 249.314,197.893 251.248 M223.048 251.282 C 219.850 252.982,218.528 256.466,219.866 259.669 C 222.678 266.399,232.372 264.557,232.441 257.279 C 232.487 252.312,227.319 249.012,223.048 251.282 M177.480 251.710 C 182.533 253.113,182.802 260.664,177.869 262.607 C 172.454 264.739,167.612 258.814,170.815 253.974 C 172.332 251.683,174.602 250.911,177.480 251.710 M203.793 252.062 C 206.573 253.329,207.631 258.586,205.553 260.812 C 201.532 265.119,194.961 262.883,194.993 257.219 C 195.019 252.718,199.486 250.100,203.793 252.062 M228.259 251.905 C 230.210 252.685,231.970 255.149,231.970 257.098 C 231.970 261.214,227.205 264.375,223.680 262.597 C 216.599 259.025,220.907 248.963,228.259 251.905 " stroke="none" fill="#868ea4" fill-rule="evenodd"></path></g></svg>