<svg viewBox="-1 1 511 511.99999" xmlns="http://www.w3.org/2000/svg"><path d="m383 7.5-42.78125 130.917969h85.558594zm0 0" fill="#ff4128"/><path d="m368 333.382812h60v-71.003906l-60-15zm0 0" fill="#ff4128"/><path d="m398 333.382812h-60v-71.003906l60-15zm0 0" fill="#ff6337"/><path d="m473.019531 430.207031-105.007812-45 90.015625 119.289063h30zm0 0" fill="#7dd9ff"/><path d="m443.019531 430.207031-75.007812-45-75.007813 44.984375-15.035156 74.304688h180.058594zm0 0" fill="#a8e5ff"/><path d="m456.519531 348.519531c-.289062-1.460937-1.019531-4.339843-1.019531-4.339843h-86.03125l73.558594 86.019531c3.320312 4.71875 8.800781 7.800781 15 7.800781 6.203125 0 11.671875-3.082031 14.992187-7.792969zm0 0" fill="#9db55f"/><path d="m429.46875 363.109375-118.96875-18.929687c-.390625 1.429687-.730469 2.878906-1.019531 4.339843l-16.476563 81.671875c.621094.882813 1.347656 1.71875 2.117188 2.476563 3.308594 3.300781 7.867187 5.332031 12.910156 5.332031 6.199219 0 11.679688-3.082031 15-7.800781.617188.878906 1.320312 1.710937 2.089844 2.46875 3.308594 3.300781 7.867187 5.332031 12.910156 5.332031 6.199219 0 11.679688-3.082031 15-7.800781.617188.878906 1.320312 1.710937 2.089844 2.46875 3.308594 3.300781 7.867187 5.332031 12.910156 5.332031 6.199219 0 11.679688-3.082031 15-7.800781.617188.878906 1.316406 1.710937 2.089844 2.46875 3.308594 3.300781 7.867187 5.332031 12.910156 5.332031 6.199219 0 11.679688-3.082031 15-7.800781.617188.878906 1.316406 1.710937 2.089844 2.46875 3.308594 3.300781 7.867187 5.332031 12.910156 5.332031 6.199219 0 11.679688-3.082031 14.988281-7.792969zm0 0" fill="#b9d171"/><path d="m428 303.390625h-30l31.46875 59.71875c9.378906-4.769531 18.183594-11.082031 26.035156-18.929687-4.359375-16.53125-14.226562-30.8125-27.503906-40.789063zm0 0" fill="#cf301b"/><path d="m426.519531 348.519531c-3.691406-18.359375-14.089843-34.289062-28.519531-45.128906h-60c-13.28125 9.976563-23.144531 24.257813-27.503906 40.789063 32.21875 32.21875 80.472656 38.527343 118.972656 18.929687zm0 0" fill="#ff4128"/><path d="m408 227.378906h-30l20 35h30v-15c0-11.046875-8.957031-20-20-20zm0 0" fill="#7dd9ff"/><path d="m378 227.378906h-20c-11.046875 0-20 8.953125-20 20v15h60v-15c0-11.046875-8.957031-20-20-20zm0 0" fill="#a8e5ff"/><path d="m449.714844 169.46875c-.003906-3.5-1.214844-6.710938-3.226563-9.261719l-28.800781-36.476562-34.691406 73.644531h60c8.285156 0 15-6.226562 15-14.507812.003906-5.867188-3.371094-10.933594-8.28125-13.398438zm0 0" fill="#c27749"/><path d="m316.28125 169.46875c.003906-3.5 1.214844-6.710938 3.226562-9.261719l28.800782-36.476562 34.691406 73.644531s-51.722656 0-60 0c-8.285156 0-15-6.226562-15-14.507812 0-5.867188 3.375-10.933594 8.28125-13.398438zm0 0" fill="#e18f4e"/><path d="m383 107.378906v46.351563h34.695312l-.007812-29.996094c-8.25-9.980469-20.71875-16.355469-34.6875-16.355469zm0 0" fill="#c27749"/><path d="m348.304688 153.730469.003906-29.996094c8.25-9.980469 20.71875-16.355469 34.691406-16.355469 6.089844 0 11.320312 10.878906 13.667969 26.5-.128907-.0625 0 19.851563 0 19.851563zm0 0" fill="#e18f4e"/><path d="m417.6875 123.734375c-1.070312 4.546875-4.21875 8.53125-8.859375 10.464844-4.640625 1.917969-9.679687 1.328125-13.648437-1.132813l-12.179688 64.3125c24.847656 0 45-20.152344 45-45 0-10.882812-3.882812-20.855468-10.3125-28.644531zm0 0" fill="#ffd9d4"/><path d="m396.667969 133.878906c-.507813-.242187-1.007813-.511718-1.488281-.8125-2.722657 3.792969-7.160157 6.261719-12.179688 6.261719-4.082031 0-7.769531-1.628906-10.480469-4.28125-.621093-.609375-1.191406-1.269531-1.699219-1.980469-3.972656 2.460938-9.011718 3.050782-13.652343 1.132813-2.03125-.839844-3.769531-2.082031-5.1875-3.589844-1.8125-1.933594-3.070313-4.316406-3.671875-6.875-6.429688 7.789063-10.308594 17.761719-10.308594 28.644531 0 24.847656 20.148438 45 45 45 8.277344 0 15-20.152344 15-45 0-6.601562-.480469-12.863281-1.332031-18.5zm0 0" fill="#fff0d3"/><path d="m278 112.378906c8.277344 0 15 6.71875 15 15v15h-15l-59.996094 45v-75zm0 0" fill="#fff0d3"/><path d="m248 142.378906-20.5 42.5 20.5 42.5h30v-85zm0 0" fill="#ffcb63"/><path d="m233.003906 142.378906v-15c0-8.285156-6.71875-15-15-15-8.285156 0-15 6.714844-15 15v100h44.996094v-85zm0 0" fill="#ffe2a8"/><path d="m128 262.5v75c24.851562 0 45-20.148438 45-45zm0 0" fill="#c27749"/><path d="m143 292.5-15-30-45 30c0 24.851562 20.148438 45 45 45 8.285156 0 15-20.148438 15-45zm0 0" fill="#e18f4e"/><path d="m153 172.5h-30l20 120h30v-100c0-11.046875-8.953125-20-20-20zm0 0" fill="#9db55f"/><path d="m123 172.5h-20c-11.046875 0-20 8.953125-20 20v100h60v-100c0-11.046875-8.953125-20-20-20zm0 0" fill="#b9d171"/><path d="m128 52.5v101l45-46v-10c0-24.851562-20.148438-45-45-45zm0 0" fill="#ffb4a9"/><path d="m128 52.5c-24.851562 0-45 20.148438-45 45v10l60 46v-56c0-24.851562-6.714844-45-15-45zm0 0" fill="#ffd9d4"/><path d="m96.230469 107.5v31.257812c-3.414063 8.074219-11.410157 13.742188-20.730469 13.742188-12.425781 0-22.5-10.074219-22.5-22.5s10.074219-22.5 22.5-22.5zm0 0" fill="#85453d"/><path d="m146.707031 107.5c-1.050781-1.574219-2.300781-3.003906-3.707031-4.261719l-15 69.261719c24.851562 0 45-20.148438 45-45v-20zm0 0" fill="#85453d"/><path d="m143 127.5v-24.261719c-3.980469-3.566406-9.234375-5.738281-15-5.738281-7.800781 0-14.671875 3.96875-18.710938 10h-26.289062v20c0 24.851562 20.148438 45 45 45 8.285156 0 15-20.148438 15-45zm0 0" fill="#a45e43"/><path d="m323 204.878906h120c12.613281 0 22.5-9.671875 22.5-22.011718 0-7.070313-3.253906-13.5625-8.710938-17.773438-.679687-3.457031-2.175781-6.695312-4.414062-9.535156l-22.355469-28.3125-39.890625-122.074219c-1.007812-3.085937-3.886718-5.171875-7.128906-5.171875-3.246094 0-6.121094 2.085938-7.128906 5.171875l-39.890625 122.070313-22.359375 28.316406c-2.238282 2.839844-3.730469 6.078125-4.414063 9.535156-5.457031 4.210938-8.707031 10.699219-8.707031 17.773438 0 12.339843 9.882812 22.011718 22.5 22.011718zm22.5-52.5c0-5.238281 1.082031-10.226562 3.027344-14.757812 1.71875 1.4375 3.660156 2.628906 5.773437 3.507812 4.71875 1.949219 9.921875 2.207032 14.746094.835938 3.933594 3.109375 8.84375 4.863281 13.953125 4.863281 5.105469 0 10.019531-1.753906 13.949219-4.863281 4.820312 1.367187 10.035156 1.109375 14.761719-.84375 2.105468-.875 4.042968-2.0625 5.757812-3.496094 1.949219 4.53125 3.03125 9.515625 3.03125 14.753906 0 20.675782-16.824219 37.5-37.5 37.5-20.679688 0-37.5-16.824218-37.5-37.5zm11.703125-27.179687c6.726563-6.390625 15.808594-10.320313 25.796875-10.320313s19.070312 3.929688 25.796875 10.320313c-.753906.894531-1.71875 1.601562-2.835937 2.066406-2.25.933594-4.738282.722656-6.832032-.574219-3.355468-2.074218-7.742187-1.199218-10.042968 2.003906-1.429688 1.992188-3.648438 3.132813-6.085938 3.132813-2.441406 0-4.660156-1.140625-6.085938-3.132813-2.300781-3.203124-6.691406-4.082031-10.046874-2.003906-2.089844 1.300782-4.585938 1.507813-6.816407.582032-1.125-.46875-2.09375-1.179688-2.847656-2.074219zm85.011719 44.277343c.003906 2.832032 1.605468 5.421876 4.136718 6.695313 2.558594 1.285156 4.148438 3.847656 4.148438 6.695313 0 3.996093-3.226562 7.011718-7.5 7.011718h-23.308594c8.480469-8.304687 14.171875-19.445312 15.5-31.875l5.410156 6.847656c.734376.933594 1.613282 2.492188 1.613282 4.625zm-59.214844-137.832031 24.242188 74.1875c-7.257813-3.796875-15.5-5.953125-24.242188-5.953125s-16.984375 2.160156-24.242188 5.953125zm-63.351562 144.527344c2.53125-1.273437 4.128906-3.863281 4.132812-6.695313 0-2.132812.878906-3.691406 1.613281-4.621093l5.410157-6.851563c1.328124 12.429688 7.019531 23.574219 15.503906 31.875h-23.308594c-4.277344 0-7.5-3.015625-7.5-7.011718 0-2.847657 1.589844-5.410157 4.148438-6.695313zm0 0"/><path d="m480.429688 429c-.023438-.128906-.050782-.257812-.078126-.390625l-16.480468-81.566406c-.324219-1.609375-.710938-3.203125-1.128906-4.78125-.023438-.097657-.046876-.195313-.078126-.289063-4.425781-16.523437-13.890624-31.269531-27.164062-42.226562v-45.226563c41.984375-3.804687 74.996094-39.183593 74.996094-82.144531 0-4.144531-3.355469-7.5-7.5-7.5-4.140625 0-7.496094 3.355469-7.496094 7.5 0 35.074219-26.894531 63.972656-61.136719 67.191406-3.375-11.371094-13.914062-19.691406-26.363281-19.691406h-50c-15.164062 0-27.5 12.335938-27.5 27.5v52.367188c-13.285156 10.964843-22.753906 25.71875-27.175781 42.246093-.019531.070313-.039063.144531-.058594.21875-.421875 1.59375-.8125 3.199219-1.140625 4.824219l-31.507812 155.980469c-.445313 2.203125.121093 4.492187 1.546874 6.230469 1.425782 1.742187 3.554688 2.753906 5.804688 2.753906h210.0625c2.246094 0 4.378906-1.007813 5.804688-2.75 1.425781-1.738282 1.992187-4.027344 1.546874-6.234375zm-134.929688-133.117188v-26.007812h75v26.007812zm12.5-61.003906h50c6.890625 0 12.5 5.605469 12.5 12.5v7.5h-75v-7.5c0-6.894531 5.605469-12.5 12.5-12.5zm-17.40625 76.003906h84.808594c10.070312 8.144532 17.53125 18.910157 21.59375 31.039063-17.550782 16.03125-40.105469 24.808594-64 24.808594-23.890625 0-46.449219-8.777344-64-24.808594 4.0625-12.128906 11.527344-22.894531 21.597656-31.039063zm-25.441406 47.417969c19.84375 15.566407 43.84375 23.355469 67.847656 23.355469 24 0 48-7.789062 67.84375-23.355469l14.078125 69.695313c-1.921875 1.589844-4.351563 2.503906-6.894531 2.503906-3.515625 0-6.832032-1.726562-8.863282-4.617188-1.40625-1.996093-3.691406-3.183593-6.136718-3.183593-2.441406 0-4.726563 1.1875-6.132813 3.183593-2.03125 2.890626-5.347656 4.617188-8.863281 4.617188-3.519531 0-6.835938-1.726562-8.867188-4.617188-1.40625-1.996093-3.691406-3.183593-6.132812-3.183593-2.445312 0-4.730469 1.1875-6.136719 3.183593-2.03125 2.890626-5.347656 4.617188-8.863281 4.617188-3.519531 0-6.835938-1.726562-8.867188-4.617188-1.40625-1.996093-3.691406-3.183593-6.132812-3.183593-2.445312 0-4.730469 1.1875-6.136719 3.183593-2.03125 2.890626-5.347656 4.617188-8.863281 4.617188-3.519531 0-6.835938-1.726562-8.867188-4.617188-1.40625-1.996093-3.691406-3.183593-6.132812-3.183593-2.445312 0-4.730469 1.1875-6.136719 3.183593-2.03125 2.890626-5.347656 4.617188-8.863281 4.617188-3.519531 0-6.835938-1.726562-8.867188-4.617188-1.40625-1.996093-3.691406-3.183593-6.132812-3.183593-2.445312 0-4.730469 1.1875-6.136719 3.183593-2.03125 2.890626-5.347656 4.617188-8.863281 4.617188-2.566406 0-5.019531-.925781-6.949219-2.542969zm-28.015625 138.699219 10.816406-53.566406c3.148437 1.339844 6.570313 2.066406 10.078125 2.066406 5.4375 0 10.671875-1.726562 15-4.8125 4.324219 3.085938 9.558594 4.8125 15 4.8125 5.4375 0 10.671875-1.726562 15-4.8125 4.324219 3.085938 9.558594 4.8125 15 4.8125 5.4375 0 10.671875-1.726562 15-4.8125 4.324219 3.085938 9.558594 4.8125 15 4.8125 5.4375 0 10.671875-1.726562 15-4.8125 4.324219 3.085938 9.558594 4.8125 15 4.8125 5.4375 0 10.671875-1.726562 14.996094-4.8125 4.328125 3.085938 9.5625 4.8125 15 4.8125 3.488281 0 6.886718-.71875 10.019531-2.039062l10.816406 53.539062zm0 0"/><path d="m190.371094 497.382812-24.871094-8.289062v-159.902344c9.269531-9.472656 15-22.421875 15-36.691406v-100c0-11.726562-7.382812-21.757812-17.738281-25.703125 10.867187-9.625 17.738281-23.671875 17.738281-39.296875v-30c0-28.949219-23.550781-52.5-52.5-52.5s-52.5 23.550781-52.5 52.5v2.5c-16.542969 0-30 13.457031-30 30s13.457031 30 30 30c3.441406 0 6.8125-.601562 10-1.730469 2.265625 3.117188 4.859375 5.976563 7.738281 8.527344-8.0625 3.070313-14.3125 9.828125-16.691406 18.203125h-53.546875c-12.40625 0-22.5 10.09375-22.5 22.5s10.09375 22.5 22.5 22.5h15c4.140625 0 7.5-3.359375 7.5-7.5 0-4.144531-3.359375-7.5-7.5-7.5h-15c-4.136719 0-7.5-3.363281-7.5-7.5s3.363281-7.5 7.5-7.5h52.5v92.5c0 14.269531 5.730469 27.21875 15 36.691406v165.308594c0 3.226562 2.066406 6.09375 5.128906 7.113281l30 10c.785156.261719 1.585938.386719 2.371094.386719 3.140625 0 6.066406-1.988281 7.113281-5.128906 1.3125-3.929688-.8125-8.179688-4.742187-9.488282l-24.871094-8.289062v-149.171875c6.824219 3.25 14.449219 5.078125 22.5 5.078125 8.046875 0 15.675781-1.828125 22.5-5.078125v154.578125c0 3.226562 2.0625 6.09375 5.125 7.113281l30 10c.789062.261719 1.585938.386719 2.375.386719 3.140625 0 6.066406-1.988281 7.113281-5.128906 1.3125-3.929688-.8125-8.179688-4.742187-9.488282zm-62.371094-332.382812c-20.679688 0-37.5-16.824219-37.5-37.5v-12.5h18.792969c2.5 0 4.839843-1.25 6.230469-3.328125 2.796874-4.179687 7.460937-6.671875 12.476562-6.671875s9.679688 2.492188 12.476562 6.671875c1.390626 2.078125 3.730469 3.328125 6.230469 3.328125h18.792969v12.5c0 20.675781-16.824219 37.5-37.5 37.5zm-37.5-67.5c0-20.679688 16.820312-37.5 37.5-37.5 20.675781 0 37.5 16.820312 37.5 37.5v2.5h-15.140625c-5.652344-6.324219-13.746094-10-22.359375-10-8.617188 0-16.707031 3.675781-22.363281 10h-15.136719zm-15 47.5c-8.269531 0-15-6.730469-15-15s6.730469-15 15-15v12.5c0 6.027344 1.035156 11.8125 2.910156 17.207031-.953125.1875-1.925781.292969-2.910156.292969zm27.5 35h50c6.890625 0 12.5 5.605469 12.5 12.5v92.5h-75v-92.5c0-6.894531 5.605469-12.5 12.5-12.5zm-11.746094 120h73.492188c-3.484375 17.09375-18.636719 30-36.746094 30s-33.261719-12.90625-36.746094-30zm0 0"/><path d="m285.5 227.378906v-77.5h7.5c4.140625 0 7.5-3.359375 7.5-7.5v-15c0-12.40625-10.09375-22.5-22.5-22.5h-60c-12.40625 0-22.5 10.09375-22.5 22.5v100c0 4.140625 3.355469 7.5 7.5 7.5h75c4.140625 0 7.5-3.359375 7.5-7.5zm-7.5-107.5c4.136719 0 7.5 3.363282 7.5 7.5v7.5h-45v-7.5c0-2.628906-.453125-5.15625-1.285156-7.5zm-7.5 100h-60v-92.5c0-4.136718 3.363281-7.5 7.5-7.5s7.5 3.363282 7.5 7.5v15c0 4.140625 3.355469 7.5 7.5 7.5h37.5zm0 0"/></svg>