<svg id="svg" version="1.1" xmlns="http://www.w3.org/2000/svg" xmlns:xlink="http://www.w3.org/1999/xlink" width="400" height="184.7953216374269" viewBox="0, 0, 400,184.7953216374269"><g id="svgg"><path id="path0" d="M220.518 33.230 C 220.518 45.725,220.491 46.906,220.205 47.325 C 219.688 48.083,212.512 57.866,209.430 62.015 C 207.845 64.150,203.362 70.243,199.468 75.555 L 192.389 85.214 169.254 85.167 L 146.118 85.120 146.026 60.166 L 145.933 35.213 100.046 35.166 L 54.159 35.119 54.159 85.671 L 54.159 136.222 54.575 136.322 C 54.804 136.378,75.453 136.400,100.462 136.372 L 145.933 136.322 145.980 111.322 L 146.027 86.322 169.185 86.322 L 192.343 86.322 193.028 87.662 C 193.404 88.399,194.177 89.875,194.746 90.943 C 195.315 92.010,196.449 94.173,197.266 95.749 C 198.083 97.324,198.897 98.863,199.074 99.168 C 199.252 99.473,200.042 100.970,200.832 102.495 C 203.044 106.769,206.237 112.876,207.209 114.695 C 207.977 116.130,209.294 118.641,211.186 122.274 C 211.874 123.595,212.715 125.197,213.056 125.833 C 213.397 126.470,214.269 128.133,214.995 129.530 C 215.721 130.927,216.585 132.569,216.915 133.179 C 217.244 133.789,218.190 135.589,219.016 137.178 L 220.518 140.067 220.518 152.659 L 220.518 165.251 244.686 165.204 L 268.854 165.157 268.901 138.494 L 268.948 111.830 244.733 111.830 L 220.518 111.830 220.515 124.815 C 220.512 139.463,220.541 139.172,219.323 136.784 C 219.038 136.225,218.412 135.018,217.932 134.104 C 217.451 133.189,216.495 131.359,215.807 130.037 C 215.119 128.715,214.203 126.969,213.773 126.155 C 212.340 123.450,211.149 121.188,209.979 118.946 C 209.342 117.726,208.448 116.021,207.993 115.157 C 207.538 114.293,206.708 112.713,206.149 111.645 C 204.126 107.783,202.888 105.428,202.215 104.159 C 201.837 103.447,201.029 101.909,200.418 100.739 C 198.135 96.369,197.063 94.324,196.353 92.976 C 193.850 88.228,192.791 86.177,192.791 86.072 C 192.791 86.006,215.749 85.952,243.808 85.952 L 294.824 85.952 294.824 99.261 L 294.824 112.571 318.993 112.524 L 343.161 112.477 343.208 85.721 L 343.254 58.965 319.039 58.965 L 294.824 58.965 294.824 72.181 L 294.824 85.397 243.900 85.397 C 215.892 85.397,192.976 85.356,192.976 85.305 C 192.976 85.185,205.163 68.542,209.798 62.332 C 210.460 61.446,211.125 60.540,211.277 60.319 C 213.163 57.575,220.074 48.435,220.225 48.485 C 220.365 48.532,220.453 52.261,220.518 60.819 L 220.610 73.087 221.118 73.068 C 221.398 73.058,232.274 73.042,245.287 73.031 L 268.948 73.013 268.901 46.349 L 268.854 19.686 244.686 19.639 L 220.518 19.592 220.518 33.230 M268.392 46.396 L 268.392 72.643 244.640 72.643 L 220.887 72.643 220.887 46.396 L 220.887 20.148 244.640 20.148 L 268.392 20.148 268.392 46.396 M240.566 33.577 C 239.547 33.793,238.478 35.688,238.941 36.460 C 239.245 36.968,240.296 36.579,240.296 35.958 C 240.296 35.001,240.575 34.935,244.581 34.938 C 249.421 34.941,248.926 34.612,248.968 37.856 C 249.010 41.085,248.711 40.720,251.347 40.753 C 252.546 40.769,253.628 40.843,253.751 40.919 C 254.070 41.116,254.072 53.063,253.752 53.383 C 253.627 53.508,253.025 53.604,252.366 53.604 L 251.201 53.604 251.201 54.251 L 251.201 54.898 252.756 54.898 C 255.479 54.898,255.504 54.814,255.418 45.729 L 255.360 39.610 254.314 38.428 C 253.738 37.778,252.481 36.414,251.521 35.397 L 249.774 33.549 245.358 33.523 C 242.930 33.509,240.773 33.534,240.566 33.577 M251.827 37.857 C 254.022 40.210,254.034 40.111,251.571 40.111 L 249.538 40.111 249.538 37.972 C 249.538 35.344,249.486 35.347,251.827 37.857 M144.917 36.460 C 144.917 36.537,144.917 58.808,144.917 85.952 L 144.917 135.305 100.092 135.305 L 55.268 135.305 55.268 85.767 L 55.268 36.228 100.092 36.275 C 124.746 36.301,144.917 36.384,144.917 36.460 M235.312 37.840 C 233.782 38.364,233.792 38.288,233.862 49.076 C 233.936 60.370,232.924 59.151,242.218 59.147 C 251.243 59.143,250.370 60.053,250.370 50.659 L 250.370 43.674 248.522 41.661 C 247.506 40.554,246.267 39.215,245.770 38.685 L 244.866 37.721 240.416 37.668 C 237.286 37.631,235.771 37.682,235.312 37.840 M244.219 41.821 L 244.270 44.455 246.580 44.547 L 248.891 44.640 248.940 50.902 C 248.974 55.370,248.928 57.238,248.778 57.418 C 248.439 57.826,235.574 57.788,235.417 57.379 C 235.271 56.997,235.271 39.861,235.417 39.479 C 235.515 39.224,236.081 39.187,239.848 39.187 L 244.167 39.187 244.219 41.821 M246.829 41.993 C 248.690 43.992,248.690 43.993,246.600 43.993 C 244.632 43.993,244.813 44.195,244.883 42.068 C 244.955 39.908,244.891 39.911,246.829 41.993 M99.445 55.483 C 99.090 55.585,98.667 55.787,98.507 55.931 C 98.346 56.075,98.138 56.194,98.045 56.196 C 97.358 56.212,96.426 58.647,96.522 60.172 L 96.580 61.091 97.898 61.144 L 99.217 61.198 99.294 59.987 C 99.420 57.999,98.831 58.133,107.446 58.133 L 114.880 58.133 114.929 63.300 C 114.966 67.150,115.036 68.503,115.206 68.611 C 115.332 68.691,117.410 68.757,119.824 68.759 L 124.214 68.762 124.214 80.046 L 124.214 91.330 123.725 91.783 C 123.272 92.204,123.098 92.237,121.322 92.237 L 119.409 92.237 119.409 93.623 L 119.409 95.009 121.316 95.009 C 124.196 95.009,125.443 94.475,126.492 92.791 L 126.895 92.144 126.895 79.282 L 126.895 66.420 126.270 65.696 C 125.926 65.298,124.678 63.934,123.497 62.664 C 122.316 61.394,120.933 59.900,120.425 59.344 C 119.917 58.787,118.862 57.663,118.080 56.846 L 116.660 55.360 108.376 55.328 C 103.248 55.308,99.846 55.367,99.445 55.483 M117.604 60.397 C 118.572 61.424,120.192 63.178,121.722 64.856 C 122.127 65.300,122.773 65.999,123.157 66.410 C 123.542 66.820,123.826 67.247,123.789 67.358 C 123.710 67.594,116.655 67.747,116.431 67.518 C 116.325 67.410,116.162 60.195,116.249 59.473 C 116.289 59.145,116.665 59.401,117.604 60.397 M342.838 85.722 L 342.885 112.016 319.086 111.969 L 295.287 111.922 295.236 86.044 C 295.208 71.811,295.230 59.979,295.286 59.750 L 295.386 59.333 319.089 59.380 L 342.791 59.427 342.838 85.722 M89.094 64.129 C 87.025 64.546,85.952 66.075,85.952 68.604 L 85.952 69.871 87.338 69.871 L 88.725 69.871 88.725 68.753 C 88.725 67.812,88.796 67.564,89.180 67.180 L 89.636 66.724 96.990 66.772 L 104.344 66.821 104.436 72.089 L 104.529 77.357 109.057 77.449 L 113.586 77.542 113.586 88.835 C 113.586 102.124,113.890 100.739,110.976 100.739 L 108.872 100.739 108.872 102.126 L 108.872 103.512 111.192 103.512 C 113.671 103.512,114.115 103.394,115.162 102.462 C 116.303 101.445,116.260 102.018,116.270 87.897 L 116.279 75.006 115.410 74.056 C 114.931 73.533,113.993 72.520,113.324 71.805 C 112.655 71.090,110.822 69.106,109.250 67.396 C 107.679 65.686,106.197 64.212,105.957 64.121 C 105.449 63.928,90.054 63.935,89.094 64.129 M107.040 69.092 C 108.726 70.877,112.028 74.459,112.741 75.276 C 113.530 76.180,113.558 76.174,109.237 76.113 L 105.638 76.063 105.588 71.950 C 105.561 69.688,105.609 67.837,105.696 67.837 C 105.783 67.837,106.388 68.402,107.040 69.092 M75.567 72.159 C 74.556 72.760,74.187 73.146,73.764 74.045 C 73.308 75.016,73.149 112.011,73.596 113.327 C 73.938 114.336,74.460 114.946,75.479 115.531 L 76.433 116.078 90.261 116.080 L 104.089 116.081 105.048 115.621 C 107.445 114.469,107.413 114.720,107.352 97.957 L 107.301 83.991 105.089 81.598 C 103.872 80.282,102.833 79.163,102.779 79.112 C 102.724 79.061,102.181 78.478,101.571 77.817 C 100.961 77.155,99.433 75.513,98.175 74.167 L 95.888 71.719 86.068 71.736 C 76.310 71.754,76.243 71.756,75.567 72.159 M314.510 73.169 C 313.666 73.684,313.465 74.024,313.432 74.991 L 313.401 75.878 314.048 75.878 C 314.630 75.878,314.701 75.822,314.758 75.323 C 314.872 74.308,314.878 74.307,319.227 74.307 C 323.962 74.307,323.475 73.946,323.475 77.459 L 323.475 80.026 325.924 80.078 L 328.373 80.129 328.422 86.260 C 328.478 93.305,328.553 92.976,326.881 92.976 L 325.878 92.976 325.878 93.715 L 325.878 94.455 326.996 94.455 C 329.774 94.455,329.760 94.499,329.760 85.949 L 329.760 78.819 329.067 78.070 C 328.685 77.658,327.583 76.463,326.617 75.415 C 325.652 74.366,324.700 73.356,324.503 73.168 C 323.958 72.651,315.357 72.651,314.510 73.169 M94.647 79.667 C 94.702 82.565,94.764 84.956,94.785 84.982 C 94.807 85.007,96.977 85.028,99.608 85.028 C 103.455 85.028,104.432 85.078,104.603 85.283 C 105.055 85.828,104.788 112.074,104.324 112.695 L 103.934 113.216 90.441 113.264 L 76.947 113.311 76.459 112.823 L 75.970 112.334 75.970 94.051 C 75.970 74.220,75.936 74.904,76.951 74.493 C 77.174 74.402,81.225 74.344,85.952 74.364 L 94.547 74.399 94.647 79.667 M325.872 76.736 C 328.607 79.689,328.584 79.501,326.231 79.589 C 323.822 79.678,323.846 79.701,323.860 77.311 C 323.877 74.481,323.803 74.502,325.872 76.736 M97.687 77.634 C 98.295 78.295,99.417 79.504,100.181 80.321 C 103.773 84.159,103.807 83.832,99.812 83.893 C 95.472 83.960,95.933 84.443,95.933 79.829 C 95.933 75.375,95.784 75.562,97.687 77.634 M314.006 77.075 L 309.435 77.172 308.922 77.684 L 308.410 78.197 308.359 87.443 C 308.291 99.830,307.325 98.521,316.535 98.521 C 325.696 98.521,324.769 99.474,324.769 90.060 L 324.769 82.976 322.057 80.028 C 320.566 78.406,319.283 77.079,319.207 77.079 C 319.131 77.079,318.958 77.057,318.823 77.029 C 318.687 77.001,316.520 77.022,314.006 77.075 M318.742 78.666 C 318.803 78.827,318.854 80.072,318.854 81.433 L 318.854 83.907 321.118 83.959 L 323.383 84.011 323.431 90.234 L 323.480 96.457 322.981 96.849 C 322.353 97.344,310.694 97.373,310.102 96.881 C 309.707 96.553,309.627 78.987,310.018 78.595 C 310.394 78.219,318.596 78.286,318.742 78.666 M322.736 83.118 C 322.736 83.510,319.487 83.466,319.336 83.072 C 319.175 82.653,319.197 79.756,319.362 79.587 C 319.530 79.414,322.736 82.769,322.736 83.118 M81.760 89.945 C 81.539 90.521,82.243 90.571,90.389 90.565 C 98.567 90.559,99.233 90.511,99.016 89.945 C 98.843 89.493,81.934 89.493,81.760 89.945 M90.296 97.181 C 81.534 97.230,81.329 97.242,81.704 97.693 C 82.067 98.131,98.951 98.014,99.036 97.574 C 99.122 97.126,99.240 97.131,90.296 97.181 M81.701 104.806 C 81.701 105.170,81.824 105.176,90.388 105.176 C 98.953 105.176,99.076 105.170,99.076 104.806 C 99.076 104.441,98.953 104.436,90.388 104.436 C 81.824 104.436,81.701 104.441,81.701 104.806 M268.392 138.444 L 268.392 164.688 267.976 164.789 C 267.747 164.845,257.079 164.867,244.270 164.839 L 220.980 164.787 220.933 138.494 L 220.886 112.200 244.639 112.200 L 268.392 112.200 268.392 138.444 M243.960 125.835 L 239.953 125.885 239.495 126.430 C 238.993 127.026,238.669 128.391,238.960 128.683 C 239.382 129.104,240.200 128.773,240.260 128.156 C 240.355 127.182,240.462 127.160,244.848 127.214 L 248.891 127.264 248.940 129.945 C 249.004 133.398,248.735 133.067,251.517 133.128 L 253.882 133.179 253.933 139.002 C 253.996 146.107,254.079 145.655,252.723 145.659 C 250.708 145.664,250.410 146.964,252.384 147.139 C 255.285 147.397,255.354 147.209,255.391 138.915 C 255.427 131.057,255.654 132.025,253.128 129.287 C 249.411 125.256,250.726 125.751,243.960 125.835 M252.911 131.200 C 253.931 132.321,253.877 132.367,251.617 132.308 L 249.630 132.255 249.577 130.327 C 249.495 127.337,249.362 127.302,252.911 131.200 M234.462 130.511 L 233.919 131.078 233.919 140.582 L 233.919 150.085 234.523 150.690 L 235.127 151.294 241.934 151.294 C 251.264 151.294,250.348 152.150,250.429 143.352 C 250.495 136.164,250.481 135.991,249.782 135.211 C 248.937 134.267,247.119 132.308,245.968 131.100 L 244.867 129.945 239.936 129.945 L 235.004 129.945 234.462 130.511 M244.180 133.780 C 244.184 136.973,244.009 136.760,246.680 136.824 L 248.891 136.876 248.940 143.051 C 248.983 148.601,248.957 149.260,248.680 149.567 C 248.319 149.965,236.384 150.102,235.663 149.716 C 235.221 149.480,235.090 131.897,235.527 131.460 C 235.686 131.301,236.932 131.238,239.963 131.238 L 244.177 131.238 244.180 133.780 M248.078 135.537 C 248.563 136.192,248.390 136.263,246.472 136.191 L 245.009 136.137 244.955 134.488 C 244.877 132.074,244.913 132.053,246.410 133.650 C 247.120 134.408,247.870 135.257,248.078 135.537 " stroke="none" fill="#eb812f" fill-rule="evenodd"></path><path id="path1" d="M0.000 92.421 L 0.000 184.843 200.000 184.843 L 400.000 184.843 400.000 92.421 L 400.000 0.000 200.000 0.000 L 0.000 0.000 0.000 92.421 M269.039 46.303 L 269.039 73.290 244.769 73.383 C 229.557 73.441,220.434 73.410,220.323 73.299 C 220.216 73.192,220.148 68.386,220.148 60.935 L 220.148 48.745 219.463 49.650 C 219.087 50.147,218.712 50.582,218.631 50.616 C 218.550 50.650,218.484 50.753,218.484 50.844 C 218.484 51.047,214.782 56.075,214.569 56.161 C 214.486 56.195,214.416 56.320,214.415 56.439 C 214.413 56.557,214.184 56.916,213.906 57.236 C 213.629 57.556,213.276 58.002,213.124 58.228 C 212.889 58.575,212.216 59.486,211.692 60.166 C 211.614 60.268,211.391 60.598,211.197 60.900 C 211.003 61.201,210.505 61.875,210.090 62.397 C 209.674 62.919,209.168 63.577,208.965 63.860 C 208.762 64.142,208.221 64.895,207.763 65.533 C 205.810 68.258,199.515 76.800,199.261 77.071 C 199.108 77.234,198.763 77.697,198.493 78.101 C 198.224 78.505,197.871 79.002,197.710 79.205 C 197.549 79.409,196.571 80.739,195.538 82.163 C 194.505 83.586,193.589 84.778,193.502 84.812 C 193.416 84.846,193.346 84.950,193.346 85.043 C 193.346 85.145,213.421 85.213,243.993 85.213 L 294.640 85.213 294.640 72.018 L 294.640 58.823 295.055 58.713 C 295.682 58.547,343.125 58.583,343.392 58.750 C 343.577 58.865,343.615 64.393,343.577 85.778 L 343.530 112.662 319.085 112.709 L 294.640 112.756 294.640 99.446 L 294.640 86.137 243.900 86.137 C 215.994 86.137,193.161 86.181,193.161 86.234 C 193.161 86.288,193.524 87.016,193.969 87.852 C 195.222 90.209,197.404 94.391,198.233 96.026 C 198.646 96.839,199.025 97.546,199.076 97.597 C 199.127 97.648,199.584 98.521,200.092 99.538 C 200.601 100.555,201.061 101.428,201.115 101.479 C 201.168 101.530,201.635 102.403,202.152 103.420 C 202.669 104.436,203.488 106.017,203.972 106.932 C 204.456 107.847,205.356 109.552,205.972 110.721 C 206.588 111.890,207.530 113.678,208.066 114.695 C 208.601 115.712,209.480 117.417,210.019 118.484 C 210.558 119.552,211.049 120.467,211.112 120.518 C 211.174 120.568,211.290 120.818,211.368 121.072 C 211.446 121.326,211.563 121.576,211.628 121.627 C 211.693 121.677,211.983 122.177,212.271 122.736 C 212.560 123.295,213.276 124.667,213.863 125.786 C 214.449 126.904,215.292 128.526,215.736 129.390 C 216.180 130.254,216.595 131.003,216.657 131.054 C 216.720 131.104,216.835 131.354,216.913 131.608 C 216.991 131.862,217.110 132.112,217.177 132.163 C 217.244 132.213,217.637 132.921,218.050 133.734 C 218.464 134.547,219.104 135.785,219.474 136.484 L 220.145 137.756 220.193 124.654 L 220.240 111.553 244.640 111.553 L 269.039 111.553 269.039 138.540 L 269.039 165.527 244.640 165.527 L 220.240 165.527 220.193 152.598 C 220.167 145.487,220.080 139.623,220.000 139.567 C 219.920 139.510,219.518 138.799,219.107 137.985 C 218.306 136.402,216.531 133.002,215.246 130.591 C 214.193 128.616,212.385 125.139,211.111 122.643 C 210.541 121.525,210.023 120.568,209.960 120.518 C 209.898 120.467,209.782 120.217,209.704 119.963 C 209.626 119.709,209.509 119.459,209.444 119.409 C 209.379 119.358,209.088 118.859,208.796 118.299 C 208.505 117.740,207.789 116.368,207.206 115.250 C 206.622 114.131,205.780 112.509,205.336 111.645 C 204.892 110.781,204.477 110.032,204.415 109.982 C 204.352 109.931,204.237 109.681,204.159 109.427 C 204.081 109.173,203.962 108.923,203.895 108.872 C 203.828 108.822,203.436 108.115,203.023 107.301 C 202.610 106.488,201.917 105.157,201.483 104.344 C 201.048 103.530,200.215 101.950,199.631 100.832 C 199.046 99.713,198.195 98.091,197.739 97.227 C 197.282 96.363,196.345 94.575,195.656 93.253 C 193.525 89.169,192.666 87.547,192.306 86.924 L 191.959 86.324 169.197 86.323 C 148.397 86.322,146.425 86.347,146.320 86.621 C 146.257 86.785,146.209 98.070,146.213 111.699 C 146.220 131.622,146.175 136.507,145.985 136.627 C 145.677 136.821,54.509 136.825,54.205 136.632 C 54.020 136.514,53.983 126.198,54.020 85.664 L 54.067 34.843 100.092 34.843 L 146.118 34.843 146.214 59.889 C 146.266 73.665,146.329 84.956,146.352 84.982 C 146.376 85.007,156.705 85.028,169.306 85.028 L 192.216 85.028 192.962 83.965 C 193.372 83.380,193.775 82.819,193.858 82.717 C 193.940 82.616,195.079 81.077,196.388 79.298 C 197.696 77.518,198.836 76.035,198.921 76.001 C 199.006 75.967,199.076 75.860,199.076 75.762 C 199.076 75.665,199.161 75.485,199.266 75.362 C 199.370 75.239,199.965 74.432,200.587 73.567 C 201.210 72.703,201.770 71.955,201.832 71.904 C 201.893 71.853,202.151 71.500,202.405 71.120 C 202.658 70.739,202.927 70.427,203.004 70.426 C 203.080 70.426,203.142 70.333,203.142 70.221 C 203.142 70.046,204.120 68.669,204.441 68.392 C 204.500 68.341,204.725 68.008,204.942 67.652 C 205.159 67.297,205.490 66.839,205.679 66.636 C 205.868 66.433,206.306 65.850,206.653 65.342 C 207.000 64.834,207.392 64.308,207.524 64.173 C 207.655 64.039,207.763 63.872,207.763 63.802 C 207.763 63.732,207.953 63.467,208.185 63.214 C 208.417 62.961,208.895 62.338,209.248 61.830 C 209.601 61.322,209.931 60.864,209.982 60.813 C 210.033 60.762,210.409 60.263,210.818 59.704 C 211.226 59.145,211.743 58.438,211.966 58.133 C 215.528 53.256,217.305 50.836,218.588 49.119 L 220.139 47.043 220.143 33.241 C 220.147 22.376,220.197 19.419,220.379 19.346 C 220.506 19.294,231.506 19.267,244.824 19.284 L 269.039 19.316 269.039 46.303 M221.072 46.396 L 221.072 72.458 244.547 72.458 L 268.022 72.458 268.022 46.396 L 268.022 20.333 244.547 20.333 L 221.072 20.333 221.072 46.396 M251.299 34.692 C 252.616 36.142,252.734 36.269,254.575 38.219 L 255.638 39.344 255.638 46.483 C 255.638 54.427,255.652 54.327,254.408 55.024 C 253.329 55.628,251.250 55.617,251.096 55.006 C 250.804 53.841,251.026 53.516,252.157 53.457 C 252.750 53.426,253.294 53.294,253.412 53.152 C 253.584 52.944,253.678 47.401,253.609 41.451 C 253.605 41.041,253.569 41.035,251.205 41.035 L 248.806 41.035 248.663 40.527 C 248.585 40.247,248.539 38.956,248.561 37.658 L 248.601 35.298 244.680 35.348 L 240.758 35.397 240.665 36.137 L 240.573 36.876 239.667 36.934 C 238.052 37.036,237.988 35.082,239.564 33.756 L 240.139 33.272 245.075 33.272 L 250.010 33.272 251.299 34.692 M55.638 85.767 L 55.638 135.121 100.139 135.074 L 144.640 135.028 144.686 85.721 L 144.733 36.414 100.185 36.414 L 55.638 36.414 55.638 85.767 M249.908 38.159 L 249.908 39.926 251.606 39.926 L 253.304 39.926 252.761 39.335 C 252.462 39.010,252.135 38.649,252.033 38.532 C 251.319 37.713,250.273 36.618,250.107 36.515 C 249.970 36.431,249.908 36.942,249.908 38.159 M245.879 38.401 C 247.259 39.831,249.352 42.084,250.066 42.908 L 250.647 43.579 250.647 50.650 C 250.647 60.379,251.471 59.519,242.144 59.519 C 232.606 59.519,233.457 60.615,233.457 48.331 C 233.457 38.700,233.453 38.729,234.607 37.819 L 235.213 37.342 240.033 37.340 L 244.853 37.338 245.879 38.401 M235.712 39.593 C 235.420 39.885,235.391 56.586,235.681 57.129 C 235.970 57.668,248.005 57.687,248.493 57.148 C 248.764 56.848,248.799 56.137,248.799 50.863 L 248.799 44.917 246.688 44.917 C 243.757 44.917,243.993 45.169,243.993 42.032 L 243.993 39.372 239.963 39.372 C 237.075 39.372,235.871 39.434,235.712 39.593 M245.102 42.191 L 245.102 43.808 246.618 43.808 L 248.134 43.808 247.468 43.115 C 247.102 42.733,246.419 42.006,245.952 41.498 L 245.102 40.574 245.102 42.191 M116.513 55.072 C 117.076 55.286,117.270 55.480,121.165 59.710 C 122.893 61.588,124.889 63.748,125.601 64.510 C 126.312 65.273,126.999 66.083,127.126 66.310 C 127.463 66.913,127.455 91.118,127.117 92.052 C 126.207 94.570,125.017 95.230,121.519 95.154 L 119.131 95.102 119.131 93.530 L 119.131 91.959 121.072 91.912 C 122.140 91.886,123.200 91.768,123.429 91.650 L 123.845 91.435 123.845 80.283 L 123.845 69.131 119.593 69.131 C 114.029 69.131,114.603 69.790,114.603 63.401 L 114.603 58.410 107.440 58.413 C 103.500 58.415,100.194 58.477,100.092 58.552 C 99.735 58.815,99.470 59.481,99.571 59.866 C 99.627 60.079,99.617 60.547,99.551 60.904 L 99.429 61.553 97.995 61.553 C 96.312 61.553,96.117 61.419,96.120 60.268 C 96.127 57.686,97.272 55.880,99.306 55.240 C 100.423 54.889,115.641 54.740,116.513 55.072 M116.494 63.401 L 116.543 67.190 119.917 67.216 C 123.555 67.243,123.539 67.247,122.778 66.440 C 122.496 66.141,121.311 64.860,120.144 63.593 C 118.977 62.326,117.667 60.912,117.233 60.451 L 116.444 59.612 116.494 63.401 M295.379 85.675 L 295.379 111.647 318.950 111.600 L 342.520 111.553 342.518 85.952 C 342.516 71.872,342.515 60.206,342.515 60.028 C 342.514 59.721,341.268 59.704,318.946 59.704 L 295.379 59.704 295.379 85.675 M106.217 63.887 C 106.566 64.053,106.953 64.333,107.077 64.509 C 107.200 64.686,108.091 65.684,109.057 66.728 C 110.023 67.772,110.966 68.802,111.152 69.017 C 111.339 69.233,112.129 70.078,112.908 70.897 C 115.168 73.269,115.852 74.041,116.352 74.777 L 116.821 75.467 116.819 87.595 C 116.817 100.764,116.813 100.820,115.790 102.161 C 114.749 103.525,114.067 103.777,111.205 103.851 C 108.244 103.929,108.325 103.973,108.321 102.279 C 108.316 100.497,108.240 100.555,110.587 100.555 C 113.632 100.555,113.309 101.952,113.309 88.788 L 113.309 77.634 108.909 77.634 C 105.734 77.634,104.448 77.572,104.288 77.412 C 104.127 77.251,104.067 75.823,104.067 72.144 L 104.067 67.098 96.787 67.098 L 89.506 67.098 89.208 67.554 C 89.023 67.835,88.909 68.402,88.909 69.040 L 88.909 70.070 87.292 70.016 L 85.675 69.963 85.616 68.854 C 85.483 66.360,86.752 64.426,88.935 63.798 C 90.116 63.458,105.480 63.537,106.217 63.887 M105.920 72.135 L 105.915 75.970 109.458 75.970 C 111.406 75.970,112.937 75.908,112.860 75.832 C 112.782 75.756,112.040 74.951,111.211 74.043 C 110.382 73.135,109.157 71.805,108.488 71.086 C 107.820 70.366,106.969 69.445,106.599 69.039 L 105.925 68.299 105.920 72.135 M96.808 72.227 C 97.474 72.888,102.584 78.397,104.158 80.151 C 104.260 80.265,104.803 80.848,105.365 81.445 C 105.927 82.043,106.696 82.901,107.075 83.351 L 107.763 84.170 107.761 98.323 C 107.758 113.128,107.760 113.087,106.952 114.320 C 105.545 116.468,106.431 116.359,90.375 116.359 L 76.407 116.359 75.528 115.906 C 74.532 115.394,73.850 114.665,73.358 113.586 C 72.867 112.508,72.823 75.218,73.312 74.251 C 74.004 72.883,75.209 71.751,76.258 71.484 C 76.456 71.433,80.961 71.383,86.270 71.371 L 95.922 71.349 96.808 72.227 M325.185 73.398 C 325.617 73.864,326.334 74.654,326.777 75.154 C 327.221 75.654,328.160 76.668,328.863 77.407 L 330.142 78.752 330.089 86.070 L 330.037 93.388 329.305 94.021 C 328.587 94.641,328.545 94.652,327.087 94.600 L 325.601 94.547 325.601 93.623 L 325.601 92.699 326.802 92.606 L 328.004 92.514 328.004 86.506 L 328.004 80.499 325.601 80.407 L 323.198 80.314 323.147 77.492 L 323.096 74.669 319.080 74.719 L 315.065 74.769 314.972 75.508 C 314.880 76.244,314.876 76.248,314.002 76.304 L 313.124 76.360 313.130 75.195 C 313.145 72.730,313.859 72.447,319.917 72.507 L 324.399 72.551 325.185 73.398 M76.742 75.104 L 76.340 75.532 76.340 93.926 L 76.340 112.320 76.768 112.722 L 77.196 113.124 90.268 113.124 C 101.990 113.124,103.387 113.093,103.796 112.825 L 104.251 112.527 104.251 98.962 L 104.251 85.397 99.630 85.397 C 93.634 85.397,94.270 86.077,94.270 79.667 L 94.270 74.677 85.707 74.677 L 77.144 74.677 76.742 75.104 M324.214 77.309 L 324.214 79.090 324.908 79.148 C 325.289 79.179,326.041 79.176,326.579 79.141 L 327.556 79.078 326.851 78.310 C 326.462 77.887,326.020 77.375,325.866 77.172 C 325.713 76.969,325.279 76.516,324.901 76.165 L 324.214 75.528 324.214 77.309 M319.501 76.910 C 319.864 77.121,322.812 80.273,324.353 82.100 L 325.139 83.031 325.139 89.858 C 325.139 99.635,326.042 98.706,316.532 98.706 L 309.453 98.706 308.793 98.084 L 308.133 97.461 308.133 87.767 L 308.133 78.073 308.699 77.530 C 309.011 77.232,309.572 76.901,309.947 76.794 C 310.888 76.527,319.008 76.626,319.501 76.910 M96.265 80.090 L 96.211 83.549 99.399 83.549 C 102.142 83.549,103.075 83.426,102.449 83.148 C 102.335 83.098,100.081 80.706,96.911 77.270 L 96.320 76.630 96.265 80.090 M310.068 78.971 C 310.018 79.100,309.999 83.115,310.026 87.893 L 310.074 96.580 316.543 96.580 L 323.013 96.580 323.062 90.434 L 323.110 84.288 321.005 84.288 C 318.388 84.288,318.509 84.428,318.444 81.319 L 318.392 78.835 314.275 78.786 C 311.081 78.747,310.137 78.789,310.068 78.971 M319.639 81.608 L 319.622 82.994 321.006 82.994 L 322.390 82.994 321.134 81.608 C 320.444 80.846,319.829 80.222,319.768 80.222 C 319.707 80.222,319.649 80.846,319.639 81.608 M99.360 89.659 C 99.426 89.767,99.429 90.059,99.366 90.308 L 99.253 90.761 90.358 90.713 C 80.806 90.662,80.586 90.639,81.318 89.757 C 81.617 89.396,99.139 89.302,99.360 89.659 M99.088 96.864 C 99.491 97.080,99.557 97.597,99.224 97.930 C 98.764 98.389,81.572 98.232,81.323 97.767 C 81.158 97.459,81.181 97.310,81.437 97.027 C 81.810 96.616,98.338 96.463,99.088 96.864 M99.088 104.258 C 99.519 104.489,99.563 105.276,99.153 105.433 C 98.778 105.577,82.296 105.576,81.760 105.432 C 81.212 105.285,81.071 104.825,81.447 104.409 C 81.811 104.008,98.356 103.866,99.088 104.258 M221.072 138.447 L 221.072 164.510 244.547 164.510 L 268.022 164.510 268.022 138.447 L 268.022 112.384 244.547 112.384 L 221.072 112.384 221.072 138.447 M249.933 125.519 C 250.173 125.632,250.723 126.155,251.156 126.680 C 251.588 127.205,252.772 128.507,253.786 129.575 L 255.631 131.516 255.634 138.746 C 255.638 147.536,255.612 147.608,252.382 147.467 L 251.109 147.412 251.109 146.488 L 251.109 145.564 252.311 145.471 L 253.512 145.379 253.561 139.325 L 253.609 133.272 251.319 133.272 C 248.378 133.272,248.521 133.439,248.521 130.009 L 248.521 127.357 244.824 127.360 C 240.738 127.363,240.721 127.366,240.634 128.283 C 240.524 129.441,238.458 129.323,238.450 128.158 C 238.444 127.296,239.143 126.094,239.869 125.718 C 240.705 125.285,249.087 125.119,249.933 125.519 M249.913 130.268 L 249.908 132.163 251.666 132.163 L 253.424 132.163 252.248 130.915 C 251.601 130.229,250.813 129.376,250.495 129.020 L 249.918 128.373 249.913 130.268 M246.433 131.119 C 247.175 131.946,248.364 133.233,249.076 133.979 C 249.787 134.725,250.435 135.451,250.515 135.592 C 250.594 135.733,250.636 139.102,250.607 143.077 L 250.555 150.306 249.864 150.939 L 249.174 151.571 242.222 151.571 C 232.542 151.571,233.549 152.849,233.549 140.573 C 233.549 128.579,232.922 129.709,239.649 129.575 C 245.384 129.460,244.834 129.335,246.433 131.119 M235.796 131.761 C 235.301 132.308,235.332 148.968,235.828 149.417 C 236.371 149.908,248.046 149.879,248.493 149.385 C 248.764 149.085,248.799 148.368,248.799 143.013 L 248.799 136.980 246.442 136.928 L 244.085 136.876 244.034 134.150 L 243.983 131.423 240.042 131.423 C 236.459 131.423,236.074 131.454,235.796 131.761 M245.106 134.335 L 245.102 135.860 246.488 135.860 C 248.169 135.860,248.168 135.990,246.492 134.247 L 245.110 132.810 245.106 134.335 " stroke="none" fill="#231c23" fill-rule="evenodd"></path><path id="path2" d="M244.685 19.547 L 268.945 19.595 268.993 46.304 L 269.041 73.013 269.040 46.257 L 269.039 19.501 244.732 19.500 L 220.425 19.499 244.685 19.547 M220.236 33.272 C 220.236 40.846,220.259 43.944,220.286 40.157 C 220.314 36.370,220.314 30.173,220.286 26.386 C 220.259 22.599,220.236 25.698,220.236 33.272 M268.207 46.359 L 268.299 72.551 268.346 46.498 C 268.372 32.169,268.330 20.382,268.254 20.306 C 268.177 20.229,268.156 31.953,268.207 46.359 M220.975 33.826 C 220.975 40.994,220.998 43.926,221.026 40.342 C 221.054 36.758,221.054 30.894,221.026 27.311 C 220.998 23.727,220.975 26.659,220.975 33.826 M240.359 33.413 C 240.241 33.488,242.311 33.524,244.959 33.494 L 249.773 33.439 250.613 34.326 C 251.175 34.919,251.318 35.016,251.043 34.620 C 250.097 33.252,250.181 33.271,245.123 33.275 C 242.620 33.276,240.477 33.338,240.359 33.413 M239.293 34.181 C 239.009 34.478,238.820 34.831,238.874 34.967 C 238.951 35.158,238.976 35.154,238.987 34.945 C 238.995 34.798,239.225 34.445,239.499 34.160 C 239.772 33.875,239.954 33.641,239.903 33.641 C 239.852 33.641,239.578 33.884,239.293 34.181 M54.060 35.166 C 54.011 35.293,53.993 58.105,54.019 85.860 L 54.067 136.322 54.159 85.628 C 54.210 57.747,54.228 34.935,54.199 34.935 C 54.171 34.935,54.108 35.039,54.060 35.166 M240.518 35.342 C 240.396 35.464,240.309 35.859,240.325 36.220 L 240.355 36.876 240.433 36.230 C 240.476 35.875,240.597 35.479,240.703 35.352 C 240.948 35.056,240.810 35.049,240.518 35.342 M238.632 36.044 C 238.632 36.451,238.697 36.784,238.776 36.784 C 238.855 36.784,238.887 36.451,238.849 36.044 C 238.810 35.638,238.745 35.305,238.705 35.305 C 238.665 35.305,238.632 35.638,238.632 36.044 M252.303 36.091 C 253.069 36.907,253.235 37.053,253.235 36.915 C 253.235 36.885,252.840 36.490,252.357 36.037 L 251.479 35.213 252.303 36.091 M249.602 36.145 C 249.541 36.302,249.544 36.482,249.607 36.545 C 249.671 36.609,249.723 36.504,249.723 36.313 C 249.723 36.049,249.979 36.209,250.786 36.975 L 251.848 37.985 250.838 36.922 C 249.702 35.727,249.750 35.758,249.602 36.145 M77.972 36.368 C 90.002 36.394,109.633 36.394,121.595 36.368 C 133.558 36.342,123.715 36.320,99.723 36.320 C 75.730 36.320,65.942 36.342,77.972 36.368 M249.567 38.298 C 249.551 39.181,249.600 39.943,249.677 39.990 C 249.753 40.038,249.792 39.564,249.764 38.939 C 249.671 36.900,249.598 36.659,249.567 38.298 M144.823 85.305 C 144.823 111.941,144.844 122.810,144.871 109.458 C 144.897 96.107,144.897 74.314,144.871 61.029 C 144.844 47.745,144.823 58.669,144.823 85.305 M236.553 37.474 C 236.985 37.513,237.692 37.513,238.124 37.474 C 238.556 37.435,238.202 37.403,237.338 37.403 C 236.474 37.403,236.121 37.435,236.553 37.474 M240.434 37.476 C 241.171 37.511,242.378 37.511,243.115 37.476 C 243.852 37.440,243.249 37.412,241.774 37.412 C 240.300 37.412,239.697 37.440,240.434 37.476 M245.247 37.985 C 245.355 38.189,245.842 38.729,246.329 39.187 L 247.216 40.018 246.216 38.909 C 245.666 38.299,245.179 37.759,245.134 37.708 C 245.089 37.657,245.140 37.782,245.247 37.985 M233.988 38.568 C 233.780 38.818,233.733 40.578,233.727 48.226 L 233.721 57.579 233.820 48.226 C 233.900 40.682,233.968 38.814,234.172 38.568 C 234.312 38.400,234.384 38.262,234.334 38.262 C 234.283 38.262,234.127 38.400,233.988 38.568 M252.638 39.013 C 253.073 39.477,253.371 39.913,253.301 39.984 C 253.230 40.054,253.270 40.111,253.389 40.111 C 253.782 40.111,253.614 39.827,252.726 38.994 L 251.848 38.170 252.638 39.013 M235.527 39.409 C 235.360 39.575,235.305 41.832,235.305 48.429 C 235.305 57.284,235.333 57.683,235.943 57.665 C 236.049 57.662,235.991 57.575,235.813 57.471 C 235.402 57.232,235.304 39.816,235.712 39.409 C 235.834 39.287,235.892 39.187,235.841 39.187 C 235.790 39.187,235.649 39.287,235.527 39.409 M255.360 46.581 C 255.360 50.526,255.422 53.658,255.496 53.541 C 255.676 53.259,255.678 39.603,255.499 39.493 C 255.423 39.445,255.360 42.635,255.360 46.581 M245.007 40.513 C 244.949 40.665,244.925 41.489,244.955 42.344 L 245.009 43.900 246.563 43.954 C 248.206 44.012,248.664 43.854,248.113 43.421 C 247.811 43.184,247.804 43.189,248.036 43.484 C 248.273 43.787,248.187 43.808,246.695 43.808 L 245.102 43.808 245.107 42.098 L 245.113 40.388 245.662 40.992 C 245.964 41.324,246.211 41.527,246.211 41.442 C 246.211 41.079,245.114 40.232,245.007 40.513 M248.961 40.902 C 249.041 40.982,250.180 41.023,251.494 40.994 L 253.882 40.941 251.349 40.850 C 249.956 40.799,248.881 40.823,248.961 40.902 M248.706 41.774 C 249.207 42.283,249.658 42.699,249.709 42.699 C 249.760 42.699,249.392 42.283,248.891 41.774 C 248.390 41.266,247.939 40.850,247.888 40.850 C 247.837 40.850,248.205 41.266,248.706 41.774 M246.396 41.707 C 246.396 41.806,246.707 42.173,247.089 42.524 L 247.782 43.161 247.135 42.423 C 246.779 42.018,246.467 41.651,246.442 41.607 C 246.416 41.564,246.396 41.609,246.396 41.707 M250.273 43.577 C 250.411 43.860,250.458 46.191,250.422 50.907 C 250.393 54.710,250.431 57.725,250.505 57.607 C 250.805 57.136,250.668 43.905,250.359 43.520 C 250.083 43.175,250.080 43.177,250.273 43.577 M220.235 60.813 C 220.235 67.574,220.258 70.340,220.286 66.959 C 220.315 63.579,220.315 58.048,220.286 54.667 C 220.258 51.287,220.235 54.053,220.235 60.813 M220.974 60.628 C 220.974 67.186,220.998 69.868,221.026 66.590 C 221.054 63.311,221.054 57.946,221.026 54.667 C 220.998 51.389,220.974 54.071,220.974 60.628 M252.311 53.420 L 251.109 53.541 252.253 53.573 C 252.883 53.590,253.449 53.521,253.512 53.420 C 253.575 53.318,253.601 53.249,253.569 53.267 C 253.538 53.284,252.971 53.353,252.311 53.420 M103.835 55.222 C 105.894 55.251,109.263 55.251,111.322 55.222 C 113.380 55.192,111.696 55.168,107.579 55.168 C 103.461 55.168,101.777 55.192,103.835 55.222 M251.802 55.218 C 252.183 55.258,252.807 55.258,253.189 55.218 C 253.570 55.178,253.258 55.145,252.495 55.145 C 251.733 55.145,251.421 55.178,251.802 55.218 M98.788 55.555 C 98.435 55.838,98.435 55.840,98.799 55.673 C 99.002 55.579,99.293 55.457,99.445 55.400 C 99.685 55.311,99.683 55.295,99.435 55.283 C 99.276 55.275,98.985 55.397,98.788 55.555 M116.653 55.314 C 116.697 55.340,117.064 55.652,117.470 56.007 L 118.207 56.654 117.570 55.961 C 117.220 55.580,116.852 55.268,116.754 55.268 C 116.655 55.268,116.610 55.289,116.653 55.314 M118.946 57.671 C 119.447 58.179,119.892 58.595,119.936 58.595 C 120.093 58.595,118.388 56.784,118.214 56.766 C 118.116 56.755,118.446 57.163,118.946 57.671 M96.667 57.681 C 96.556 57.890,96.491 58.143,96.525 58.244 C 96.558 58.344,96.681 58.173,96.798 57.864 C 97.041 57.220,96.968 57.119,96.667 57.681 M233.838 57.846 C 233.825 58.142,234.719 59.150,234.995 59.150 C 235.091 59.150,234.944 58.972,234.668 58.755 C 234.391 58.537,234.094 58.184,234.007 57.969 C 233.919 57.750,233.845 57.696,233.838 57.846 M114.826 63.344 C 114.805 66.210,114.850 68.594,114.926 68.641 C 115.002 68.688,115.043 67.175,115.017 65.278 C 114.928 58.774,114.865 58.139,114.826 63.344 M249.445 58.793 C 249.140 58.988,248.986 59.148,249.102 59.149 C 249.217 59.149,249.508 58.986,249.748 58.786 C 250.298 58.328,250.166 58.331,249.445 58.793 M343.438 85.730 L 343.530 112.662 343.577 85.869 C 343.603 71.134,343.562 59.014,343.485 58.938 C 343.408 58.861,343.387 70.918,343.438 85.730 M96.360 59.982 C 96.361 60.591,96.396 60.819,96.437 60.487 C 96.478 60.154,96.477 59.655,96.435 59.377 C 96.393 59.100,96.359 59.372,96.360 59.982 M238.690 59.288 C 240.603 59.318,243.681 59.318,245.530 59.288 C 247.378 59.258,245.813 59.233,242.052 59.233 C 238.290 59.233,236.778 59.258,238.690 59.288 M116.309 63.355 L 116.359 67.375 119.963 67.381 L 123.567 67.387 120.009 67.331 L 116.451 67.275 116.451 63.363 L 116.451 59.450 117.052 59.993 L 117.652 60.536 117.110 59.935 C 116.272 59.008,116.256 59.076,116.309 63.355 M120.702 59.449 C 120.702 59.546,121.139 60.038,121.673 60.543 L 122.643 61.460 121.719 60.448 C 121.211 59.891,120.774 59.398,120.749 59.354 C 120.723 59.309,120.702 59.352,120.702 59.449 M118.484 61.645 C 119.036 62.204,119.530 62.662,119.581 62.662 C 119.632 62.662,119.221 62.204,118.669 61.645 C 118.117 61.086,117.624 60.628,117.573 60.628 C 117.522 60.628,117.932 61.086,118.484 61.645 M97.874 61.183 L 96.396 61.300 97.921 61.334 C 98.837 61.354,99.445 61.294,99.445 61.183 C 99.445 61.081,99.425 61.013,99.399 61.032 C 99.374 61.051,98.688 61.119,97.874 61.183 M123.475 62.569 C 124.027 63.128,124.521 63.586,124.571 63.586 C 124.622 63.586,124.212 63.128,123.660 62.569 C 123.108 62.010,122.614 61.553,122.563 61.553 C 122.513 61.553,122.923 62.010,123.475 62.569 M120.896 64.243 C 121.349 64.756,121.757 65.148,121.803 65.114 C 121.848 65.080,121.478 64.660,120.980 64.180 L 120.074 63.309 120.896 64.243 M91.497 63.902 C 97.213 64.029,106.415 64.035,106.221 63.912 C 106.104 63.838,102.223 63.793,97.597 63.814 C 92.971 63.834,90.226 63.874,91.497 63.902 M87.188 64.926 C 86.613 65.496,86.611 65.503,87.145 65.066 C 87.455 64.813,87.787 64.542,87.884 64.465 C 87.980 64.388,88.000 64.325,87.927 64.325 C 87.854 64.325,87.522 64.596,87.188 64.926 M125.979 65.258 C 126.483 65.821,126.932 66.255,126.978 66.221 C 127.024 66.188,126.612 65.727,126.062 65.197 L 125.063 64.233 125.979 65.258 M108.338 66.337 C 108.784 66.833,109.274 67.295,109.427 67.363 C 109.579 67.432,109.250 67.026,108.694 66.461 C 107.446 65.193,107.247 65.123,108.338 66.337 M122.181 65.551 C 122.181 65.649,122.535 66.058,122.967 66.460 L 123.752 67.190 123.013 66.361 C 122.606 65.906,122.253 65.497,122.227 65.453 C 122.202 65.409,122.181 65.453,122.181 65.551 M96.904 66.866 L 104.067 66.917 104.069 71.767 C 104.071 75.305,104.135 76.742,104.306 77.079 L 104.539 77.542 109.063 77.547 L 113.586 77.552 109.156 77.497 C 106.439 77.464,104.651 77.369,104.534 77.252 C 104.417 77.135,104.308 75.086,104.251 71.941 L 104.159 66.821 96.950 66.817 L 89.741 66.814 96.904 66.866 M85.829 68.577 C 85.829 69.339,85.862 69.651,85.902 69.270 C 85.942 68.889,85.942 68.265,85.902 67.884 C 85.862 67.502,85.829 67.814,85.829 68.577 M110.444 68.577 C 110.944 69.085,111.396 69.501,111.446 69.501 C 111.497 69.501,111.129 69.085,110.628 68.577 C 110.128 68.068,109.677 67.652,109.626 67.652 C 109.575 67.652,109.943 68.068,110.444 68.577 M88.782 68.854 C 88.783 69.464,88.817 69.691,88.859 69.359 C 88.900 69.027,88.899 68.528,88.857 68.250 C 88.814 67.972,88.781 68.244,88.782 68.854 M105.669 68.145 C 105.601 68.213,105.551 68.442,105.557 68.654 C 105.568 69.011,105.581 69.007,105.744 68.602 C 105.897 68.218,105.958 68.195,106.240 68.417 C 106.531 68.645,106.538 68.638,106.308 68.346 C 106.038 68.001,105.867 67.947,105.669 68.145 M119.593 68.940 L 123.937 69.039 124.033 80.037 L 124.128 91.035 124.125 79.945 L 124.122 68.854 119.686 68.847 L 115.250 68.840 119.593 68.940 M105.568 72.655 C 105.561 74.507,105.597 75.980,105.648 75.929 C 105.770 75.807,105.794 69.504,105.673 69.383 C 105.622 69.331,105.574 70.804,105.568 72.655 M107.603 70.026 C 107.946 70.417,108.392 70.842,108.595 70.972 C 108.799 71.101,108.552 70.781,108.048 70.261 C 106.967 69.147,106.719 69.016,107.603 70.026 M112.477 70.795 C 112.978 71.303,113.429 71.719,113.480 71.719 C 113.530 71.719,113.162 71.303,112.662 70.795 C 112.161 70.287,111.710 69.871,111.659 69.871 C 111.608 69.871,111.976 70.287,112.477 70.795 M76.744 71.506 C 76.509 71.573,80.723 71.627,86.107 71.627 C 91.492 71.627,95.802 71.566,95.685 71.491 C 95.423 71.324,77.340 71.339,76.744 71.506 M109.816 72.370 C 110.285 72.876,111.191 73.831,111.829 74.492 C 112.612 75.301,112.506 75.151,111.505 74.030 C 110.688 73.115,109.782 72.160,109.492 71.907 C 109.202 71.655,109.348 71.863,109.816 72.370 M96.684 72.380 C 97.034 72.795,97.357 73.104,97.403 73.067 C 97.449 73.031,97.163 72.691,96.768 72.314 L 96.049 71.627 96.684 72.380 M114.972 73.475 C 115.524 74.034,116.018 74.492,116.069 74.492 C 116.120 74.492,115.709 74.034,115.157 73.475 C 114.605 72.916,114.112 72.458,114.061 72.458 C 114.010 72.458,114.420 72.916,114.972 73.475 M233.410 72.597 C 239.637 72.624,249.827 72.624,256.054 72.597 C 262.280 72.570,257.186 72.548,244.732 72.548 C 232.278 72.548,227.183 72.570,233.410 72.597 M317.432 72.781 C 318.734 72.813,320.814 72.813,322.053 72.781 C 323.293 72.749,322.227 72.723,319.686 72.723 C 317.144 72.724,316.130 72.750,317.432 72.781 M314.003 73.244 C 313.764 73.473,313.697 73.568,313.854 73.455 C 314.012 73.342,314.307 73.157,314.510 73.044 C 314.713 72.932,314.781 72.837,314.659 72.834 C 314.538 72.831,314.242 73.015,314.003 73.244 M325.670 74.282 C 326.391 75.081,327.127 75.850,327.306 75.991 C 327.486 76.132,326.935 75.478,326.082 74.538 C 325.230 73.598,324.494 72.828,324.446 72.828 C 324.399 72.828,324.950 73.482,325.670 74.282 M233.425 73.336 C 239.558 73.363,249.539 73.363,255.606 73.336 C 261.672 73.309,256.654 73.287,244.455 73.287 C 232.255 73.287,227.292 73.309,233.425 73.336 M98.429 74.307 C 98.930 74.815,99.375 75.231,99.418 75.231 C 99.575 75.231,97.870 73.420,97.696 73.401 C 97.599 73.391,97.928 73.799,98.429 74.307 M313.206 74.374 C 312.906 75.568,313.153 76.063,314.048 76.063 C 314.871 76.063,314.880 76.056,314.904 75.416 L 314.928 74.769 314.846 75.370 C 314.769 75.935,314.720 75.970,314.013 75.970 L 313.263 75.970 313.347 74.954 C 313.437 73.872,313.385 73.660,313.206 74.374 M85.952 74.489 L 94.362 74.584 94.412 79.652 C 94.444 82.974,94.530 84.804,94.663 84.963 C 94.818 85.150,95.959 85.218,99.604 85.256 L 104.344 85.305 104.438 98.799 L 104.532 112.292 104.577 98.752 C 104.601 91.305,104.600 85.195,104.575 85.174 C 104.549 85.153,102.324 85.091,99.630 85.035 L 94.732 84.935 94.632 79.667 C 94.577 76.770,94.515 74.378,94.494 74.353 C 94.472 74.328,90.649 74.326,85.998 74.350 L 77.542 74.394 85.952 74.489 M315.220 74.446 C 315.103 74.522,316.808 74.584,319.010 74.584 L 323.013 74.584 323.116 77.264 L 323.218 79.945 323.208 77.172 L 323.198 74.399 319.316 74.354 C 317.181 74.329,315.338 74.370,315.220 74.446 M76.511 74.969 L 76.063 75.446 76.014 93.649 C 75.987 103.662,76.029 111.967,76.106 112.106 C 76.184 112.245,76.227 104.150,76.203 94.118 C 76.155 74.569,76.125 75.214,77.083 74.729 C 77.364 74.587,77.429 74.496,77.250 74.494 C 77.090 74.493,76.757 74.706,76.511 74.969 M73.129 75.092 C 72.968 75.694,72.993 112.436,73.154 112.690 C 73.229 112.808,73.290 104.303,73.290 93.790 C 73.290 83.278,73.279 74.677,73.266 74.677 C 73.252 74.677,73.191 74.864,73.129 75.092 M324.954 76.063 C 325.506 76.622,325.999 77.079,326.050 77.079 C 326.101 77.079,325.691 76.622,325.139 76.063 C 324.586 75.504,324.093 75.046,324.042 75.046 C 323.991 75.046,324.402 75.504,324.954 76.063 M99.630 75.530 C 99.630 75.626,100.150 76.201,100.786 76.808 L 101.941 77.911 100.832 76.714 C 100.222 76.056,99.702 75.481,99.677 75.436 C 99.651 75.391,99.630 75.433,99.630 75.530 M116.538 87.708 C 116.538 94.519,116.561 97.279,116.590 93.841 C 116.618 90.402,116.618 84.829,116.590 81.456 C 116.561 78.083,116.538 80.896,116.538 87.708 M109.519 75.970 L 105.823 76.075 109.462 76.115 C 111.734 76.140,113.145 76.086,113.216 75.970 C 113.279 75.869,113.305 75.804,113.273 75.826 C 113.242 75.848,111.553 75.913,109.519 75.970 M95.933 79.945 L 95.933 83.734 99.445 83.734 C 103.132 83.734,103.266 83.700,102.449 82.980 L 101.941 82.532 102.389 83.041 L 102.837 83.549 99.478 83.549 L 96.118 83.549 96.123 79.898 L 96.127 76.248 97.463 77.644 C 98.198 78.412,98.550 78.745,98.246 78.384 C 97.278 77.233,96.231 76.155,96.080 76.155 C 95.999 76.155,95.933 77.860,95.933 79.945 M329.012 77.911 C 329.458 78.420,329.861 78.877,329.909 78.928 C 329.956 78.979,329.907 78.854,329.800 78.651 C 329.693 78.447,329.289 77.990,328.903 77.634 C 328.236 77.019,328.242 77.033,329.012 77.911 M326.248 77.410 C 326.248 77.492,326.580 77.884,326.987 78.281 C 328.014 79.284,327.963 79.330,325.886 79.264 C 324.874 79.231,324.112 79.271,324.193 79.351 C 324.273 79.431,325.203 79.472,326.258 79.443 L 328.178 79.390 327.213 78.325 C 326.682 77.740,326.248 77.328,326.248 77.410 M102.957 79.205 C 103.510 79.764,104.003 80.222,104.054 80.222 C 104.105 80.222,103.695 79.764,103.142 79.205 C 102.590 78.646,102.097 78.189,102.046 78.189 C 101.995 78.189,102.405 78.646,102.957 79.205 M310.586 78.484 C 310.632 78.531,312.462 78.587,314.652 78.610 C 316.843 78.632,318.538 78.588,318.421 78.512 C 318.196 78.365,310.440 78.338,310.586 78.484 M308.218 87.616 C 308.218 92.445,308.242 94.420,308.272 92.006 C 308.301 89.591,308.301 85.640,308.272 83.226 C 308.242 80.811,308.218 82.787,308.218 87.616 M309.882 87.708 C 309.882 92.588,309.906 94.558,309.935 92.085 C 309.964 89.613,309.964 85.620,309.935 83.213 C 309.906 80.805,309.882 82.828,309.882 87.708 M330.028 85.767 C 330.028 89.478,330.053 90.996,330.083 89.140 C 330.113 87.285,330.113 84.249,330.083 82.394 C 330.053 80.538,330.028 82.056,330.028 85.767 M319.444 81.357 C 319.415 82.834,319.459 83.159,319.701 83.252 C 320.119 83.413,322.512 83.391,322.615 83.226 C 322.662 83.149,322.023 83.087,321.193 83.087 L 319.686 83.087 319.583 81.331 L 319.479 79.575 319.444 81.357 M100.832 81.331 C 101.332 81.839,101.778 82.255,101.821 82.255 C 101.978 82.255,100.273 80.444,100.099 80.425 C 100.002 80.415,100.331 80.823,100.832 81.331 M323.282 81.192 C 324.048 82.008,324.214 82.155,324.214 82.016 C 324.214 81.987,323.819 81.592,323.336 81.138 L 322.458 80.314 323.282 81.192 M320.702 80.894 C 320.702 80.993,321.014 81.360,321.396 81.711 L 322.089 82.348 321.442 81.610 C 321.086 81.205,320.774 80.837,320.749 80.794 C 320.723 80.750,320.702 80.795,320.702 80.894 M105.176 81.608 C 105.520 81.964,105.844 82.255,105.895 82.255 C 105.946 82.255,105.705 81.964,105.360 81.608 C 105.016 81.252,104.692 80.961,104.641 80.961 C 104.590 80.961,104.831 81.252,105.176 81.608 M328.362 86.322 C 328.362 89.117,328.388 90.261,328.419 88.863 C 328.451 87.465,328.451 85.178,328.419 83.780 C 328.388 82.382,328.362 83.526,328.362 86.322 M324.754 83.318 C 324.843 83.956,324.856 83.969,324.916 83.480 C 324.953 83.188,324.910 82.876,324.821 82.787 C 324.728 82.694,324.699 82.921,324.754 83.318 M320.984 84.054 L 323.115 84.115 323.064 90.477 C 323.036 93.977,323.076 96.776,323.154 96.698 C 323.232 96.621,323.273 93.734,323.246 90.284 L 323.198 84.011 321.026 84.002 L 318.853 83.993 320.984 84.054 M324.851 90.111 C 324.851 93.364,324.877 94.669,324.907 93.011 C 324.938 91.352,324.938 88.690,324.907 87.096 C 324.876 85.501,324.851 86.858,324.851 90.111 M218.545 86.091 C 232.558 86.117,255.432 86.117,269.377 86.091 C 283.322 86.064,271.858 86.043,243.900 86.043 C 215.943 86.043,204.533 86.064,218.545 86.091 M81.503 89.757 C 80.769 90.641,81.003 90.665,90.316 90.669 L 98.983 90.673 90.296 90.577 C 81.763 90.482,81.608 90.474,81.608 90.111 C 81.608 89.746,81.731 89.741,90.417 89.741 C 95.262 89.741,99.187 89.679,99.140 89.603 C 98.947 89.292,81.764 89.442,81.503 89.757 M123.309 91.790 C 122.964 92.036,122.772 92.237,122.883 92.237 C 122.994 92.237,123.318 92.031,123.603 91.780 C 124.257 91.206,124.126 91.210,123.309 91.790 M119.224 92.192 C 119.224 92.269,119.619 92.307,120.102 92.276 C 121.621 92.181,121.764 92.103,120.471 92.077 C 119.785 92.063,119.224 92.115,119.224 92.192 M328.015 92.520 C 327.804 92.679,327.251 92.791,326.674 92.791 C 326.135 92.791,325.693 92.857,325.693 92.937 C 325.693 93.214,327.902 92.880,328.228 92.553 C 328.614 92.168,328.503 92.150,328.015 92.520 M126.136 93.442 C 125.968 93.698,125.488 94.113,125.069 94.364 C 124.650 94.615,124.380 94.822,124.470 94.823 C 124.807 94.826,125.886 94.039,126.257 93.517 C 126.469 93.220,126.597 92.976,126.542 92.976 C 126.486 92.976,126.304 93.186,126.136 93.442 M328.928 94.019 L 328.373 94.494 328.974 94.157 C 329.305 93.972,329.575 93.755,329.575 93.675 C 329.575 93.473,329.550 93.486,328.928 94.019 M119.387 95.062 C 119.467 95.142,120.399 95.183,121.458 95.154 L 123.383 95.100 121.312 95.008 C 120.173 94.958,119.306 94.982,119.387 95.062 M324.754 96.719 C 324.699 97.116,324.728 97.343,324.821 97.250 C 324.910 97.161,324.953 96.849,324.916 96.557 C 324.856 96.068,324.843 96.081,324.754 96.719 M81.553 97.079 C 81.431 97.201,81.333 97.389,81.336 97.495 C 81.340 97.602,81.427 97.544,81.531 97.366 C 81.775 96.946,99.058 96.855,99.098 97.274 C 99.110 97.401,99.106 97.629,99.090 97.782 C 99.064 98.021,99.085 98.022,99.240 97.792 C 99.356 97.620,99.356 97.406,99.241 97.191 C 99.016 96.771,81.969 96.664,81.553 97.079 M313.343 96.996 C 315.039 97.026,317.868 97.026,319.628 96.996 C 321.388 96.966,320.000 96.941,316.543 96.941 C 313.087 96.941,311.647 96.965,313.343 96.996 M313.182 98.660 C 315.095 98.690,318.173 98.690,320.021 98.660 C 321.870 98.629,320.305 98.605,316.543 98.605 C 312.782 98.605,311.269 98.630,313.182 98.660 M113.165 100.187 C 112.970 100.500,112.681 100.549,110.769 100.595 L 108.595 100.647 108.541 102.004 C 108.466 103.863,108.495 103.886,110.882 103.863 C 111.963 103.853,113.040 103.790,113.277 103.724 C 113.514 103.657,112.599 103.603,111.244 103.604 L 108.780 103.604 108.780 102.218 L 108.780 100.832 110.836 100.780 C 112.775 100.731,113.912 100.357,113.470 99.915 C 113.424 99.869,113.287 99.992,113.165 100.187 M115.238 102.449 L 114.695 103.050 115.296 102.507 C 115.626 102.208,115.896 101.938,115.896 101.906 C 115.896 101.763,115.744 101.889,115.238 102.449 M90.286 104.389 C 96.933 104.428,99.002 104.494,99.126 104.669 C 99.245 104.837,99.269 104.824,99.213 104.621 C 99.147 104.380,98.005 104.343,90.373 104.341 L 81.608 104.338 90.286 104.389 M220.148 124.806 C 220.097 131.994,220.118 137.811,220.195 137.734 C 220.272 137.657,220.314 131.777,220.288 124.666 L 220.240 111.738 220.148 124.806 M268.992 138.478 C 268.956 159.663,268.898 165.238,268.715 165.312 C 268.534 165.385,268.536 165.408,268.721 165.420 C 269.135 165.445,269.135 165.444,269.086 138.355 L 269.038 111.738 268.992 138.478 M307.177 111.969 C 313.717 111.995,324.364 111.995,330.837 111.969 C 337.310 111.942,331.959 111.920,318.946 111.920 C 305.933 111.920,300.637 111.942,307.177 111.969 M220.974 124.030 C 220.974 130.485,220.997 133.126,221.026 129.898 C 221.054 126.671,221.054 121.389,221.026 118.161 C 220.997 114.933,220.974 117.574,220.974 124.030 M268.207 138.484 C 268.156 152.890,268.177 164.614,268.254 164.537 C 268.330 164.461,268.372 152.674,268.346 138.345 L 268.299 112.292 268.207 138.484 M90.388 113.124 L 76.987 113.220 90.331 113.264 C 99.076 113.293,103.714 113.245,103.789 113.124 C 103.852 113.022,103.878 112.959,103.846 112.983 C 103.815 113.008,97.759 113.071,90.388 113.124 M106.917 113.796 C 106.706 114.230,106.602 114.542,106.687 114.490 C 106.907 114.354,107.428 113.311,107.359 113.145 C 107.327 113.069,107.128 113.362,106.917 113.796 M73.937 114.476 C 73.937 114.507,74.207 114.778,74.538 115.076 L 75.139 115.619 74.596 115.018 C 74.090 114.459,73.937 114.333,73.937 114.476 M105.572 115.345 C 104.476 116.066,104.360 116.232,105.325 115.701 C 105.763 115.459,106.209 115.155,106.318 115.025 C 106.589 114.698,106.497 114.737,105.572 115.345 M76.930 116.294 C 77.479 116.449,103.057 116.445,103.779 116.291 C 104.079 116.226,98.064 116.174,90.413 116.174 C 82.763 116.174,76.695 116.228,76.930 116.294 M245.099 125.647 L 249.810 125.700 250.829 126.667 L 251.848 127.634 250.838 126.571 L 249.828 125.508 245.108 125.551 L 240.388 125.594 245.099 125.647 M239.531 126.074 L 239.094 126.454 239.649 126.130 C 240.379 125.702,240.389 125.693,240.162 125.693 C 240.055 125.693,239.771 125.864,239.531 126.074 M244.539 127.310 C 247.424 127.350,248.543 127.426,248.648 127.592 C 248.750 127.751,248.794 127.722,248.796 127.495 C 248.798 127.196,248.497 127.175,244.686 127.214 L 240.573 127.257 244.539 127.310 M238.706 128.141 L 238.725 128.928 239.553 128.928 C 240.366 128.928,240.384 128.915,240.493 128.243 C 240.555 127.866,240.535 127.600,240.450 127.653 C 240.365 127.705,240.296 127.993,240.296 128.292 C 240.296 129.286,238.865 129.102,238.763 128.095 L 238.688 127.354 238.706 128.141 M249.615 128.346 C 249.563 128.483,249.549 129.169,249.585 129.870 L 249.650 131.146 249.687 129.694 C 249.717 128.466,249.767 128.258,250.010 128.351 C 250.174 128.415,250.248 128.384,250.184 128.279 C 250.023 128.018,249.728 128.053,249.615 128.346 M253.142 129.205 C 253.643 129.713,254.094 130.129,254.145 130.129 C 254.196 130.129,253.828 129.713,253.327 129.205 C 252.826 128.697,252.375 128.281,252.324 128.281 C 252.274 128.281,252.642 128.697,253.142 129.205 M250.832 129.135 C 250.832 129.232,251.265 129.724,251.795 130.229 L 252.758 131.146 251.854 130.129 C 251.356 129.570,250.923 129.078,250.891 129.036 C 250.858 128.993,250.832 129.038,250.832 129.135 M235.166 129.765 C 234.587 129.998,234.642 130.162,235.225 129.940 C 236.267 129.544,244.624 129.717,245.215 130.147 L 245.749 130.535 245.230 130.055 L 244.711 129.575 240.147 129.587 C 237.636 129.593,235.395 129.674,235.166 129.765 M255.076 131.339 C 255.458 131.890,255.465 132.039,255.413 138.946 C 255.384 142.821,255.422 145.895,255.496 145.778 C 255.571 145.660,255.633 142.470,255.635 138.689 L 255.638 131.814 255.162 131.295 L 254.687 130.776 255.076 131.339 M235.595 131.529 C 235.283 131.842,235.135 149.226,235.444 149.417 C 235.520 149.464,235.560 145.549,235.532 140.717 C 235.497 134.409,235.541 131.861,235.691 131.681 C 235.852 131.486,236.836 131.418,240.084 131.377 L 244.270 131.324 240.078 131.281 C 236.475 131.244,235.845 131.279,235.595 131.529 M233.727 140.573 C 233.727 145.656,233.751 147.709,233.780 145.135 C 233.809 142.561,233.809 138.402,233.780 135.893 C 233.751 133.384,233.727 135.490,233.727 140.573 M253.125 131.747 L 253.477 132.163 251.554 132.201 L 249.630 132.240 251.462 132.301 C 253.461 132.367,253.838 132.233,253.193 131.687 L 252.773 131.331 253.125 131.747 M247.505 132.625 C 248.057 133.184,248.550 133.641,248.601 133.641 C 248.652 133.641,248.242 133.184,247.689 132.625 C 247.137 132.066,246.644 131.608,246.593 131.608 C 246.542 131.608,246.952 132.066,247.505 132.625 M244.984 134.288 C 244.985 135.305,245.016 135.697,245.053 135.160 C 245.091 134.623,245.090 133.791,245.052 133.312 C 245.014 132.832,244.984 133.272,244.984 134.288 M246.026 133.546 C 246.483 134.052,246.878 134.503,246.904 134.547 C 246.929 134.591,246.990 134.588,247.038 134.539 C 247.087 134.491,246.692 134.040,246.160 133.538 L 245.194 132.625 246.026 133.546 M249.345 134.612 C 250.111 135.428,250.277 135.575,250.277 135.436 C 250.277 135.406,249.882 135.011,249.399 134.558 L 248.521 133.734 249.345 134.612 M247.610 135.322 C 247.908 135.688,248.189 135.956,248.235 135.917 C 248.280 135.879,248.037 135.580,247.693 135.253 L 247.069 134.658 247.610 135.322 M77.418 135.259 C 89.448 135.285,109.078 135.285,121.041 135.259 C 133.003 135.233,123.161 135.211,99.168 135.211 C 75.176 135.211,65.388 135.233,77.418 135.259 M250.370 142.895 C 250.370 146.846,250.426 149.937,250.495 149.762 C 250.668 149.326,250.681 135.902,250.508 135.796 C 250.432 135.749,250.370 138.943,250.370 142.895 M244.340 136.836 C 244.420 136.916,245.477 136.957,246.688 136.928 L 248.891 136.874 246.543 136.783 C 245.251 136.733,244.260 136.756,244.340 136.836 M220.952 138.632 C 220.952 139.496,220.984 139.850,221.023 139.418 C 221.062 138.986,221.062 138.279,221.023 137.847 C 220.984 137.415,220.952 137.768,220.952 138.632 M220.238 152.572 C 220.240 163.738,220.275 165.321,220.518 165.387 C 220.722 165.443,220.734 165.419,220.565 165.300 C 220.387 165.173,220.324 162.312,220.286 152.485 L 220.236 139.834 220.238 152.572 M220.974 152.218 C 220.974 158.725,220.998 161.360,221.026 158.073 C 221.054 154.787,221.054 149.464,221.026 146.244 C 220.997 143.023,220.974 145.712,220.974 152.218 M252.403 147.320 L 251.109 147.439 252.311 147.459 C 252.971 147.470,253.678 147.407,253.882 147.320 C 254.286 147.146,254.284 147.146,252.403 147.320 M235.369 151.430 C 235.486 151.504,238.535 151.566,242.144 151.566 C 245.753 151.566,248.802 151.504,248.920 151.430 C 249.037 151.355,245.988 151.294,242.144 151.294 C 238.300 151.294,235.251 151.355,235.369 151.430 " stroke="none" fill="#704224" fill-rule="evenodd"></path><path id="path3" d="M220.397 19.365 C 220.279 19.440,231.189 19.501,244.640 19.501 C 258.091 19.501,269.057 19.439,269.010 19.362 C 268.899 19.183,220.679 19.186,220.397 19.365 M233.503 20.286 C 239.679 20.313,249.785 20.313,255.961 20.286 C 262.137 20.259,257.084 20.237,244.732 20.237 C 232.380 20.237,227.327 20.259,233.503 20.286 M268.022 46.359 L 268.115 72.551 268.161 46.498 C 268.187 32.169,268.146 20.382,268.069 20.306 C 267.992 20.229,267.971 31.953,268.022 46.359 M239.499 33.872 C 239.165 34.203,239.104 34.297,239.363 34.082 C 239.622 33.867,240.000 33.599,240.203 33.487 C 240.407 33.375,240.468 33.280,240.339 33.277 C 240.211 33.274,239.833 33.542,239.499 33.872 M251.748 35.387 C 252.202 35.850,252.606 36.229,252.648 36.229 C 252.805 36.229,251.466 34.782,251.201 34.666 C 251.049 34.599,251.295 34.924,251.748 35.387 M54.095 34.889 C 54.048 34.965,74.747 35.028,100.092 35.028 C 125.438 35.028,146.137 34.965,146.090 34.889 C 145.978 34.708,54.207 34.708,54.095 34.889 M238.563 35.220 C 238.499 35.385,238.458 35.784,238.470 36.106 C 238.490 36.593,238.517 36.552,238.632 35.860 C 238.779 34.975,238.752 34.727,238.563 35.220 M240.706 35.338 C 240.582 35.462,240.481 35.832,240.481 36.160 C 240.481 36.569,240.379 36.787,240.157 36.852 C 239.905 36.926,239.915 36.939,240.203 36.910 C 240.487 36.881,240.595 36.701,240.665 36.135 L 240.758 35.397 244.702 35.347 L 248.645 35.298 248.535 37.381 C 248.474 38.527,248.501 39.755,248.595 40.111 C 248.718 40.576,248.758 39.976,248.736 37.985 L 248.706 35.213 244.819 35.163 C 241.951 35.126,240.872 35.172,240.706 35.338 M249.723 37.974 C 249.723 39.036,249.785 39.943,249.861 39.990 C 249.938 40.038,249.973 39.244,249.941 38.227 C 249.894 36.733,249.929 36.405,250.126 36.523 C 250.315 36.637,250.313 36.600,250.116 36.357 C 249.730 35.881,249.723 35.909,249.723 37.974 M55.538 36.460 C 55.490 36.587,55.472 58.859,55.498 85.952 L 55.546 135.213 55.592 85.827 C 55.635 38.970,55.654 36.437,55.961 36.357 C 56.264 36.277,56.264 36.271,55.955 36.251 C 55.774 36.239,55.587 36.333,55.538 36.460 M143.579 36.360 C 143.809 36.404,144.142 36.402,144.318 36.356 C 144.495 36.310,144.307 36.274,143.900 36.276 C 143.494 36.278,143.349 36.316,143.579 36.360 M251.109 37.523 C 251.506 37.930,251.873 38.262,251.923 38.262 C 251.974 38.262,251.691 37.930,251.294 37.523 C 250.897 37.116,250.530 36.784,250.480 36.784 C 250.429 36.784,250.712 37.116,251.109 37.523 M235.028 37.523 C 234.893 37.742,235.073 37.742,235.582 37.523 C 235.939 37.370,235.937 37.364,235.547 37.351 C 235.324 37.344,235.091 37.421,235.028 37.523 M254.524 38.355 C 255.074 38.965,255.560 39.506,255.606 39.556 C 255.651 39.607,255.600 39.482,255.492 39.279 C 255.385 39.076,254.898 38.535,254.410 38.078 L 253.524 37.246 254.524 38.355 M246.203 38.899 C 246.656 39.362,247.061 39.741,247.102 39.741 C 247.260 39.741,245.921 38.294,245.656 38.178 C 245.504 38.111,245.750 38.436,246.203 38.899 M252.741 39.305 C 253.122 39.727,253.198 39.912,253.019 39.983 C 252.857 40.048,252.849 40.087,252.993 40.096 C 253.458 40.127,253.382 39.776,252.812 39.261 L 252.218 38.725 252.741 39.305 M235.663 39.507 C 235.452 39.785,235.454 39.799,235.674 39.603 C 235.865 39.433,237.000 39.372,239.958 39.372 L 243.983 39.372 244.042 42.098 L 244.101 44.824 244.093 42.052 L 244.085 39.279 239.998 39.229 C 236.271 39.184,235.889 39.209,235.663 39.507 M233.542 48.336 C 233.542 53.318,233.566 55.329,233.595 52.806 C 233.624 50.283,233.624 46.207,233.595 43.749 C 233.566 41.290,233.542 43.355,233.542 48.336 M250.781 40.059 C 251.110 40.100,251.692 40.101,252.075 40.061 C 252.459 40.021,252.190 39.988,251.479 39.987 C 250.767 39.986,250.453 40.019,250.781 40.059 M245.487 40.965 C 245.733 41.282,245.971 41.508,246.016 41.467 C 246.062 41.427,245.861 41.167,245.570 40.891 L 245.041 40.388 245.487 40.965 M248.614 41.497 C 249.166 42.056,249.659 42.514,249.710 42.514 C 249.761 42.514,249.351 42.056,248.799 41.497 C 248.246 40.938,247.753 40.481,247.702 40.481 C 247.651 40.481,248.061 40.938,248.614 41.497 M253.685 47.043 C 253.685 49.787,253.711 50.936,253.743 49.595 C 253.774 48.254,253.774 46.008,253.743 44.604 C 253.711 43.200,253.685 44.298,253.685 47.043 M247.412 43.068 C 247.809 43.475,248.176 43.808,248.227 43.808 C 248.277 43.808,247.994 43.475,247.597 43.068 C 247.200 42.662,246.833 42.329,246.783 42.329 C 246.732 42.329,247.015 42.662,247.412 43.068 M245.425 44.869 C 246.061 44.905,247.100 44.905,247.736 44.869 C 248.371 44.833,247.851 44.803,246.580 44.803 C 245.310 44.803,244.790 44.833,245.425 44.869 M217.349 50.786 C 216.818 51.428,216.592 51.756,216.684 51.756 C 216.735 51.756,216.999 51.465,217.270 51.109 C 217.774 50.449,217.835 50.199,217.349 50.786 M253.604 52.643 C 253.604 52.826,253.500 53.081,253.373 53.209 C 253.188 53.395,253.206 53.417,253.466 53.318 C 253.747 53.211,253.954 52.311,253.697 52.311 C 253.646 52.311,253.604 52.460,253.604 52.643 M255.212 54.069 C 255.043 54.423,254.942 54.713,254.989 54.713 C 255.115 54.713,255.677 53.582,255.592 53.497 C 255.552 53.457,255.381 53.714,255.212 54.069 M251.067 54.344 C 251.067 54.801,251.103 54.988,251.147 54.760 C 251.191 54.531,251.191 54.157,251.147 53.928 C 251.103 53.699,251.067 53.886,251.067 54.344 M99.961 55.050 C 99.787 55.119,103.507 55.176,108.226 55.176 C 112.946 55.176,116.665 55.119,116.491 55.050 C 116.316 54.981,112.597 54.924,108.226 54.924 C 103.854 54.924,100.135 54.981,99.961 55.050 M253.235 55.268 C 252.595 55.403,252.594 55.404,253.142 55.426 C 253.447 55.438,253.822 55.367,253.974 55.268 C 254.282 55.069,254.180 55.069,253.235 55.268 M251.527 55.399 C 251.757 55.443,252.090 55.441,252.266 55.395 C 252.443 55.349,252.255 55.313,251.848 55.315 C 251.442 55.317,251.297 55.355,251.527 55.399 M97.967 55.823 C 97.713 56.021,97.588 56.184,97.689 56.184 C 97.791 56.184,98.082 56.021,98.336 55.823 C 98.591 55.624,98.715 55.461,98.614 55.461 C 98.512 55.461,98.221 55.624,97.967 55.823 M119.131 57.671 C 119.528 58.078,119.895 58.410,119.946 58.410 C 119.996 58.410,119.713 58.078,119.316 57.671 C 118.919 57.264,118.553 56.932,118.502 56.932 C 118.451 56.932,118.734 57.264,119.131 57.671 M248.431 57.206 C 248.239 57.437,247.228 57.489,242.077 57.532 L 235.952 57.584 242.069 57.627 C 247.981 57.670,248.198 57.659,248.521 57.301 C 248.705 57.098,248.812 56.932,248.757 56.932 C 248.703 56.932,248.556 57.055,248.431 57.206 M100.121 58.364 C 100.074 58.440,103.311 58.480,107.316 58.452 L 114.597 58.402 114.649 63.443 L 114.701 68.484 114.744 63.355 L 114.787 58.226 107.497 58.226 C 103.487 58.226,100.168 58.288,100.121 58.364 M307.532 58.734 C 313.861 58.761,324.217 58.761,330.545 58.734 C 336.874 58.707,331.696 58.685,319.039 58.685 C 306.382 58.685,301.204 58.707,307.532 58.734 M96.149 60.098 C 96.108 61.467,96.271 61.585,98.088 61.506 L 99.538 61.442 98.016 61.405 C 96.324 61.364,96.386 61.420,96.245 59.797 C 96.194 59.212,96.174 59.275,96.149 60.098 M242.144 59.335 L 235.397 59.434 242.052 59.474 C 246.106 59.498,248.814 59.444,248.983 59.335 C 249.136 59.236,249.177 59.173,249.076 59.195 C 248.974 59.217,245.855 59.280,242.144 59.335 M116.821 59.982 C 117.075 60.287,117.304 60.571,117.329 60.613 C 117.354 60.655,117.416 60.649,117.466 60.600 C 117.515 60.550,117.287 60.266,116.958 59.968 L 116.360 59.427 116.821 59.982 M121.619 60.305 C 122.385 61.121,122.551 61.268,122.551 61.129 C 122.551 61.099,122.156 60.704,121.673 60.251 L 120.795 59.427 121.619 60.305 M318.980 59.658 C 341.174 59.703,342.493 59.724,342.565 60.028 C 342.624 60.273,342.638 60.262,342.624 59.982 C 342.606 59.614,342.477 59.612,319.039 59.611 L 295.471 59.610 318.980 59.658 M99.492 60.351 C 99.494 60.758,99.532 60.902,99.576 60.673 C 99.620 60.443,99.619 60.110,99.572 59.933 C 99.526 59.756,99.490 59.945,99.492 60.351 M210.721 61.368 C 210.504 61.673,210.368 61.922,210.418 61.922 C 210.469 61.922,210.689 61.673,210.906 61.368 C 211.123 61.063,211.259 60.813,211.208 60.813 C 211.157 60.813,210.938 61.063,210.721 61.368 M342.604 85.860 C 342.604 99.686,342.626 105.315,342.652 98.368 C 342.679 91.422,342.679 80.109,342.652 73.230 C 342.626 66.350,342.604 72.033,342.604 85.860 M118.846 62.153 C 119.299 62.636,119.695 63.031,119.724 63.031 C 119.863 63.031,119.716 62.865,118.900 62.099 L 118.022 61.275 118.846 62.153 M123.383 62.292 C 123.883 62.800,124.335 63.216,124.385 63.216 C 124.436 63.216,124.068 62.800,123.567 62.292 C 123.067 61.784,122.616 61.368,122.565 61.368 C 122.514 61.368,122.882 61.784,123.383 62.292 M119.963 63.332 C 119.963 63.429,120.358 63.880,120.841 64.333 L 121.719 65.157 120.887 64.236 C 120.430 63.730,120.035 63.279,120.009 63.235 C 119.984 63.191,119.963 63.234,119.963 63.332 M93.484 63.724 C 95.746 63.754,99.448 63.754,101.710 63.724 C 103.972 63.695,102.121 63.671,97.597 63.671 C 93.073 63.671,91.222 63.695,93.484 63.724 M125.970 65.065 C 126.471 65.573,126.922 65.989,126.973 65.989 C 127.024 65.989,126.656 65.573,126.155 65.065 C 125.655 64.556,125.203 64.140,125.153 64.140 C 125.102 64.140,125.470 64.556,125.970 65.065 M108.041 65.804 C 108.438 66.211,108.804 66.543,108.855 66.543 C 108.906 66.543,108.623 66.211,108.226 65.804 C 107.828 65.397,107.462 65.065,107.411 65.065 C 107.360 65.065,107.644 65.397,108.041 65.804 M207.368 65.943 C 206.836 66.585,206.611 66.913,206.702 66.913 C 206.753 66.913,207.017 66.622,207.289 66.266 C 207.792 65.606,207.853 65.357,207.368 65.943 M123.051 66.815 C 123.233 67.066,123.460 67.274,123.553 67.277 C 123.647 67.280,123.529 67.075,123.290 66.821 C 122.736 66.231,122.623 66.228,123.051 66.815 M127.079 79.205 C 127.079 86.251,127.141 91.920,127.215 91.803 C 127.395 91.521,127.397 66.590,127.218 66.480 C 127.142 66.432,127.079 72.159,127.079 79.205 M85.671 67.329 C 85.610 67.659,85.585 68.387,85.617 68.946 L 85.675 69.963 86.322 69.987 L 86.969 70.011 86.345 69.928 L 85.722 69.844 85.804 68.286 C 85.891 66.628,85.853 66.356,85.671 67.329 M93.207 67.052 C 95.215 67.081,98.500 67.081,100.508 67.052 C 102.516 67.022,100.873 66.997,96.858 66.997 C 92.842 66.997,91.199 67.022,93.207 67.052 M110.166 68.115 C 110.511 68.470,110.835 68.762,110.886 68.762 C 110.937 68.762,110.696 68.470,110.351 68.115 C 110.006 67.759,109.683 67.468,109.632 67.468 C 109.581 67.468,109.821 67.759,110.166 68.115 M105.802 68.471 C 105.746 68.616,105.738 68.928,105.783 69.164 C 105.842 69.476,105.872 69.421,105.890 68.964 L 105.915 68.335 106.331 68.687 L 106.747 69.039 106.395 68.623 C 105.981 68.134,105.936 68.122,105.802 68.471 M115.054 68.840 C 115.357 69.086,116.068 69.131,119.627 69.131 L 123.842 69.131 123.892 80.222 L 123.942 91.312 123.939 80.176 L 123.937 69.039 119.593 68.946 C 117.204 68.896,115.125 68.785,114.972 68.702 C 114.820 68.618,114.856 68.680,115.054 68.840 M107.024 69.559 C 107.024 69.591,107.294 69.861,107.625 70.160 L 108.226 70.702 107.683 70.102 C 107.177 69.542,107.024 69.416,107.024 69.559 M112.484 70.616 C 113.090 71.280,113.624 71.796,113.670 71.764 C 113.716 71.732,113.220 71.189,112.568 70.557 L 111.382 69.409 112.484 70.616 M87.387 70.001 C 87.617 70.046,87.949 70.044,88.126 69.998 C 88.303 69.951,88.115 69.915,87.708 69.917 C 87.301 69.919,87.157 69.957,87.387 70.001 M105.804 72.551 C 105.804 74.076,105.833 74.675,105.868 73.882 C 105.902 73.090,105.902 71.842,105.867 71.110 C 105.832 70.377,105.804 71.026,105.804 72.551 M74.619 72.505 C 74.043 73.075,74.041 73.082,74.576 72.645 C 74.885 72.391,75.218 72.121,75.314 72.044 C 75.411 71.967,75.430 71.904,75.358 71.904 C 75.285 71.904,74.953 72.174,74.619 72.505 M113.863 72.019 C 113.863 72.117,114.255 72.567,114.733 73.021 L 115.604 73.845 114.794 72.921 C 114.349 72.412,113.958 71.962,113.924 71.919 C 113.891 71.877,113.863 71.922,113.863 72.019 M109.612 72.331 C 109.612 72.363,109.882 72.634,110.213 72.932 L 110.813 73.475 110.270 72.874 C 109.764 72.314,109.612 72.189,109.612 72.331 M317.421 72.596 C 318.616 72.629,320.571 72.629,321.765 72.596 C 322.960 72.564,321.982 72.538,319.593 72.538 C 317.204 72.538,316.227 72.564,317.421 72.596 M220.345 73.305 C 220.455 73.437,220.663 73.500,220.808 73.444 C 221.175 73.303,221.141 73.254,220.608 73.152 C 220.243 73.082,220.187 73.115,220.345 73.305 M266.869 73.329 C 267.099 73.373,267.432 73.371,267.608 73.325 C 267.785 73.279,267.597 73.242,267.190 73.244 C 266.784 73.246,266.639 73.284,266.869 73.329 M98.715 74.409 C 99.168 74.923,99.575 75.315,99.621 75.281 C 99.667 75.246,99.297 74.826,98.799 74.347 L 97.893 73.475 98.715 74.409 M325.878 74.365 C 325.878 74.396,326.148 74.667,326.479 74.965 L 327.079 75.508 326.537 74.908 C 326.031 74.348,325.878 74.222,325.878 74.365 M85.857 74.632 L 94.264 74.680 94.318 79.623 L 94.371 84.566 94.367 79.575 L 94.362 74.584 85.906 74.584 L 77.449 74.584 85.857 74.632 M112.292 75.231 C 112.689 75.638,113.056 75.970,113.106 75.970 C 113.157 75.970,112.874 75.638,112.477 75.231 C 112.080 74.824,111.713 74.492,111.662 74.492 C 111.612 74.492,111.895 74.824,112.292 75.231 M317.247 74.630 C 318.345 74.662,320.092 74.662,321.128 74.629 C 322.165 74.597,321.266 74.570,319.131 74.570 C 316.996 74.570,316.148 74.597,317.247 74.630 M116.543 87.811 C 116.543 94.813,116.600 100.398,116.669 100.224 C 116.840 99.793,116.850 75.563,116.679 75.295 C 116.605 75.178,116.543 80.810,116.543 87.811 M324.059 76.017 C 324.086 76.734,324.095 76.748,324.165 76.178 L 324.241 75.554 324.921 76.178 C 325.599 76.800,325.599 76.800,324.870 76.016 C 323.980 75.059,324.023 75.059,324.059 76.017 M100.739 76.617 C 101.292 77.177,101.785 77.634,101.836 77.634 C 101.887 77.634,101.476 77.177,100.924 76.617 C 100.372 76.058,99.879 75.601,99.828 75.601 C 99.777 75.601,100.187 76.058,100.739 76.617 M76.244 93.900 C 76.244 103.914,76.267 108.011,76.294 103.004 C 76.321 97.997,76.321 89.804,76.294 84.797 C 76.267 79.790,76.244 83.886,76.244 93.900 M313.124 76.201 C 313.124 76.278,313.493 76.340,313.945 76.340 C 314.396 76.340,314.804 76.278,314.851 76.201 C 314.898 76.125,314.529 76.063,314.030 76.063 C 313.532 76.063,313.124 76.125,313.124 76.201 M328.466 77.172 C 329.018 77.731,329.511 78.189,329.562 78.189 C 329.613 78.189,329.203 77.731,328.651 77.172 C 328.098 76.613,327.605 76.155,327.554 76.155 C 327.503 76.155,327.914 76.613,328.466 77.172 M96.158 79.864 L 96.198 83.457 96.297 80.041 L 96.396 76.625 96.811 77.154 C 97.040 77.446,97.227 77.605,97.227 77.509 C 97.227 77.412,96.978 77.094,96.673 76.802 L 96.118 76.271 96.158 79.864 M310.253 76.718 C 310.053 76.791,311.174 76.864,312.745 76.879 C 314.316 76.894,315.544 76.850,315.474 76.780 C 315.300 76.607,310.705 76.552,310.253 76.718 M317.098 76.712 L 315.619 76.831 317.560 76.840 C 318.713 76.845,319.351 76.788,319.131 76.700 C 318.928 76.618,318.720 76.560,318.669 76.572 C 318.618 76.583,317.911 76.646,317.098 76.712 M324.106 78.004 L 324.122 79.205 324.817 79.225 C 325.508 79.244,325.508 79.243,324.872 79.168 L 324.232 79.091 324.161 77.947 L 324.091 76.802 324.106 78.004 M320.542 78.151 C 320.885 78.538,321.372 79.007,321.627 79.195 C 321.881 79.383,321.634 79.067,321.078 78.493 C 319.927 77.303,319.614 77.104,320.542 78.151 M113.395 88.725 C 113.395 94.875,113.419 97.391,113.447 94.316 C 113.476 91.241,113.476 86.208,113.447 83.133 C 113.419 80.058,113.395 82.574,113.395 88.725 M326.876 78.317 L 327.596 79.092 326.598 79.160 L 325.601 79.229 326.664 79.263 C 327.935 79.304,327.959 79.219,326.941 78.272 L 326.155 77.542 326.876 78.317 M102.773 78.835 C 103.325 79.395,103.818 79.852,103.869 79.852 C 103.920 79.852,103.510 79.395,102.957 78.835 C 102.405 78.276,101.912 77.819,101.861 77.819 C 101.810 77.819,102.220 78.276,102.773 78.835 M98.521 79.020 C 99.073 79.579,99.567 80.037,99.618 80.037 C 99.669 80.037,99.258 79.579,98.706 79.020 C 98.154 78.461,97.661 78.004,97.610 78.004 C 97.559 78.004,97.969 78.461,98.521 79.020 M312.893 78.696 C 313.833 78.729,315.372 78.729,316.312 78.696 C 317.253 78.662,316.483 78.635,314.603 78.635 C 312.722 78.635,311.952 78.662,312.893 78.696 M318.449 81.278 C 318.520 84.450,318.386 84.297,321.049 84.251 L 323.198 84.214 320.980 84.113 L 318.762 84.011 318.710 81.377 C 318.682 79.928,318.599 78.743,318.525 78.743 C 318.452 78.743,318.417 79.883,318.449 81.278 M322.921 80.684 C 323.473 81.243,323.966 81.701,324.017 81.701 C 324.068 81.701,323.658 81.243,323.105 80.684 C 322.553 80.125,322.060 79.667,322.009 79.667 C 321.958 79.667,322.368 80.125,322.921 80.684 M323.152 80.037 C 323.213 80.259,323.704 80.333,325.616 80.407 L 328.004 80.499 328.004 86.544 C 328.004 89.868,328.067 92.524,328.145 92.447 C 328.223 92.369,328.264 89.607,328.237 86.310 L 328.189 80.314 325.793 80.262 C 324.173 80.227,323.345 80.137,323.237 79.985 C 323.122 79.823,323.098 79.838,323.152 80.037 M100.924 81.608 C 101.476 82.167,101.970 82.625,102.021 82.625 C 102.071 82.625,101.661 82.167,101.109 81.608 C 100.557 81.049,100.063 80.591,100.013 80.591 C 99.962 80.591,100.372 81.049,100.924 81.608 M105.185 81.433 C 105.637 81.947,106.045 82.339,106.091 82.305 C 106.137 82.270,105.767 81.850,105.268 81.371 L 104.362 80.499 105.185 81.433 M321.527 82.024 L 322.445 82.994 321.065 83.031 L 319.686 83.067 320.961 83.132 C 322.647 83.218,322.732 83.059,321.579 81.970 L 320.610 81.054 321.527 82.024 M325.038 89.926 C 325.038 93.789,325.062 95.396,325.092 93.496 C 325.122 91.597,325.122 88.436,325.092 86.472 C 325.062 84.509,325.038 86.063,325.038 89.926 M107.486 98.521 C 107.486 106.533,107.547 112.993,107.622 112.875 C 107.801 112.593,107.804 84.150,107.625 84.040 C 107.549 83.993,107.486 90.509,107.486 98.521 M99.583 85.349 L 104.249 85.404 104.298 98.848 L 104.347 112.292 104.346 98.799 L 104.344 85.305 99.630 85.300 L 94.917 85.295 99.583 85.349 M218.545 85.351 C 232.558 85.377,255.432 85.377,269.377 85.351 C 283.322 85.325,271.858 85.304,243.900 85.304 C 215.943 85.304,204.533 85.325,218.545 85.351 M81.368 89.686 C 81.062 89.992,81.090 90.297,81.453 90.597 C 81.733 90.828,81.738 90.815,81.510 90.449 C 81.304 90.118,81.303 89.998,81.503 89.756 C 81.787 89.414,81.690 89.363,81.368 89.686 M99.200 89.808 C 99.258 90.027,99.201 90.330,99.075 90.482 C 98.920 90.668,98.912 90.758,99.050 90.758 C 99.338 90.758,99.532 89.847,99.294 89.609 C 99.154 89.468,99.127 89.526,99.200 89.808 M119.162 91.990 C 118.992 92.160,119.006 94.967,119.177 95.074 C 119.254 95.121,119.289 94.464,119.256 93.612 L 119.197 92.065 121.197 92.005 L 123.198 91.945 121.242 91.906 C 120.166 91.885,119.230 91.922,119.162 91.990 M325.583 92.864 C 325.528 93.006,325.510 93.443,325.542 93.835 L 325.601 94.547 327.062 94.602 C 327.866 94.632,328.590 94.590,328.671 94.509 C 328.752 94.428,328.115 94.389,327.256 94.422 L 325.693 94.482 325.693 93.646 L 325.693 92.810 326.756 92.743 L 327.819 92.676 326.750 92.641 C 325.982 92.616,325.654 92.679,325.583 92.864 M123.752 95.009 L 123.198 95.150 123.695 95.172 C 123.969 95.184,124.244 95.111,124.307 95.009 C 124.370 94.908,124.395 94.834,124.364 94.846 C 124.333 94.858,124.057 94.932,123.752 95.009 M310.102 96.719 C 310.150 96.795,313.048 96.858,316.543 96.858 C 320.039 96.858,322.937 96.795,322.984 96.719 C 323.032 96.643,320.133 96.580,316.543 96.580 C 312.954 96.580,310.055 96.643,310.102 96.719 M81.437 97.027 C 81.181 97.310,81.158 97.459,81.323 97.767 C 81.528 98.149,81.578 98.151,90.348 98.107 L 99.168 98.063 90.361 98.013 C 82.448 97.968,81.542 97.933,81.439 97.664 C 81.138 96.880,81.313 96.864,90.363 96.811 L 98.983 96.762 90.371 96.717 C 82.087 96.675,81.746 96.686,81.437 97.027 M308.139 97.171 C 308.136 97.292,308.320 97.587,308.549 97.827 C 308.778 98.066,308.873 98.133,308.760 97.976 C 308.647 97.818,308.462 97.523,308.349 97.320 C 308.237 97.116,308.142 97.049,308.139 97.171 M324.579 97.607 C 324.467 97.816,324.111 98.148,323.787 98.346 C 323.463 98.543,323.291 98.705,323.404 98.705 C 323.694 98.706,324.550 98.007,324.777 97.583 C 324.881 97.387,324.925 97.227,324.874 97.227 C 324.824 97.227,324.691 97.398,324.579 97.607 M108.354 102.064 C 108.316 103.368,108.422 103.882,108.730 103.882 C 108.852 103.882,108.848 103.798,108.720 103.643 C 108.611 103.512,108.492 102.825,108.456 102.118 L 108.390 100.832 108.354 102.064 M115.065 102.712 C 114.658 103.076,114.492 103.288,114.695 103.183 C 115.038 103.005,116.058 102.024,115.882 102.041 C 115.839 102.045,115.471 102.347,115.065 102.712 M81.452 104.405 C 81.284 104.590,81.146 104.808,81.146 104.887 C 81.146 104.967,81.292 104.856,81.470 104.640 C 81.789 104.253,81.887 104.248,90.388 104.202 L 98.983 104.155 90.371 104.111 C 82.230 104.069,81.741 104.085,81.452 104.405 M99.239 104.846 C 99.324 105.360,99.350 105.386,99.408 105.016 C 99.446 104.775,99.401 104.502,99.307 104.409 C 99.205 104.307,99.178 104.479,99.239 104.846 M86.196 105.499 C 88.617 105.528,92.527 105.528,94.883 105.499 C 97.240 105.470,95.259 105.446,90.481 105.446 C 85.702 105.446,83.774 105.470,86.196 105.499 M220.269 111.599 C 220.222 111.675,231.189 111.738,244.640 111.738 C 258.091 111.738,269.057 111.675,269.010 111.599 C 268.963 111.523,257.996 111.460,244.640 111.460 C 231.283 111.460,220.316 111.523,220.269 111.599 M318.946 111.645 L 295.287 111.740 318.993 111.785 C 334.704 111.815,342.699 111.768,342.699 111.645 C 342.699 111.543,342.678 111.481,342.652 111.505 C 342.627 111.530,331.959 111.593,318.946 111.645 M268.068 138.400 L 268.022 164.509 244.593 164.556 L 221.165 164.604 244.599 164.650 C 263.210 164.686,268.052 164.647,268.122 164.464 C 268.170 164.337,268.188 152.546,268.161 138.262 L 268.113 112.292 268.068 138.400 M306.345 112.708 C 312.834 112.735,323.398 112.735,329.820 112.708 C 336.243 112.681,330.933 112.659,318.022 112.659 C 305.111 112.659,299.856 112.681,306.345 112.708 M243.022 125.462 C 244.268 125.494,246.305 125.494,247.551 125.462 C 248.796 125.430,247.777 125.403,245.287 125.403 C 242.796 125.403,241.777 125.430,243.022 125.462 M250.639 126.330 C 251.092 126.793,251.497 127.172,251.539 127.172 C 251.696 127.172,250.357 125.725,250.092 125.609 C 249.940 125.542,250.186 125.866,250.639 126.330 M238.490 128.096 C 238.490 128.452,238.528 128.598,238.575 128.420 C 238.621 128.242,238.621 127.951,238.575 127.773 C 238.528 127.595,238.490 127.740,238.490 128.096 M248.488 130.114 C 248.514 131.536,248.592 132.757,248.661 132.826 C 248.730 132.895,248.782 131.776,248.776 130.340 C 248.771 128.904,248.693 127.683,248.603 127.627 C 248.510 127.570,248.460 128.650,248.488 130.114 M240.466 128.327 C 240.411 128.724,240.439 128.951,240.532 128.858 C 240.621 128.769,240.665 128.457,240.628 128.165 C 240.567 127.676,240.554 127.689,240.466 128.327 M249.762 130.268 L 249.801 132.255 249.861 130.343 C 249.917 128.569,249.944 128.449,250.238 128.680 C 250.523 128.904,250.530 128.896,250.301 128.604 C 249.819 127.990,249.723 128.288,249.762 130.268 M251.756 130.407 C 252.308 130.966,252.802 131.423,252.852 131.423 C 252.903 131.423,252.493 130.966,251.941 130.407 C 251.389 129.848,250.895 129.390,250.844 129.390 C 250.794 129.390,251.204 129.848,251.756 130.407 M245.161 129.991 C 245.408 130.220,245.787 130.609,246.003 130.857 C 246.219 131.105,246.396 131.251,246.396 131.181 C 246.396 130.978,245.076 129.575,244.885 129.575 C 244.790 129.575,244.914 129.762,245.161 129.991 M255.004 131.071 C 255.302 131.436,255.583 131.704,255.628 131.666 C 255.674 131.628,255.430 131.329,255.087 131.001 L 254.463 130.407 255.004 131.071 M244.027 134.046 C 244.008 135.540,244.055 136.801,244.131 136.848 C 244.207 136.896,244.248 136.090,244.221 135.057 C 244.133 131.659,244.062 131.289,244.027 134.046 M246.580 131.481 C 246.580 131.513,246.851 131.783,247.181 132.082 L 247.782 132.625 247.239 132.024 C 246.733 131.464,246.580 131.338,246.580 131.481 M233.542 140.573 C 233.542 145.453,233.566 147.423,233.595 144.950 C 233.624 142.478,233.624 138.485,233.595 136.078 C 233.566 133.670,233.542 135.693,233.542 140.573 M245.102 132.648 C 245.102 132.745,245.497 133.196,245.980 133.649 L 246.858 134.473 246.026 133.552 C 245.568 133.046,245.173 132.595,245.148 132.551 C 245.122 132.507,245.102 132.550,245.102 132.648 M251.250 133.225 L 253.609 133.283 253.561 139.331 L 253.512 145.379 252.311 145.471 L 251.109 145.564 251.092 146.443 L 251.075 147.322 251.148 146.489 L 251.222 145.656 252.284 145.656 C 253.870 145.656,253.789 146.005,253.789 139.150 L 253.789 133.087 251.340 133.127 L 248.891 133.167 251.250 133.225 M249.533 134.658 C 250.083 135.268,250.570 135.809,250.615 135.860 C 250.660 135.910,250.609 135.786,250.501 135.582 C 250.394 135.379,249.907 134.838,249.419 134.381 L 248.533 133.549 249.533 134.658 M246.488 135.860 L 245.009 135.977 246.534 136.010 C 247.450 136.031,248.059 135.971,248.059 135.860 C 248.059 135.758,248.038 135.690,248.013 135.709 C 247.988 135.727,247.301 135.795,246.488 135.860 M76.941 136.738 C 89.420 136.764,109.841 136.764,122.320 136.738 C 134.799 136.711,124.589 136.690,99.630 136.690 C 74.672 136.690,64.462 136.711,76.941 136.738 M255.453 145.796 C 255.453 145.907,255.227 146.274,254.951 146.612 C 254.538 147.118,254.525 147.162,254.876 146.860 C 255.374 146.430,255.714 145.856,255.560 145.702 C 255.501 145.643,255.453 145.685,255.453 145.796 M250.126 150.476 C 250.000 150.678,249.629 151.007,249.302 151.207 C 248.974 151.406,248.811 151.570,248.940 151.570 C 249.228 151.571,250.591 150.345,250.454 150.208 C 250.400 150.154,250.252 150.274,250.126 150.476 M220.269 165.481 C 220.316 165.557,231.283 165.619,244.640 165.619 C 257.996 165.619,268.963 165.557,269.010 165.481 C 269.057 165.404,258.091 165.342,244.640 165.342 C 231.189 165.342,220.222 165.404,220.269 165.481 " stroke="none" fill="#51321e" fill-rule="evenodd"></path><path id="path4" d="M220.333 33.191 C 220.333 42.352,220.269 46.921,220.138 47.193 C 219.949 47.583,219.952 47.585,220.230 47.238 C 220.510 46.889,220.703 19.593,220.425 19.593 C 220.374 19.593,220.333 25.712,220.333 33.191 M100.092 35.120 L 145.933 35.213 146.026 60.166 L 146.118 85.120 169.247 85.167 L 192.376 85.214 192.874 84.520 L 193.372 83.826 192.837 84.427 L 192.302 85.028 169.256 85.028 L 146.211 85.028 146.211 60.203 C 146.211 41.142,146.159 35.327,145.989 35.157 C 145.817 34.986,135.403 34.946,100.009 34.981 L 54.251 35.027 100.092 35.120 M242.755 35.073 C 243.853 35.106,245.600 35.106,246.637 35.073 C 247.673 35.040,246.774 35.013,244.640 35.014 C 242.505 35.014,241.657 35.041,242.755 35.073 M248.882 38.247 C 248.889 40.290,248.940 40.741,249.168 40.803 C 249.367 40.857,249.382 40.833,249.220 40.718 C 249.069 40.611,248.975 39.774,248.934 38.163 L 248.873 35.767 248.882 38.247 M252.311 36.287 C 252.311 36.319,252.581 36.589,252.911 36.888 L 253.512 37.431 252.969 36.830 C 252.463 36.270,252.311 36.144,252.311 36.287 M238.983 36.654 C 239.069 36.740,239.421 36.782,239.764 36.746 C 240.373 36.684,240.369 36.680,239.607 36.590 C 239.178 36.539,238.897 36.568,238.983 36.654 M55.313 85.998 C 55.288 113.117,55.330 135.305,55.407 135.305 C 55.532 135.305,55.531 102.216,55.406 54.529 C 55.380 44.718,55.338 58.879,55.313 85.998 M238.309 37.661 C 239.503 37.693,241.458 37.693,242.652 37.661 C 243.847 37.629,242.870 37.603,240.481 37.603 C 238.091 37.603,237.114 37.629,238.309 37.661 M252.403 38.632 C 252.800 39.039,253.167 39.372,253.217 39.372 C 253.268 39.372,252.985 39.039,252.588 38.632 C 252.191 38.226,251.824 37.893,251.773 37.893 C 251.723 37.893,252.006 38.226,252.403 38.632 M246.765 39.799 C 246.765 39.831,247.036 40.101,247.366 40.400 L 247.967 40.943 247.424 40.342 C 246.918 39.782,246.765 39.656,246.765 39.799 M250.974 40.799 C 251.306 40.841,251.805 40.840,252.083 40.798 C 252.361 40.755,252.089 40.722,251.479 40.723 C 250.869 40.724,250.642 40.758,250.974 40.799 M253.833 47.052 C 253.806 50.770,253.717 53.248,253.605 53.383 C 253.504 53.506,253.547 53.497,253.700 53.365 C 253.941 53.157,253.972 52.280,253.928 47.033 L 253.876 40.943 253.833 47.052 M248.614 41.832 C 248.614 41.864,248.884 42.134,249.214 42.433 L 249.815 42.976 249.272 42.375 C 248.766 41.815,248.614 41.690,248.614 41.832 M246.670 44.682 L 248.794 44.744 248.846 51.023 L 248.898 57.301 248.895 50.970 L 248.891 44.640 246.719 44.630 L 244.546 44.621 246.670 44.682 M219.769 48.746 C 219.555 49.027,219.557 49.042,219.778 48.845 C 219.920 48.718,220.104 48.614,220.185 48.614 C 220.266 48.614,220.333 54.145,220.333 60.906 C 220.333 67.666,220.395 73.198,220.471 73.198 C 220.705 73.198,220.457 48.562,220.222 48.484 C 220.110 48.447,219.906 48.565,219.769 48.746 M218.082 50.046 C 217.642 50.563,216.972 51.571,217.068 51.571 C 217.116 51.571,217.455 51.155,217.820 50.647 C 218.477 49.732,218.612 49.422,218.082 50.046 M216.247 52.542 C 215.315 53.753,215.291 53.789,215.390 53.789 C 215.441 53.789,215.828 53.332,216.250 52.773 C 216.672 52.213,216.980 51.756,216.935 51.756 C 216.889 51.756,216.580 52.110,216.247 52.542 M214.787 54.529 C 214.570 54.834,214.434 55.083,214.485 55.083 C 214.536 55.083,214.755 54.834,214.972 54.529 C 215.189 54.224,215.326 53.974,215.275 53.974 C 215.224 53.974,215.005 54.224,214.787 54.529 M251.900 55.034 C 252.334 55.073,253.000 55.072,253.378 55.033 C 253.757 54.993,253.401 54.961,252.588 54.962 C 251.774 54.962,251.465 54.995,251.900 55.034 M117.375 56.100 C 117.720 56.456,118.044 56.747,118.095 56.747 C 118.146 56.747,117.905 56.456,117.560 56.100 C 117.215 55.744,116.891 55.453,116.841 55.453 C 116.790 55.453,117.030 55.744,117.375 56.100 M212.816 57.179 C 212.290 57.907,211.597 58.856,211.275 59.288 C 210.953 59.720,210.731 60.074,210.782 60.074 C 210.914 60.074,213.911 55.993,213.834 55.918 C 213.799 55.883,213.341 56.451,212.816 57.179 M103.928 58.179 C 105.936 58.209,109.221 58.209,111.229 58.179 C 113.237 58.149,111.594 58.125,107.579 58.125 C 103.563 58.125,101.920 58.149,103.928 58.179 M318.994 58.918 L 343.256 58.966 343.208 85.768 C 343.182 100.509,343.223 112.569,343.300 112.569 C 343.377 112.569,343.418 100.488,343.392 85.721 L 343.346 58.872 319.039 58.871 L 294.732 58.870 318.994 58.918 M99.316 60.074 C 99.316 60.633,99.351 60.862,99.393 60.582 C 99.435 60.303,99.435 59.845,99.393 59.566 C 99.351 59.286,99.316 59.515,99.316 60.074 M294.727 72.274 C 294.727 79.543,294.750 82.516,294.778 78.882 C 294.806 75.247,294.806 69.300,294.778 65.665 C 294.750 62.031,294.727 65.005,294.727 72.274 M319.086 59.473 L 342.701 59.521 342.654 85.768 C 342.628 100.204,342.669 112.015,342.746 112.015 C 342.822 112.015,342.864 100.183,342.838 85.721 L 342.791 59.427 319.131 59.426 L 295.471 59.425 319.086 59.473 M211.609 59.843 C 211.284 60.222,211.040 60.628,211.137 60.628 C 211.175 60.628,211.390 60.379,211.616 60.074 C 212.061 59.471,212.057 59.321,211.609 59.843 M295.284 85.767 C 295.284 100.152,295.306 106.037,295.333 98.845 C 295.359 91.652,295.359 79.882,295.333 72.689 C 295.306 65.497,295.284 71.382,295.284 85.767 M121.811 60.906 C 122.156 61.262,122.480 61.553,122.531 61.553 C 122.582 61.553,122.341 61.262,121.996 60.906 C 121.651 60.550,121.328 60.259,121.277 60.259 C 121.226 60.259,121.467 60.550,121.811 60.906 M210.062 60.937 C 209.778 61.311,209.639 61.558,209.755 61.486 C 209.991 61.340,210.791 60.259,210.663 60.259 C 210.617 60.259,210.347 60.564,210.062 60.937 M118.115 61.091 C 118.459 61.446,118.783 61.738,118.834 61.738 C 118.885 61.738,118.644 61.446,118.299 61.091 C 117.955 60.735,117.631 60.444,117.580 60.444 C 117.529 60.444,117.770 60.735,118.115 61.091 M210.351 61.553 C 210.134 61.858,209.998 62.107,210.049 62.107 C 210.100 62.107,210.319 61.858,210.536 61.553 C 210.753 61.248,210.889 60.998,210.838 60.998 C 210.788 60.998,210.568 61.248,210.351 61.553 M208.847 62.616 C 208.315 63.258,208.090 63.586,208.181 63.586 C 208.232 63.586,208.496 63.295,208.768 62.939 C 209.271 62.279,209.332 62.029,208.847 62.616 M209.022 63.355 C 208.696 63.734,208.452 64.140,208.550 64.140 C 208.587 64.140,208.803 63.891,209.028 63.586 C 209.474 62.983,209.469 62.833,209.022 63.355 M206.643 66.590 C 205.801 67.733,205.034 68.773,204.937 68.900 C 204.840 69.027,204.806 69.131,204.861 69.131 C 204.916 69.131,205.523 68.362,206.210 67.421 C 206.897 66.481,207.662 65.441,207.910 65.111 C 208.159 64.780,208.319 64.510,208.267 64.510 C 208.215 64.510,207.484 65.446,206.643 66.590 M104.251 71.774 L 104.343 76.802 104.393 71.916 C 104.420 69.229,104.379 66.966,104.301 66.888 C 104.223 66.810,104.200 69.009,104.251 71.774 M127.074 78.835 C 127.074 85.444,127.097 88.120,127.126 84.783 C 127.154 81.446,127.154 76.040,127.126 72.768 C 127.097 69.497,127.074 72.227,127.074 78.835 M123.660 67.259 C 123.660 67.428,122.760 67.469,119.980 67.429 C 117.957 67.399,116.340 67.438,116.387 67.514 C 116.526 67.739,123.619 67.683,123.760 67.455 C 123.827 67.347,123.832 67.208,123.771 67.147 C 123.710 67.086,123.660 67.137,123.660 67.259 M107.201 69.362 C 107.967 70.178,108.133 70.325,108.133 70.186 C 108.133 70.157,107.738 69.762,107.255 69.308 L 106.377 68.484 107.201 69.362 M110.536 68.819 C 110.536 68.851,110.806 69.122,111.137 69.420 L 111.738 69.963 111.195 69.362 C 110.689 68.802,110.536 68.677,110.536 68.819 M204.132 70.009 C 203.852 70.390,203.494 70.862,203.337 71.058 C 203.179 71.253,203.146 71.357,203.264 71.288 C 203.498 71.152,204.856 69.316,204.723 69.316 C 204.677 69.316,204.411 69.628,204.132 70.009 M81.654 71.673 C 84.221 71.702,88.422 71.702,90.989 71.673 C 93.556 71.644,91.456 71.620,86.322 71.620 C 81.188 71.620,79.087 71.644,81.654 71.673 M202.588 72.089 C 202.371 72.394,202.235 72.643,202.285 72.643 C 202.336 72.643,202.555 72.394,202.773 72.089 C 202.990 71.784,203.126 71.534,203.075 71.534 C 203.024 71.534,202.805 71.784,202.588 72.089 M96.488 72.366 C 96.833 72.722,97.157 73.013,97.207 73.013 C 97.258 73.013,97.018 72.722,96.673 72.366 C 96.328 72.010,96.004 71.719,95.953 71.719 C 95.903 71.719,96.143 72.010,96.488 72.366 M233.410 73.152 C 239.942 73.178,250.631 73.178,257.163 73.152 C 263.695 73.125,258.350 73.103,245.287 73.103 C 232.223 73.103,226.878 73.125,233.410 73.152 M115.342 74.030 C 115.687 74.385,116.011 74.677,116.061 74.677 C 116.112 74.677,115.872 74.385,115.527 74.030 C 115.182 73.674,114.858 73.383,114.807 73.383 C 114.757 73.383,114.997 73.674,115.342 74.030 M98.521 74.550 C 98.521 74.581,98.792 74.852,99.122 75.150 L 99.723 75.693 99.180 75.092 C 98.674 74.532,98.521 74.407,98.521 74.550 M323.375 77.357 L 323.383 80.129 325.778 80.181 C 327.398 80.217,328.226 80.306,328.334 80.459 C 328.449 80.620,328.473 80.606,328.419 80.407 C 328.357 80.182,327.886 80.120,325.914 80.078 L 323.485 80.026 323.426 77.305 L 323.367 74.584 323.375 77.357 M73.287 93.900 C 73.287 104.219,73.309 108.440,73.336 103.281 C 73.364 98.122,73.364 89.679,73.336 84.519 C 73.309 79.360,73.287 83.581,73.287 93.900 M116.319 76.063 C 116.320 76.571,116.356 76.757,116.399 76.476 C 116.441 76.195,116.440 75.779,116.396 75.552 C 116.352 75.325,116.318 75.555,116.319 76.063 M323.895 75.970 C 323.895 76.428,323.931 76.615,323.975 76.386 C 324.019 76.158,324.019 75.783,323.975 75.555 C 323.931 75.326,323.895 75.513,323.895 75.970 M101.201 77.449 C 101.599 77.856,101.965 78.189,102.016 78.189 C 102.067 78.189,101.783 77.856,101.386 77.449 C 100.989 77.043,100.623 76.710,100.572 76.710 C 100.521 76.710,100.804 77.043,101.201 77.449 M311.979 77.033 C 313.230 77.065,315.227 77.065,316.415 77.033 C 317.604 77.000,316.580 76.974,314.140 76.974 C 311.701 76.974,310.728 77.001,311.979 77.033 M323.870 78.039 C 323.856 78.719,323.907 79.314,323.983 79.362 C 324.060 79.409,324.098 79.019,324.069 78.495 C 323.980 76.919,323.897 76.727,323.870 78.039 M116.353 88.817 C 116.353 95.222,116.376 97.815,116.405 94.580 C 116.433 91.345,116.433 86.105,116.405 82.935 C 116.376 79.765,116.353 82.412,116.353 88.817 M326.433 77.507 C 326.433 77.539,326.703 77.809,327.033 78.108 L 327.634 78.651 327.091 78.050 C 326.585 77.490,326.433 77.364,326.433 77.507 M113.580 88.632 C 113.580 94.732,113.604 97.201,113.632 94.118 C 113.661 91.035,113.661 86.045,113.632 83.027 C 113.604 80.010,113.580 82.532,113.580 88.632 M197.966 78.420 C 197.694 78.791,197.649 78.920,197.849 78.758 C 198.152 78.512,198.610 77.819,198.470 77.819 C 198.435 77.819,198.208 78.089,197.966 78.420 M321.349 79.298 C 321.746 79.704,322.113 80.037,322.164 80.037 C 322.215 80.037,321.931 79.704,321.534 79.298 C 321.137 78.891,320.771 78.558,320.720 78.558 C 320.669 78.558,320.952 78.891,321.349 79.298 M318.743 81.331 C 318.743 82.805,318.771 83.408,318.806 82.671 C 318.841 81.934,318.841 80.728,318.806 79.991 C 318.771 79.254,318.743 79.857,318.743 81.331 M329.843 85.767 C 329.843 89.579,329.868 91.139,329.898 89.233 C 329.928 87.327,329.928 84.207,329.898 82.301 C 329.868 80.395,329.843 81.955,329.843 85.767 M319.302 79.729 C 319.250 79.865,319.236 80.676,319.270 81.531 L 319.333 83.087 319.371 81.366 C 319.398 80.120,319.467 79.682,319.622 79.777 C 319.754 79.859,319.785 79.828,319.703 79.696 C 319.531 79.417,319.418 79.426,319.302 79.729 M195.538 80.730 C 195.006 81.372,194.781 81.701,194.872 81.701 C 194.923 81.701,195.187 81.409,195.459 81.054 C 195.962 80.393,196.023 80.144,195.538 80.730 M100.370 80.649 C 100.370 80.681,100.640 80.951,100.970 81.250 L 101.571 81.793 101.028 81.192 C 100.522 80.632,100.370 80.507,100.370 80.649 M323.383 81.516 C 323.780 81.922,324.146 82.255,324.197 82.255 C 324.248 82.255,323.965 81.922,323.567 81.516 C 323.170 81.109,322.804 80.776,322.753 80.776 C 322.702 80.776,322.986 81.109,323.383 81.516 M104.991 81.574 C 104.991 81.605,105.261 81.876,105.591 82.174 L 106.192 82.717 105.649 82.116 C 105.143 81.556,104.991 81.431,104.991 81.574 M193.758 83.100 C 193.529 83.449,193.379 83.734,193.424 83.734 C 193.552 83.734,194.318 82.611,194.242 82.535 C 194.204 82.497,193.986 82.752,193.758 83.100 M97.466 83.871 C 98.157 83.907,99.238 83.906,99.869 83.870 C 100.500 83.834,99.935 83.805,98.614 83.806 C 97.292 83.806,96.776 83.835,97.466 83.871 M323.290 90.259 L 323.382 96.580 323.431 90.400 C 323.458 87.001,323.417 84.156,323.339 84.078 C 323.261 84.000,323.239 86.782,323.290 90.259 M107.482 98.336 C 107.482 106.012,107.504 109.152,107.532 105.314 C 107.560 101.476,107.560 95.196,107.532 91.359 C 107.504 87.521,107.482 90.661,107.482 98.336 M104.709 98.521 C 104.709 105.790,104.732 108.764,104.760 105.129 C 104.788 101.495,104.788 95.548,104.760 91.913 C 104.732 88.279,104.709 91.252,104.709 98.521 M294.727 99.168 C 294.727 106.488,294.750 109.456,294.778 105.763 C 294.806 102.070,294.806 96.081,294.778 92.454 C 294.750 88.827,294.727 91.848,294.727 99.168 M146.026 111.275 L 145.933 136.322 100.064 136.322 C 74.836 136.322,54.290 136.383,54.408 136.457 C 54.841 136.733,145.774 136.625,146.004 136.348 C 146.156 136.164,146.199 129.437,146.165 111.163 L 146.118 86.229 146.026 111.275 M193.900 89.649 C 194.108 90.055,194.319 90.388,194.370 90.388 C 194.421 90.388,194.292 90.055,194.085 89.649 C 193.878 89.242,193.666 88.909,193.615 88.909 C 193.565 88.909,193.693 89.242,193.900 89.649 M81.586 89.917 C 81.461 90.243,81.642 90.574,81.943 90.570 C 82.085 90.568,82.072 90.510,81.905 90.404 C 81.763 90.314,81.698 90.107,81.760 89.945 C 81.823 89.782,81.832 89.649,81.781 89.649 C 81.731 89.649,81.643 89.770,81.586 89.917 M325.740 93.808 C 325.742 94.214,325.780 94.359,325.824 94.129 C 325.868 93.899,325.866 93.566,325.820 93.390 C 325.774 93.213,325.738 93.401,325.740 93.808 M81.637 97.181 C 81.559 97.307,87.748 97.305,95.564 97.176 C 97.241 97.148,94.813 97.107,90.168 97.084 C 85.523 97.061,81.684 97.105,81.637 97.181 M313.632 97.181 C 315.284 97.211,317.988 97.211,319.640 97.181 C 321.292 97.150,319.940 97.125,316.636 97.125 C 313.332 97.125,311.980 97.150,313.632 97.181 M199.353 100.000 C 199.611 100.508,199.863 100.924,199.914 100.924 C 199.965 100.924,199.795 100.508,199.538 100.000 C 199.280 99.492,199.028 99.076,198.977 99.076 C 198.926 99.076,199.095 99.492,199.353 100.000 M108.766 102.218 L 108.780 103.604 110.906 103.614 L 113.031 103.624 110.960 103.562 L 108.888 103.500 108.820 102.166 L 108.752 100.832 108.766 102.218 M81.578 104.806 L 81.608 105.268 90.296 105.271 L 98.983 105.273 90.355 105.223 L 81.726 105.172 81.637 104.758 C 81.559 104.396,81.551 104.402,81.578 104.806 M220.333 124.666 C 220.333 136.728,220.259 138.748,219.867 137.512 C 219.800 137.299,219.699 137.171,219.644 137.226 C 219.589 137.281,219.688 137.548,219.866 137.819 C 220.470 138.740,220.512 137.893,220.515 124.816 L 220.518 111.831 244.778 111.784 L 269.039 111.736 244.686 111.691 L 220.333 111.645 220.333 124.666 M232.778 112.338 C 239.368 112.365,250.099 112.365,256.623 112.338 C 263.146 112.311,257.754 112.289,244.640 112.289 C 231.525 112.289,226.187 112.311,232.778 112.338 M83.794 116.220 C 87.436 116.248,93.341 116.248,96.917 116.220 C 100.494 116.192,97.514 116.169,90.296 116.169 C 83.078 116.169,80.152 116.192,83.794 116.220 M242.190 125.831 C 243.283 125.864,245.072 125.864,246.165 125.831 C 247.257 125.798,246.363 125.772,244.177 125.772 C 241.992 125.772,241.098 125.798,242.190 125.831 M248.475 125.821 C 248.653 125.867,248.944 125.867,249.122 125.821 C 249.300 125.774,249.154 125.736,248.799 125.736 C 248.443 125.736,248.297 125.774,248.475 125.821 M248.841 127.911 C 248.841 128.267,248.879 128.413,248.926 128.235 C 248.972 128.057,248.972 127.766,248.926 127.588 C 248.879 127.410,248.841 127.555,248.841 127.911 M248.868 130.684 C 248.868 131.853,248.898 132.331,248.935 131.747 C 248.972 131.162,248.972 130.206,248.935 129.621 C 248.898 129.037,248.868 129.515,248.868 130.684 M237.754 129.898 C 239.050 129.930,241.171 129.930,242.468 129.898 C 243.764 129.866,242.703 129.840,240.111 129.840 C 237.518 129.840,236.458 129.866,237.754 129.898 M247.874 133.179 C 248.219 133.535,248.543 133.826,248.594 133.826 C 248.645 133.826,248.404 133.535,248.059 133.179 C 247.714 132.823,247.391 132.532,247.340 132.532 C 247.289 132.532,247.529 132.823,247.874 133.179 M253.872 139.279 C 253.872 142.634,253.897 144.033,253.928 142.387 C 253.958 140.741,253.958 137.996,253.928 136.287 C 253.897 134.578,253.872 135.924,253.872 139.279 M246.673 136.044 L 245.009 136.159 246.616 136.194 C 247.527 136.214,248.272 136.149,248.336 136.044 C 248.399 135.943,248.425 135.875,248.394 135.894 C 248.362 135.914,247.588 135.981,246.673 136.044 M248.881 143.161 C 248.882 146.617,248.906 148.005,248.937 146.245 C 248.967 144.485,248.967 141.657,248.937 139.960 C 248.906 138.264,248.881 139.704,248.881 143.161 M220.287 148.955 C 220.313 154.104,220.356 159.898,220.384 161.830 C 220.411 163.762,220.451 159.644,220.473 152.680 C 220.494 145.716,220.451 139.922,220.376 139.805 C 220.301 139.687,220.261 143.805,220.287 148.955 M251.201 147.176 C 251.201 147.255,251.680 147.310,252.264 147.298 C 253.392 147.276,253.282 147.194,251.987 147.094 C 251.555 147.060,251.201 147.097,251.201 147.176 M238.956 149.861 C 240.709 149.891,243.579 149.891,245.333 149.861 C 247.086 149.831,245.652 149.806,242.144 149.806 C 238.637 149.806,237.202 149.831,238.956 149.861 M220.946 164.311 C 220.964 164.557,221.104 164.792,221.257 164.833 C 221.440 164.883,221.463 164.856,221.325 164.755 C 221.209 164.671,221.069 164.436,221.013 164.233 C 220.933 163.941,220.919 163.958,220.946 164.311 M233.240 164.834 C 239.678 164.861,250.159 164.861,256.530 164.834 C 262.902 164.807,257.634 164.785,244.824 164.785 C 232.015 164.785,226.802 164.807,233.240 164.834 M232.394 165.388 C 238.875 165.415,249.480 165.415,255.961 165.388 C 262.442 165.361,257.140 165.339,244.177 165.339 C 231.215 165.339,225.913 165.361,232.394 165.388 " stroke="none" fill="#8c6c31" fill-rule="evenodd"></path></g></svg>