<svg id="svg" version="1.1" xmlns="http://www.w3.org/2000/svg" xmlns:xlink="http://www.w3.org/1999/xlink" width="400" height="300" viewBox="0, 0, 400,300"><g id="svgg"><path id="path0" d="M85.521 26.117 C 82.886 26.331,78.137 27.136,76.819 27.592 C 76.407 27.735,75.056 28.152,73.818 28.519 C 72.581 28.886,71.163 29.358,70.668 29.568 C 68.527 30.476,61.959 33.771,61.018 34.410 C 60.452 34.794,59.921 35.109,59.839 35.109 C 57.900 35.109,46.380 46.704,43.341 51.714 C 42.857 52.513,42.237 53.526,41.963 53.965 C 41.384 54.895,39.338 58.961,38.465 60.915 C 37.853 62.287,36.430 66.618,35.607 69.617 C 33.762 76.340,33.758 88.938,35.598 95.724 C 37.148 101.440,39.771 107.998,41.780 111.178 C 44.855 116.044,45.968 117.560,48.995 121.006 L 50.775 123.032 51.395 122.245 C 52.351 121.029,55.866 117.629,56.167 117.629 C 56.315 117.629,56.284 117.347,56.099 117.001 C 55.059 115.057,65.632 104.691,66.773 106.537 C 66.884 106.717,67.228 106.512,67.592 106.049 C 68.583 104.789,72.660 100.825,72.964 100.825 C 73.119 100.825,73.104 100.571,72.929 100.245 C 72.294 99.058,72.794 98.433,80.870 90.323 L 89.122 82.036 89.122 68.201 L 89.122 54.367 90.005 53.624 L 90.888 52.881 90.981 48.984 C 91.040 46.477,90.966 45.124,90.773 45.190 C 89.512 45.627,89.276 44.601,89.180 38.288 L 89.089 32.190 90.006 31.418 C 90.889 30.675,90.923 30.557,90.923 28.226 L 90.923 25.806 89.497 25.858 C 88.713 25.887,86.924 26.003,85.521 26.117 M62.599 51.956 C 67.899 57.211,68.791 59.115,65.954 59.115 C 65.050 59.115,56.998 51.715,56.083 50.044 C 55.702 49.347,56.051 48.077,56.668 47.913 C 58.025 47.553,58.449 47.842,62.599 51.956 M53.250 82.330 C 53.731 84.278,53.405 84.366,46.112 84.261 C 39.562 84.167,39.010 84.043,39.010 82.670 C 39.010 81.190,39.904 81.004,46.604 81.089 L 52.963 81.170 53.250 82.330 M305.026 82.841 C 304.696 82.971,270.701 83.088,229.482 83.100 L 154.539 83.121 154.539 83.871 C 154.539 84.338,154.369 84.621,154.089 84.621 C 153.709 84.621,153.638 85.317,153.638 89.087 C 153.638 93.301,153.604 93.562,153.038 93.710 C 152.521 93.846,152.438 94.120,152.438 95.705 C 152.438 97.062,152.320 97.588,151.988 97.716 C 151.653 97.845,151.538 98.379,151.538 99.807 C 151.538 101.312,151.441 101.725,151.088 101.725 C 150.748 101.725,150.638 102.092,150.638 103.226 C 150.638 104.526,150.558 104.726,150.038 104.726 C 149.576 104.726,149.437 104.926,149.437 105.590 C 149.437 106.065,149.235 106.621,148.987 106.827 C 148.729 107.041,148.537 107.696,148.537 108.364 C 148.537 109.198,148.410 109.527,148.087 109.527 C 147.773 109.527,147.637 109.844,147.637 110.578 C 147.637 111.428,147.523 111.628,147.037 111.628 C 146.707 111.628,146.437 111.814,146.437 112.041 C 146.437 112.269,146.234 112.623,145.986 112.828 C 145.739 113.034,145.536 113.523,145.536 113.915 C 145.536 114.349,145.360 114.629,145.086 114.629 C 144.772 114.629,144.636 114.945,144.636 115.679 C 144.636 116.529,144.522 116.729,144.036 116.729 C 143.706 116.729,143.436 116.917,143.436 117.147 C 143.436 117.377,143.233 117.643,142.986 117.738 C 142.723 117.839,142.536 118.289,142.536 118.820 C 142.536 119.429,142.387 119.730,142.086 119.730 C 141.838 119.730,141.635 119.932,141.635 120.180 C 141.635 120.428,141.458 120.630,141.242 120.630 C 140.704 120.630,139.535 122.266,139.535 123.019 C 139.535 123.363,139.338 123.631,139.085 123.631 C 138.837 123.631,138.635 123.833,138.635 124.081 C 138.635 124.331,138.368 124.531,138.035 124.531 C 137.634 124.531,137.434 124.731,137.434 125.131 C 137.434 125.465,137.234 125.731,136.984 125.731 C 136.737 125.731,136.534 125.934,136.534 126.182 C 136.534 126.429,136.332 126.632,136.084 126.632 C 135.836 126.632,135.634 126.818,135.634 127.047 C 135.634 127.275,135.364 127.533,135.034 127.619 C 134.704 127.705,134.434 127.991,134.434 128.254 C 134.434 128.517,134.231 128.732,133.983 128.732 C 133.736 128.732,133.533 128.935,133.533 129.182 C 133.533 129.430,133.331 129.632,133.083 129.632 C 132.836 129.632,132.633 129.835,132.633 130.083 C 132.633 130.362,132.350 130.533,131.886 130.533 C 131.463 130.533,130.975 130.794,130.763 131.133 C 130.557 131.463,130.218 131.733,130.010 131.733 C 129.802 131.733,129.632 131.935,129.632 132.183 C 129.632 132.433,129.366 132.633,129.032 132.633 C 128.699 132.633,128.432 132.833,128.432 133.083 C 128.432 133.331,128.230 133.533,127.982 133.533 C 127.732 133.533,127.532 133.800,127.532 134.134 C 127.532 134.602,127.332 134.734,126.622 134.734 C 126.090 134.734,125.641 134.921,125.540 135.184 C 125.445 135.431,125.179 135.634,124.949 135.634 C 124.719 135.634,124.531 135.836,124.531 136.084 C 124.531 136.387,124.228 136.534,123.603 136.534 C 122.927 136.534,122.632 136.697,122.518 137.134 C 122.406 137.559,122.108 137.734,121.495 137.734 C 120.926 137.734,120.630 137.889,120.630 138.185 C 120.630 138.486,120.329 138.635,119.721 138.635 C 119.189 138.635,118.739 138.822,118.638 139.085 C 118.541 139.338,118.094 139.535,117.618 139.535 C 117.033 139.535,116.710 139.721,116.579 140.135 C 116.446 140.555,116.125 140.735,115.509 140.735 C 114.926 140.735,114.629 140.888,114.629 141.185 C 114.629 141.525,114.262 141.635,113.128 141.635 C 111.995 141.635,111.628 141.745,111.628 142.086 C 111.628 142.420,111.275 142.536,110.249 142.536 C 109.123 142.536,108.842 142.646,108.714 143.136 C 108.584 143.633,108.305 143.736,107.092 143.736 C 105.989 143.736,105.626 143.847,105.626 144.186 C 105.626 144.551,105.143 144.636,103.076 144.636 C 101.009 144.636,100.525 144.721,100.525 145.086 C 100.525 145.467,99.800 145.536,95.799 145.536 L 91.073 145.536 91.223 187.172 L 91.373 228.807 95.955 228.890 C 99.464 228.954,100.568 228.883,100.665 228.590 C 100.734 228.379,100.837 226.654,100.893 224.756 L 100.995 221.305 99.005 223.296 C 96.725 225.577,96.014 225.916,94.959 225.224 C 93.575 224.317,93.956 223.573,97.819 219.648 C 100.847 216.571,101.368 215.908,101.120 215.444 C 100.687 214.635,100.741 208.456,101.185 208.012 C 101.681 207.517,108.829 207.508,108.994 208.003 C 109.058 208.196,126.002 191.451,146.647 170.793 C 174.977 142.444,184.353 133.233,184.880 133.233 C 185.403 133.233,190.701 138.353,206.066 153.707 C 222.721 170.350,226.498 173.986,226.255 173.139 C 225.597 170.842,225.879 161.529,226.623 161.007 C 227.498 160.395,239.331 160.302,239.532 160.906 C 239.653 161.270,314.653 86.451,315.569 85.052 L 316.048 84.321 311.249 84.321 C 306.335 84.321,305.990 84.244,305.734 83.087 C 305.655 82.733,305.464 82.667,305.026 82.841 M281.742 123.953 C 250.644 155.090,245.103 160.763,245.916 160.631 C 246.446 160.545,247.167 160.629,247.519 160.817 L 248.159 161.160 248.236 194.984 L 248.312 228.807 251.913 228.897 C 253.893 228.946,255.953 228.906,256.489 228.808 L 257.464 228.630 257.464 203.151 C 257.464 184.455,257.557 177.469,257.813 176.908 L 258.161 176.144 268.473 176.144 L 278.785 176.144 279.077 176.914 C 279.259 177.392,279.370 187.392,279.370 203.328 L 279.370 228.972 284.096 228.890 L 288.822 228.807 288.898 187.276 C 288.953 157.189,289.067 145.634,289.310 145.341 C 289.929 144.596,309.864 144.763,310.267 145.517 C 310.477 145.909,310.578 159.485,310.578 187.342 L 310.578 228.587 311.253 228.768 C 312.130 229.003,318.928 229.003,319.805 228.768 L 320.480 228.587 320.480 163.636 C 320.480 119.438,320.579 98.500,320.791 98.105 C 321.065 97.592,320.998 97.524,320.223 97.524 C 319.032 97.524,318.980 97.289,318.980 91.966 C 318.980 89.431,318.878 87.304,318.755 87.238 C 318.631 87.172,301.975 103.694,281.742 123.953 M230.832 92.984 C 239.351 94.403,246.062 102.760,246.062 111.951 C 246.062 116.030,245.448 118.253,243.134 122.567 C 240.579 127.330,232.493 131.718,226.707 131.483 C 217.026 131.088,209.909 125.331,207.678 116.088 C 205.945 108.911,208.416 102.069,214.683 96.697 C 216.059 95.517,216.646 95.176,219.691 93.787 C 222.272 92.610,226.679 92.293,230.832 92.984 M221.200 96.915 C 213.695 99.875,209.814 106.473,210.882 114.456 C 211.068 115.847,211.342 117.231,211.492 117.532 C 211.642 117.833,212.088 118.727,212.484 119.519 C 217.828 130.210,233.511 130.923,240.213 120.780 C 248.545 108.170,235.184 91.399,221.200 96.915 M227.382 98.914 C 227.765 99.017,228.057 99.328,228.057 99.635 C 228.057 100.527,228.393 101.125,228.893 101.125 C 229.152 101.125,229.779 101.260,230.286 101.425 C 230.793 101.590,231.766 101.861,232.449 102.028 C 233.918 102.386,234.225 103.086,233.537 104.508 C 232.719 106.199,232.628 106.250,231.360 105.742 C 230.730 105.490,229.763 105.327,229.211 105.380 L 228.207 105.476 228.119 107.472 C 228.023 109.652,228.548 110.388,230.560 110.893 C 235.785 112.204,235.498 120.076,230.173 121.526 C 228.330 122.028,228.130 122.236,228.004 123.785 L 227.907 124.981 226.557 124.981 L 225.206 124.981 225.056 123.631 L 224.906 122.281 223.406 122.073 C 219.477 121.528,218.492 120.699,218.914 118.289 C 219.132 117.048,219.649 116.841,221.090 117.418 C 224.160 118.647,225.056 118.220,225.056 115.532 L 225.056 113.470 223.631 112.783 C 220.244 111.150,218.534 108.763,218.938 106.235 C 219.045 105.570,219.249 105.026,219.393 105.026 C 219.537 105.026,219.655 104.845,219.655 104.624 C 219.655 103.953,221.978 102.025,223.024 101.828 C 224.297 101.588,225.056 100.912,225.056 100.019 C 225.056 99.560,225.297 99.209,225.731 99.034 C 226.576 98.695,226.567 98.695,227.382 98.914 M224.020 106.098 C 223.553 106.809,223.552 106.926,223.998 107.608 C 224.658 108.614,225.056 108.257,225.056 106.659 C 225.056 105.145,224.752 104.980,224.020 106.098 M228.190 115.340 C 227.851 116.689,228.143 117.791,228.807 117.674 C 230.055 117.456,230.247 115.853,229.114 115.111 C 228.398 114.642,228.363 114.651,228.190 115.340 M149.459 172.834 L 114.671 207.634 118.476 207.718 L 122.281 207.802 122.359 218.196 L 122.438 228.589 123.110 228.769 C 123.990 229.005,130.946 229.010,131.558 228.775 C 131.982 228.612,132.033 226.989,132.033 213.538 C 132.033 200.398,132.092 198.398,132.500 197.816 L 132.967 197.149 143.285 197.149 C 151.210 197.149,153.659 197.236,153.846 197.524 C 153.979 197.731,154.156 204.854,154.239 213.353 L 154.389 228.807 159.040 228.807 L 163.691 228.807 163.845 202.551 C 163.930 188.110,164.031 176.259,164.070 176.215 C 164.109 176.172,168.833 176.172,174.569 176.215 L 184.996 176.294 185.146 202.551 L 185.296 228.807 189.947 228.807 L 194.599 228.807 194.676 208.280 C 194.731 193.608,194.849 187.637,195.091 187.346 C 195.366 187.015,197.363 186.954,205.816 187.018 L 216.204 187.097 216.281 207.859 L 216.358 228.621 217.631 228.806 C 218.332 228.907,220.458 228.949,222.356 228.899 L 225.806 228.807 225.883 204.214 C 225.933 188.421,226.067 179.515,226.258 179.323 C 226.719 178.862,226.617 178.604,225.881 178.373 C 225.510 178.256,216.187 169.132,205.163 158.097 C 194.140 147.063,184.924 138.035,184.684 138.035 C 184.444 138.035,168.593 153.694,149.459 172.834 " stroke="none" fill="#5f86fb" fill-rule="evenodd"></path><path id="path1" d="M83.421 22.056 C 83.421 22.424,82.901 22.506,80.542 22.506 C 77.916 22.506,77.649 22.558,77.506 23.106 C 77.370 23.627,77.097 23.706,75.434 23.706 C 73.931 23.706,73.518 23.803,73.518 24.156 C 73.518 24.496,73.152 24.606,72.018 24.606 C 70.884 24.606,70.518 24.716,70.518 25.056 C 70.518 25.391,70.164 25.506,69.139 25.506 C 68.013 25.506,67.732 25.616,67.604 26.107 C 67.486 26.557,67.195 26.707,66.432 26.707 C 65.729 26.707,65.416 26.845,65.416 27.157 C 65.416 27.457,65.116 27.607,64.516 27.607 C 63.916 27.607,63.616 27.757,63.616 28.057 C 63.616 28.371,63.299 28.507,62.566 28.507 C 61.715 28.507,61.515 28.621,61.515 29.107 C 61.515 29.593,61.315 29.707,60.465 29.707 C 59.732 29.707,59.415 29.843,59.415 30.158 C 59.415 30.458,59.115 30.608,58.515 30.608 C 57.948 30.608,57.614 30.762,57.614 31.023 C 57.614 31.251,57.344 31.509,57.014 31.595 C 56.684 31.681,56.414 31.967,56.414 32.230 C 56.414 32.561,56.138 32.708,55.514 32.708 C 54.914 32.708,54.614 32.858,54.614 33.158 C 54.614 33.408,54.347 33.608,54.014 33.608 C 53.680 33.608,53.413 33.808,53.413 34.059 C 53.413 34.306,53.211 34.509,52.963 34.509 C 52.713 34.509,52.513 34.775,52.513 35.109 C 52.513 35.576,52.313 35.709,51.613 35.709 C 51.013 35.709,50.713 35.859,50.713 36.159 C 50.713 36.407,50.506 36.609,50.253 36.609 C 50.000 36.609,49.716 36.812,49.621 37.059 C 49.526 37.307,49.260 37.509,49.030 37.509 C 48.800 37.509,48.612 37.779,48.612 38.110 C 48.612 38.443,48.412 38.710,48.162 38.710 C 47.914 38.710,47.712 38.912,47.712 39.160 C 47.712 39.410,47.445 39.610,47.112 39.610 C 46.782 39.610,46.512 39.798,46.512 40.028 C 46.512 40.258,46.309 40.524,46.062 40.619 C 45.814 40.714,45.611 40.998,45.611 41.251 C 45.611 41.504,45.409 41.710,45.161 41.710 C 44.861 41.710,44.711 42.011,44.711 42.611 C 44.711 43.311,44.578 43.511,44.111 43.511 C 43.711 43.511,43.511 43.711,43.511 44.111 C 43.511 44.444,43.311 44.711,43.061 44.711 C 42.813 44.711,42.611 44.914,42.611 45.161 C 42.611 45.409,42.408 45.611,42.161 45.611 C 41.913 45.611,41.710 45.781,41.710 45.989 C 41.710 46.197,41.440 46.536,41.110 46.742 C 40.771 46.954,40.510 47.442,40.510 47.865 C 40.510 48.329,40.340 48.612,40.060 48.612 C 39.812 48.612,39.610 48.800,39.610 49.030 C 39.610 49.260,39.407 49.526,39.160 49.621 C 38.897 49.722,38.710 50.172,38.710 50.703 C 38.710 51.413,38.578 51.613,38.110 51.613 C 37.624 51.613,37.509 51.813,37.509 52.663 C 37.509 53.397,37.374 53.713,37.059 53.713 C 36.759 53.713,36.609 54.014,36.609 54.614 C 36.609 55.214,36.459 55.514,36.159 55.514 C 35.845 55.514,35.709 55.831,35.709 56.564 C 35.709 57.414,35.595 57.614,35.109 57.614 C 34.623 57.614,34.509 57.814,34.509 58.665 C 34.509 59.398,34.373 59.715,34.059 59.715 C 33.718 59.715,33.608 60.082,33.608 61.215 C 33.608 62.349,33.498 62.716,33.158 62.716 C 32.820 62.716,32.708 63.079,32.708 64.181 C 32.708 65.394,32.605 65.673,32.108 65.803 C 31.591 65.939,31.508 66.213,31.508 67.789 C 31.508 69.214,31.409 69.617,31.058 69.617 C 30.680 69.617,30.608 70.268,30.608 73.668 C 30.608 77.069,30.535 77.719,30.158 77.719 C 29.776 77.719,29.707 78.470,29.707 82.671 C 29.707 86.872,29.776 87.622,30.158 87.622 C 30.535 87.622,30.608 88.255,30.608 91.523 C 30.608 94.790,30.681 95.424,31.058 95.424 C 31.412 95.424,31.508 95.844,31.508 97.402 C 31.508 99.129,31.584 99.401,32.108 99.538 C 32.605 99.668,32.708 99.947,32.708 101.160 C 32.708 102.263,32.820 102.626,33.158 102.626 C 33.492 102.626,33.608 102.977,33.608 103.985 C 33.608 104.917,33.750 105.400,34.059 105.518 C 34.315 105.616,34.509 106.064,34.509 106.559 C 34.509 107.227,34.647 107.427,35.109 107.427 C 35.629 107.427,35.709 107.627,35.709 108.927 C 35.709 110.061,35.819 110.428,36.159 110.428 C 36.460 110.428,36.609 110.729,36.609 111.337 C 36.609 111.869,36.796 112.319,37.059 112.420 C 37.307 112.515,37.509 112.780,37.509 113.010 C 37.509 113.240,37.779 113.428,38.110 113.428 C 38.595 113.428,38.710 113.628,38.710 114.479 C 38.710 115.212,38.845 115.529,39.160 115.529 C 39.460 115.529,39.610 115.829,39.610 116.429 C 39.610 117.029,39.760 117.329,40.060 117.329 C 40.310 117.329,40.510 117.596,40.510 117.929 C 40.510 118.330,40.710 118.530,41.110 118.530 C 41.444 118.530,41.710 118.730,41.710 118.980 C 41.710 119.227,41.913 119.430,42.161 119.430 C 42.462 119.430,42.611 119.731,42.611 120.340 C 42.611 120.871,42.798 121.321,43.061 121.422 C 43.308 121.517,43.511 121.783,43.511 122.013 C 43.511 122.243,43.781 122.431,44.111 122.431 C 44.511 122.431,44.711 122.631,44.711 123.031 C 44.711 123.364,44.911 123.631,45.161 123.631 C 45.409 123.631,45.611 123.833,45.611 124.081 C 45.611 124.329,45.814 124.531,46.062 124.531 C 46.309 124.531,46.512 124.734,46.512 124.981 C 46.512 125.231,46.778 125.431,47.112 125.431 C 47.512 125.431,47.712 125.631,47.712 126.032 C 47.712 126.365,47.912 126.632,48.162 126.632 C 48.410 126.632,48.612 126.834,48.612 127.082 C 48.612 127.329,48.815 127.532,49.062 127.532 C 49.310 127.532,49.512 127.734,49.512 127.982 C 49.512 128.230,49.715 128.432,49.962 128.432 C 50.210 128.432,50.413 128.626,50.413 128.862 C 50.413 129.098,50.683 129.378,51.013 129.482 C 51.343 129.587,51.613 129.866,51.613 130.103 C 51.613 130.339,51.801 130.533,52.031 130.533 C 52.261 130.533,52.527 130.735,52.622 130.983 C 52.723 131.246,53.172 131.433,53.704 131.433 C 54.414 131.433,54.614 131.565,54.614 132.033 C 54.614 132.363,54.802 132.633,55.032 132.633 C 55.262 132.633,55.527 132.836,55.622 133.083 C 55.723 133.346,56.173 133.533,56.705 133.533 C 57.313 133.533,57.614 133.682,57.614 133.983 C 57.614 134.231,57.749 134.434,57.914 134.434 C 58.080 134.434,58.485 134.704,58.815 135.034 C 59.145 135.364,59.685 135.634,60.015 135.634 C 60.348 135.634,60.615 135.834,60.615 136.084 C 60.615 136.384,60.915 136.534,61.515 136.534 C 62.116 136.534,62.416 136.684,62.416 136.984 C 62.416 137.296,62.728 137.434,63.431 137.434 C 64.194 137.434,64.485 137.584,64.603 138.035 C 64.717 138.472,65.012 138.635,65.688 138.635 C 66.313 138.635,66.617 138.782,66.617 139.085 C 66.617 139.425,66.983 139.535,68.117 139.535 C 69.251 139.535,69.617 139.645,69.617 139.985 C 69.617 140.283,69.916 140.435,70.503 140.435 C 71.019 140.435,71.505 140.645,71.670 140.939 C 71.871 141.297,72.480 141.480,73.785 141.575 C 75.080 141.669,75.619 141.829,75.619 142.122 C 75.619 142.439,76.174 142.536,77.987 142.536 C 79.816 142.536,80.395 142.638,80.529 142.986 C 80.790 143.666,101.425 143.666,101.425 142.986 C 101.425 142.623,101.893 142.536,103.835 142.536 C 105.701 142.536,106.284 142.434,106.418 142.086 C 106.536 141.778,107.017 141.635,107.937 141.635 C 109.031 141.635,109.313 141.523,109.440 141.035 C 109.570 140.538,109.850 140.435,111.063 140.435 C 112.165 140.435,112.528 140.324,112.528 139.985 C 112.528 139.651,112.879 139.535,113.888 139.535 C 114.820 139.535,115.302 139.393,115.420 139.085 C 115.521 138.824,115.969 138.635,116.489 138.635 C 117.133 138.635,117.430 138.466,117.542 138.035 C 117.654 137.609,117.952 137.434,118.565 137.434 C 119.134 137.434,119.430 137.280,119.430 136.984 C 119.430 136.683,119.731 136.534,120.340 136.534 C 120.854 136.534,121.321 136.347,121.415 136.102 C 121.506 135.865,121.963 135.587,122.431 135.484 C 122.898 135.381,123.355 135.103,123.446 134.865 C 123.538 134.628,123.819 134.434,124.072 134.434 C 124.324 134.434,124.531 134.231,124.531 133.983 C 124.531 133.683,124.831 133.533,125.431 133.533 C 125.998 133.533,126.332 133.379,126.332 133.118 C 126.332 132.890,126.602 132.633,126.932 132.546 C 127.262 132.460,127.532 132.174,127.532 131.911 C 127.532 131.648,127.734 131.433,127.982 131.433 C 128.230 131.433,128.432 131.230,128.432 130.983 C 128.432 130.693,128.726 130.531,129.257 130.527 C 130.076 130.522,131.433 129.423,131.433 128.765 C 131.433 128.582,131.640 128.432,131.892 128.432 C 132.145 128.432,132.430 128.230,132.525 127.982 C 132.620 127.734,132.885 127.532,133.115 127.532 C 133.345 127.532,133.533 127.344,133.533 127.114 C 133.533 126.884,133.736 126.618,133.983 126.523 C 134.231 126.428,134.434 126.144,134.434 125.891 C 134.434 125.638,134.640 125.431,134.893 125.431 C 135.146 125.431,135.430 125.229,135.525 124.981 C 135.620 124.734,135.886 124.531,136.116 124.531 C 136.346 124.531,136.534 124.343,136.534 124.113 C 136.534 123.883,136.737 123.617,136.984 123.522 C 137.232 123.427,137.434 123.143,137.434 122.890 C 137.434 122.637,137.626 122.431,137.861 122.431 C 138.095 122.431,138.376 122.026,138.485 121.530 C 138.593 121.035,138.874 120.630,139.109 120.630 C 139.343 120.630,139.535 120.360,139.535 120.030 C 139.535 119.697,139.735 119.430,139.985 119.430 C 140.233 119.430,140.435 119.227,140.435 118.980 C 140.435 118.732,140.632 118.530,140.872 118.530 C 141.133 118.530,141.387 118.108,141.505 117.479 C 141.618 116.878,141.880 116.429,142.119 116.429 C 142.348 116.429,142.536 116.241,142.536 116.011 C 142.536 115.781,142.738 115.515,142.986 115.420 C 143.249 115.319,143.436 114.870,143.436 114.338 C 143.436 113.628,143.568 113.428,144.036 113.428 C 144.498 113.428,144.636 113.228,144.636 112.560 C 144.636 112.065,144.830 111.618,145.086 111.519 C 145.349 111.418,145.536 110.969,145.536 110.437 C 145.536 109.829,145.685 109.527,145.986 109.527 C 146.298 109.527,146.437 109.215,146.437 108.512 C 146.437 107.749,146.586 107.458,147.037 107.340 C 147.468 107.227,147.637 106.931,147.637 106.287 C 147.637 105.767,147.826 105.318,148.087 105.218 C 148.381 105.105,148.537 104.637,148.537 103.867 C 148.537 103.098,148.693 102.630,148.987 102.517 C 149.324 102.388,149.437 101.850,149.437 100.385 C 149.437 98.625,149.499 98.425,150.038 98.425 C 150.575 98.425,150.638 98.225,150.638 96.506 C 150.638 95.078,150.753 94.544,151.088 94.415 C 151.477 94.266,151.538 92.685,151.538 82.717 C 151.538 72.838,151.474 71.138,151.088 70.818 C 150.780 70.562,150.638 69.879,150.638 68.652 C 150.638 67.113,150.553 66.838,150.038 66.704 C 149.541 66.574,149.437 66.294,149.437 65.081 C 149.437 63.979,149.326 63.616,148.987 63.616 C 148.647 63.616,148.537 63.249,148.537 62.116 C 148.537 60.982,148.427 60.615,148.087 60.615 C 147.797 60.615,147.635 60.322,147.633 59.790 C 147.626 58.505,147.307 57.614,146.852 57.614 C 146.577 57.614,146.437 57.258,146.437 56.564 C 146.437 55.831,146.301 55.514,145.986 55.514 C 145.686 55.514,145.536 55.214,145.536 54.614 C 145.536 54.046,145.383 53.713,145.120 53.713 C 144.881 53.713,144.619 53.265,144.506 52.663 C 144.388 52.034,144.134 51.613,143.872 51.613 C 143.632 51.613,143.436 51.410,143.436 51.163 C 143.436 50.915,143.233 50.713,142.986 50.713 C 142.671 50.713,142.536 50.396,142.536 49.662 C 142.536 48.929,142.400 48.612,142.086 48.612 C 141.838 48.612,141.635 48.410,141.635 48.162 C 141.635 47.912,141.369 47.712,141.035 47.712 C 140.549 47.712,140.435 47.512,140.435 46.662 C 140.435 45.928,140.299 45.611,139.985 45.611 C 139.737 45.611,139.535 45.409,139.535 45.161 C 139.535 44.914,139.348 44.711,139.120 44.711 C 138.891 44.711,138.634 44.441,138.548 44.111 C 138.461 43.781,138.176 43.511,137.913 43.511 C 137.650 43.511,137.434 43.308,137.434 43.061 C 137.434 42.813,137.232 42.611,136.984 42.611 C 136.705 42.611,136.534 42.328,136.534 41.863 C 136.534 41.440,136.273 40.952,135.934 40.741 C 135.604 40.534,135.334 40.196,135.334 39.988 C 135.334 39.780,135.131 39.610,134.884 39.610 C 134.636 39.610,134.434 39.407,134.434 39.160 C 134.434 38.912,134.264 38.710,134.056 38.710 C 133.848 38.710,133.509 38.440,133.303 38.110 C 133.091 37.770,132.603 37.509,132.181 37.509 C 131.716 37.509,131.433 37.339,131.433 37.059 C 131.433 36.812,131.230 36.609,130.983 36.609 C 130.735 36.609,130.533 36.407,130.533 36.159 C 130.533 35.911,130.330 35.709,130.083 35.709 C 129.835 35.709,129.632 35.494,129.632 35.231 C 129.632 34.968,129.362 34.682,129.032 34.596 C 128.702 34.509,128.432 34.252,128.432 34.024 C 128.432 33.795,128.244 33.608,128.014 33.608 C 127.784 33.608,127.518 33.406,127.423 33.158 C 127.322 32.895,126.873 32.708,126.341 32.708 C 125.631 32.708,125.431 32.576,125.431 32.108 C 125.431 31.778,125.243 31.508,125.013 31.508 C 124.783 31.508,124.518 31.305,124.423 31.058 C 124.322 30.795,123.872 30.608,123.340 30.608 C 122.732 30.608,122.431 30.459,122.431 30.158 C 122.431 29.862,122.134 29.707,121.565 29.707 C 120.953 29.707,120.654 29.532,120.543 29.107 C 120.429 28.670,120.134 28.507,119.458 28.507 C 118.833 28.507,118.530 28.360,118.530 28.057 C 118.530 27.743,118.213 27.607,117.479 27.607 C 116.746 27.607,116.429 27.471,116.429 27.157 C 116.429 26.859,116.131 26.707,115.549 26.707 C 114.933 26.707,114.612 26.527,114.479 26.107 C 114.326 25.625,114.025 25.506,112.958 25.506 C 111.976 25.506,111.628 25.389,111.628 25.056 C 111.628 24.717,111.265 24.606,110.160 24.606 C 109.131 24.606,108.640 24.471,108.519 24.156 C 108.390 23.820,107.851 23.706,106.386 23.706 C 104.626 23.706,104.426 23.645,104.426 23.106 C 104.426 22.546,104.226 22.506,101.425 22.506 C 98.958 22.506,98.425 22.426,98.425 22.056 C 98.425 21.667,97.391 21.605,90.923 21.605 C 84.454 21.605,83.421 21.667,83.421 22.056 M97.974 26.103 C 103.760 27.076,107.241 27.883,108.398 28.520 C 108.685 28.678,109.159 28.807,109.453 28.807 C 109.746 28.807,110.490 29.077,111.106 29.407 C 111.722 29.737,112.359 30.008,112.521 30.008 C 112.810 30.008,117.337 32.132,118.230 32.687 C 118.477 32.840,119.557 33.477,120.630 34.101 C 121.703 34.725,122.716 35.343,122.881 35.474 C 123.046 35.605,124.250 36.518,125.557 37.503 C 129.260 40.294,134.608 45.701,136.534 48.603 C 136.782 48.976,137.399 49.840,137.906 50.522 C 139.185 52.244,141.903 56.930,142.117 57.784 C 142.215 58.172,142.484 58.647,142.715 58.839 C 142.946 59.031,143.136 59.357,143.136 59.563 C 143.136 59.770,143.415 60.597,143.755 61.402 C 144.096 62.207,144.489 63.136,144.629 63.466 C 144.938 64.195,145.931 67.612,146.548 70.068 C 148.327 77.150,148.334 88.481,146.565 95.274 C 145.716 98.530,144.898 101.267,144.615 101.796 C 144.462 102.083,144.336 102.473,144.336 102.664 C 144.336 102.999,143.339 105.311,142.799 106.227 C 142.654 106.474,142.397 107.014,142.230 107.427 C 141.762 108.580,140.865 110.208,138.813 113.626 C 137.994 114.991,136.034 117.592,134.195 119.753 C 133.344 120.753,128.732 125.305,126.932 126.921 C 124.336 129.252,118.325 132.918,113.639 135.028 C 111.113 136.166,109.392 136.808,108.027 137.125 C 107.449 137.259,106.572 137.507,106.077 137.676 C 98.368 140.316,83.678 140.319,75.769 137.682 C 75.274 137.517,74.464 137.270,73.968 137.134 C 69.291 135.849,60.150 131.182,56.919 128.430 C 55.829 127.501,55.620 127.332,53.851 125.954 C 52.122 124.606,48.746 120.930,45.980 117.383 C 44.891 115.987,43.806 114.384,41.780 111.178 C 39.771 107.998,37.148 101.440,35.598 95.724 C 33.758 88.938,33.762 76.340,35.607 69.617 C 36.430 66.618,37.853 62.287,38.465 60.915 C 39.338 58.961,41.384 54.895,41.963 53.965 C 42.237 53.526,42.857 52.513,43.341 51.714 C 46.380 46.704,57.900 35.109,59.839 35.109 C 59.921 35.109,60.452 34.794,61.018 34.410 C 61.959 33.771,68.527 30.476,70.668 29.568 C 71.163 29.358,72.581 28.886,73.818 28.519 C 75.056 28.152,76.407 27.735,76.819 27.592 C 80.673 26.258,93.520 25.353,97.974 26.103 M89.757 31.621 C 88.780 32.661,88.880 44.092,89.872 44.837 C 90.467 45.283,91.394 45.206,91.973 44.662 C 92.611 44.065,92.351 31.817,91.691 31.334 C 90.884 30.744,90.532 30.796,89.757 31.621 M56.668 47.913 C 56.051 48.077,55.702 49.347,56.083 50.044 C 56.998 51.715,65.050 59.115,65.954 59.115 C 68.791 59.115,67.899 57.211,62.599 51.956 C 58.449 47.842,58.025 47.553,56.668 47.913 M118.891 52.620 C 113.964 57.612,113.551 58.458,115.770 59.014 C 116.929 59.305,126.174 49.953,125.782 48.885 C 125.063 46.929,123.871 47.575,118.891 52.620 M89.775 53.808 C 89.124 54.500,89.122 54.547,89.122 68.269 L 89.122 82.036 80.870 90.323 C 72.794 98.433,72.294 99.058,72.929 100.245 C 73.752 101.782,74.446 101.252,83.573 92.121 L 92.273 83.417 92.359 69.391 C 92.449 54.827,92.428 54.361,91.651 53.584 C 91.004 52.938,90.540 52.993,89.775 53.808 M151.738 64.716 C 151.311 65.144,151.522 67.517,151.988 67.517 C 152.255 67.517,152.438 67.792,152.438 68.192 L 152.438 68.867 238.485 68.867 L 324.531 68.867 326.482 69.829 C 329.351 71.243,332.062 73.976,333.415 76.819 C 334.984 80.112,334.884 74.321,334.884 162.019 L 334.884 243.055 288.225 243.133 L 241.567 243.211 236.534 248.237 L 231.501 253.263 205.851 253.263 L 180.201 253.263 175.169 248.237 L 170.136 243.211 123.553 243.061 L 76.969 242.911 76.969 193.773 C 76.969 166.748,76.868 144.636,76.744 144.636 C 76.620 144.636,76.519 144.434,76.519 144.186 C 76.519 143.832,76.102 143.736,74.569 143.736 L 72.618 143.736 72.618 193.248 L 72.618 242.761 57.164 242.761 L 41.710 242.761 41.710 250.113 C 41.710 256.447,41.773 257.464,42.161 257.464 C 42.408 257.464,42.611 257.667,42.611 257.914 C 42.611 258.162,42.797 258.365,43.026 258.365 C 43.254 258.365,43.512 258.635,43.598 258.965 C 43.684 259.295,43.970 259.565,44.233 259.565 C 44.496 259.565,44.711 259.767,44.711 260.015 C 44.711 260.263,44.914 260.465,45.161 260.465 C 45.409 260.465,45.611 260.668,45.611 260.915 C 45.611 261.163,45.798 261.365,46.027 261.365 C 46.255 261.365,46.512 261.635,46.599 261.965 C 46.685 262.296,46.971 262.566,47.234 262.566 C 47.497 262.566,47.712 262.768,47.712 263.016 C 47.712 263.263,47.914 263.466,48.162 263.466 C 48.410 263.466,48.612 263.668,48.612 263.916 C 48.612 264.164,48.799 264.366,49.027 264.366 C 49.256 264.366,49.513 264.636,49.599 264.966 C 49.686 265.296,49.971 265.566,50.234 265.566 C 50.497 265.566,50.713 265.769,50.713 266.017 C 50.713 266.264,50.915 266.467,51.163 266.467 C 51.410 266.467,51.613 266.669,51.613 266.917 C 51.613 267.164,51.800 267.367,52.028 267.367 C 52.256 267.367,52.514 267.637,52.600 267.967 C 52.686 268.297,52.972 268.567,53.235 268.567 C 53.498 268.567,53.713 268.770,53.713 269.017 C 53.713 269.265,53.916 269.467,54.164 269.467 C 54.411 269.467,54.614 269.670,54.614 269.917 C 54.614 270.165,54.800 270.368,55.029 270.368 C 55.257 270.368,55.515 270.638,55.601 270.968 C 55.687 271.298,55.973 271.568,56.236 271.568 C 56.499 271.568,56.714 271.770,56.714 272.018 C 56.714 272.266,56.917 272.468,57.164 272.468 C 57.412 272.468,57.614 272.671,57.614 272.918 C 57.614 273.166,57.801 273.368,58.030 273.368 C 58.258 273.368,58.515 273.638,58.602 273.968 C 58.688 274.299,58.974 274.569,59.237 274.569 C 59.500 274.569,59.715 274.771,59.715 275.019 C 59.715 275.266,59.917 275.469,60.165 275.469 C 60.413 275.469,60.615 275.671,60.615 275.919 C 60.615 276.167,60.802 276.369,61.030 276.369 C 61.259 276.369,61.516 276.639,61.602 276.969 C 61.689 277.299,61.974 277.569,62.237 277.569 C 62.500 277.569,62.716 277.772,62.716 278.020 C 62.716 278.419,78.786 278.470,205.551 278.470 C 332.316 278.470,348.387 278.419,348.387 278.020 C 348.387 277.769,348.654 277.569,348.987 277.569 C 349.321 277.569,349.587 277.369,349.587 277.119 C 349.587 276.872,349.790 276.669,350.038 276.669 C 350.288 276.669,350.488 276.402,350.488 276.069 C 350.488 275.736,350.688 275.469,350.938 275.469 C 351.185 275.469,351.388 275.266,351.388 275.019 C 351.388 274.769,351.655 274.569,351.988 274.569 C 352.321 274.569,352.588 274.369,352.588 274.119 C 352.588 273.871,352.791 273.668,353.038 273.668 C 353.288 273.668,353.488 273.402,353.488 273.068 C 353.488 272.735,353.688 272.468,353.938 272.468 C 354.186 272.468,354.389 272.266,354.389 272.018 C 354.389 271.768,354.655 271.568,354.989 271.568 C 355.322 271.568,355.589 271.368,355.589 271.118 C 355.589 270.870,355.791 270.668,356.039 270.668 C 356.289 270.668,356.489 270.401,356.489 270.068 C 356.489 269.734,356.689 269.467,356.939 269.467 C 357.187 269.467,357.389 269.265,357.389 269.017 C 357.389 268.767,357.656 268.567,357.989 268.567 C 358.323 268.567,358.590 268.367,358.590 268.117 C 358.590 267.869,358.792 267.667,359.040 267.667 C 359.290 267.667,359.490 267.400,359.490 267.067 C 359.490 266.733,359.690 266.467,359.940 266.467 C 360.188 266.467,360.390 266.264,360.390 266.017 C 360.390 265.766,360.657 265.566,360.990 265.566 C 361.324 265.566,361.590 265.366,361.590 265.116 C 361.590 264.869,361.793 264.666,362.041 264.666 C 362.291 264.666,362.491 264.399,362.491 264.066 C 362.491 263.733,362.691 263.466,362.941 263.466 C 363.188 263.466,363.391 263.263,363.391 263.016 C 363.391 262.766,363.658 262.566,363.991 262.566 C 364.324 262.566,364.591 262.366,364.591 262.116 C 364.591 261.868,364.794 261.665,365.041 261.665 C 365.291 261.665,365.491 261.399,365.491 261.065 C 365.491 260.732,365.691 260.465,365.941 260.465 C 366.189 260.465,366.392 260.263,366.392 260.015 C 366.392 259.765,366.658 259.565,366.992 259.565 C 367.325 259.565,367.592 259.365,367.592 259.115 C 367.592 258.867,367.794 258.665,368.042 258.665 C 368.292 258.665,368.492 258.398,368.492 258.065 C 368.492 257.731,368.692 257.464,368.942 257.464 C 369.190 257.464,369.392 257.278,369.392 257.049 C 369.392 256.821,369.662 256.564,369.992 256.477 C 370.600 256.318,370.942 245.447,370.404 243.436 L 370.223 242.761 354.354 242.761 L 338.485 242.761 338.485 159.640 C 338.485 85.955,338.434 76.519,338.035 76.519 C 337.734 76.519,337.584 76.219,337.584 75.619 C 337.584 74.919,337.451 74.719,336.984 74.719 C 336.498 74.719,336.384 74.519,336.384 73.668 C 336.384 72.935,336.248 72.618,335.934 72.618 C 335.649 72.618,335.484 72.331,335.484 71.835 C 335.484 71.016,334.404 69.632,333.758 69.623 C 333.552 69.620,333.383 69.415,333.383 69.167 C 333.383 68.920,333.197 68.717,332.968 68.717 C 332.740 68.717,332.482 68.447,332.396 68.117 C 332.282 67.680,331.987 67.517,331.311 67.517 C 330.686 67.517,330.383 67.370,330.383 67.067 C 330.383 66.767,330.083 66.617,329.482 66.617 C 328.882 66.617,328.582 66.467,328.582 66.167 C 328.582 65.828,328.219 65.716,327.117 65.716 C 325.904 65.716,325.624 65.613,325.494 65.116 C 325.336 64.510,152.342 64.112,151.738 64.716 M39.627 81.671 C 38.898 82.454,38.863 82.805,39.435 83.589 C 39.829 84.128,40.328 84.178,46.112 84.261 C 53.405 84.366,53.731 84.278,53.250 82.330 L 52.963 81.170 46.604 81.089 C 40.380 81.010,40.231 81.023,39.627 81.671 M129.434 81.311 C 128.619 81.651,128.298 82.609,128.729 83.415 C 129.232 84.355,141.781 84.223,142.409 83.271 C 142.749 82.757,142.724 82.563,142.238 81.920 L 141.671 81.170 135.877 81.105 C 132.690 81.069,129.791 81.162,129.434 81.311 M306.075 81.775 C 305.187 84.110,305.617 84.321,311.272 84.321 L 316.048 84.321 315.568 85.053 C 315.305 85.456,298.241 102.661,277.649 123.286 C 257.058 143.912,237.247 163.770,233.625 167.416 C 230.003 171.061,226.900 174.044,226.728 174.044 C 226.557 174.044,217.228 164.861,205.997 153.638 C 190.541 138.194,185.406 133.233,184.871 133.233 C 183.832 133.233,94.224 222.978,94.224 224.019 C 94.224 224.908,95.442 225.786,96.298 225.515 C 96.630 225.409,116.562 205.683,140.591 181.679 C 164.620 157.674,184.469 138.035,184.700 138.035 C 184.931 138.035,194.148 147.073,205.183 158.120 C 218.659 171.611,225.516 178.273,226.072 178.413 C 227.044 178.657,224.821 180.831,282.252 123.431 C 302.260 103.434,318.709 87.151,318.805 87.247 C 318.901 87.343,318.980 89.481,318.980 91.998 C 318.980 94.516,319.062 96.789,319.162 97.050 C 319.380 97.618,321.088 97.697,321.620 97.164 C 322.065 96.720,322.127 82.317,321.687 81.620 C 321.449 81.244,320.174 81.156,313.888 81.081 L 306.373 80.991 306.075 81.775 M223.142 92.879 C 221.842 93.106,220.289 93.515,219.691 93.787 C 216.646 95.176,216.059 95.517,214.683 96.697 C 200.312 109.016,207.812 130.713,226.707 131.483 C 232.493 131.718,240.579 127.330,243.134 122.567 C 245.448 118.253,246.062 116.030,246.062 111.951 C 246.062 99.700,235.310 90.754,223.142 92.879 M230.982 96.448 C 245.410 101.538,247.061 119.357,233.758 126.411 C 226.411 130.307,216.227 127.009,212.484 119.519 C 212.088 118.727,211.642 117.833,211.492 117.532 C 209.732 113.989,210.911 105.975,213.713 102.440 C 217.862 97.208,225.562 94.535,230.982 96.448 M60.418 110.806 C 55.711 115.488,55.279 116.151,56.285 117.158 C 57.270 118.143,57.940 117.710,62.619 113.066 C 67.161 108.557,67.544 107.999,66.906 106.807 C 66.173 105.438,65.231 106.019,60.418 110.806 M115.090 106.815 C 114.176 107.824,114.752 108.702,119.320 113.253 C 123.731 117.647,124.081 117.891,125.151 117.319 C 126.578 116.555,125.973 115.576,121.116 110.782 C 116.339 106.067,115.980 105.831,115.090 106.815 M89.919 120.879 C 89.492 121.351,89.422 122.265,89.422 127.420 C 89.422 133.881,89.481 134.134,90.990 134.134 C 92.249 134.134,92.423 133.295,92.423 127.232 C 92.423 120.516,91.763 118.841,89.919 120.879 M173.682 251.163 L 178.815 256.264 205.801 256.264 L 232.786 256.264 237.548 251.501 C 240.168 248.882,242.606 246.586,242.966 246.400 C 244.139 245.795,365.676 245.929,365.909 246.536 C 366.010 246.797,366.092 248.653,366.092 250.661 L 366.092 254.310 356.116 264.289 L 346.140 274.269 205.789 274.269 L 65.439 274.269 55.682 264.509 C 50.315 259.141,45.787 254.491,45.618 254.176 C 45.095 253.199,45.227 247.089,45.783 246.533 C 46.208 246.107,52.213 246.062,107.402 246.062 L 168.550 246.062 173.682 251.163 " stroke="none" fill="#495263" fill-rule="evenodd"></path><path id="path2" d="M91.223 28.507 C 91.223 30.040,91.329 30.608,91.616 30.608 C 93.128 30.608,93.323 31.463,93.323 38.100 C 93.323 44.716,93.379 44.429,91.856 45.683 C 91.288 46.152,91.223 46.517,91.223 49.234 L 91.223 52.263 92.273 53.283 L 93.323 54.303 93.323 68.883 L 93.323 83.463 84.355 92.444 C 75.673 101.138,75.349 101.425,74.221 101.425 C 72.476 101.425,68.117 105.790,68.117 107.537 C 68.117 109.291,59.126 118.294,57.386 118.282 C 56.255 118.274,51.913 121.949,51.913 122.915 C 51.913 123.309,54.462 125.609,57.164 127.654 C 58.155 128.403,59.106 129.134,59.279 129.279 C 59.451 129.423,59.721 129.598,59.879 129.667 C 60.739 130.043,62.416 131.230,62.416 131.462 C 62.416 131.611,62.624 131.733,62.879 131.733 C 63.133 131.733,64.217 132.206,65.287 132.783 C 66.357 133.361,67.417 133.833,67.642 133.833 C 67.868 133.833,68.123 134.017,68.209 134.241 C 68.295 134.465,68.917 134.737,69.592 134.845 C 70.266 134.953,70.818 135.174,70.818 135.337 C 70.818 135.500,71.161 135.634,71.580 135.634 C 71.999 135.634,72.871 135.904,73.518 136.234 C 74.165 136.564,75.096 136.834,75.586 136.834 C 76.075 136.834,76.656 137.014,76.876 137.234 C 77.096 137.454,78.202 137.721,79.333 137.826 C 80.464 137.932,81.593 138.187,81.841 138.393 C 82.522 138.958,99.360 138.928,100.044 138.361 C 100.313 138.137,101.476 137.886,102.627 137.804 C 103.865 137.715,104.858 137.487,105.060 137.244 C 105.247 137.019,105.856 136.834,106.414 136.834 C 106.972 136.834,107.933 136.564,108.549 136.234 C 109.165 135.904,109.941 135.630,110.273 135.624 C 110.606 135.619,111.140 135.417,111.460 135.174 C 111.781 134.932,112.359 134.734,112.745 134.734 C 113.131 134.734,113.520 134.544,113.609 134.313 C 113.697 134.082,114.220 133.808,114.769 133.705 C 115.319 133.602,115.934 133.319,116.136 133.075 C 116.337 132.832,116.756 132.633,117.066 132.633 C 117.376 132.633,117.629 132.511,117.629 132.362 C 117.629 132.214,118.001 131.939,118.455 131.753 C 119.467 131.337,120.400 130.797,121.080 130.233 C 121.577 129.820,122.444 129.277,123.287 128.850 C 123.511 128.736,124.186 128.192,124.788 127.639 C 125.389 127.087,125.987 126.634,126.117 126.633 C 126.246 126.632,126.748 126.227,127.232 125.731 C 127.716 125.236,128.166 124.831,128.233 124.831 C 128.366 124.831,131.065 122.151,133.308 119.790 C 134.092 118.965,134.734 118.142,134.734 117.960 C 134.734 117.778,134.846 117.629,134.983 117.629 C 135.120 117.629,135.670 116.954,136.205 116.129 C 136.740 115.304,137.288 114.629,137.423 114.629 C 137.559 114.629,137.754 114.291,137.858 113.878 C 137.961 113.466,138.178 113.128,138.340 113.128 C 138.502 113.128,138.635 112.935,138.635 112.700 C 138.635 112.464,138.837 112.069,139.084 111.822 C 139.331 111.575,139.668 111.059,139.833 110.675 C 139.998 110.291,140.269 109.741,140.434 109.452 C 140.600 109.164,140.871 108.691,141.037 108.402 C 141.203 108.113,141.413 107.674,141.502 107.427 C 141.592 107.179,141.929 106.477,142.250 105.867 C 142.572 105.257,142.836 104.564,142.836 104.328 C 142.836 104.092,143.038 103.731,143.286 103.526 C 143.533 103.320,143.736 102.713,143.736 102.176 C 143.736 101.638,143.938 101.031,144.186 100.825 C 144.434 100.620,144.639 100.097,144.643 99.663 C 144.646 99.230,144.916 98.286,145.243 97.567 C 145.569 96.847,145.837 95.767,145.838 95.166 C 145.839 94.565,146.062 93.668,146.334 93.173 C 147.090 91.793,147.101 73.830,146.346 72.408 C 146.065 71.879,145.836 70.783,145.836 69.969 C 145.836 69.030,145.674 68.356,145.392 68.122 C 145.148 67.919,144.861 67.095,144.754 66.290 C 144.648 65.485,144.375 64.673,144.148 64.485 C 143.921 64.296,143.736 63.703,143.736 63.166 C 143.736 62.629,143.550 62.034,143.322 61.845 C 143.094 61.657,142.826 61.092,142.726 60.591 C 142.626 60.090,142.339 59.476,142.090 59.226 C 141.840 58.976,141.635 58.528,141.635 58.230 C 141.635 57.932,141.433 57.520,141.185 57.314 C 140.938 57.109,140.735 56.704,140.735 56.414 C 140.735 56.124,140.533 55.719,140.285 55.514 C 140.038 55.308,139.835 55.020,139.835 54.874 C 139.835 54.727,139.362 53.935,138.785 53.113 C 138.207 52.291,137.734 51.532,137.734 51.425 C 137.734 51.125,133.489 45.793,133.035 45.521 C 132.814 45.389,132.633 45.155,132.633 45.000 C 132.633 44.493,128.797 40.890,125.881 38.658 C 124.789 37.822,124.324 37.455,123.846 37.053 C 123.645 36.884,122.671 36.227,121.680 35.594 C 120.690 34.960,119.514 34.186,119.067 33.875 C 118.620 33.563,118.054 33.308,117.809 33.308 C 117.565 33.308,117.287 33.182,117.191 33.027 C 116.984 32.692,113.912 31.208,113.426 31.208 C 113.238 31.208,112.883 31.005,112.635 30.758 C 112.388 30.510,111.883 30.308,111.514 30.308 C 111.145 30.308,110.580 30.109,110.260 29.867 C 109.940 29.625,109.407 29.421,109.077 29.415 C 108.747 29.409,108.106 29.210,107.654 28.974 C 107.201 28.738,106.188 28.449,105.403 28.332 C 104.618 28.215,103.706 27.952,103.376 27.748 C 103.046 27.544,101.572 27.299,100.101 27.203 C 98.630 27.107,97.287 26.889,97.115 26.718 C 96.944 26.547,95.548 26.407,94.014 26.407 L 91.223 26.407 91.223 28.507 M125.444 47.468 C 127.371 48.893,126.924 49.849,122.048 54.732 C 116.681 60.106,116.178 60.398,114.519 59.093 C 112.895 57.816,113.260 57.118,118.134 52.178 C 120.558 49.721,122.702 47.712,122.899 47.712 C 123.096 47.712,123.425 47.509,123.631 47.262 C 124.129 46.662,124.394 46.692,125.444 47.468 M152.638 69.517 C 152.144 70.012,152.440 71.418,153.038 71.418 C 153.612 71.418,153.638 71.618,153.638 75.919 C 153.638 79.720,153.708 80.420,154.089 80.420 C 154.389 80.420,154.539 80.720,154.539 81.320 L 154.539 82.221 229.505 82.221 L 304.472 82.221 305.176 81.470 L 305.881 80.720 313.923 80.720 L 321.965 80.720 322.423 81.606 C 322.796 82.327,322.881 83.823,322.881 89.683 C 322.881 97.471,322.846 97.738,321.790 98.140 L 321.082 98.409 321.006 163.758 L 320.930 229.107 315.529 229.107 L 310.128 229.107 309.974 187.397 C 309.889 164.456,309.788 145.653,309.749 145.611 C 309.453 145.300,290.516 145.589,290.079 145.911 C 289.607 146.260,289.566 149.187,289.497 187.697 L 289.422 229.107 284.171 229.107 L 278.920 229.107 278.843 203.076 L 278.766 177.044 268.565 177.044 C 262.955 177.044,258.333 177.078,258.294 177.119 C 258.255 177.161,258.153 188.875,258.069 203.151 L 257.914 229.107 252.813 229.107 L 247.712 229.107 247.636 195.366 C 247.576 168.830,247.479 161.574,247.185 161.387 C 245.963 160.610,245.445 161.029,236.097 170.359 L 226.860 179.579 226.783 204.343 L 226.707 229.107 221.478 229.190 C 217.495 229.252,216.191 229.181,216.006 228.890 C 215.872 228.679,215.761 219.224,215.759 207.877 L 215.754 187.247 206.176 187.247 C 200.908 187.247,196.385 187.329,196.124 187.429 C 195.697 187.593,195.649 189.693,195.649 208.097 C 195.649 225.171,195.580 228.641,195.234 228.928 C 194.949 229.164,193.275 229.247,189.908 229.190 L 184.996 229.107 184.846 203.151 L 184.696 177.194 174.664 177.115 C 166.838 177.053,164.579 177.119,164.391 177.415 C 164.259 177.624,164.148 189.377,164.146 203.533 L 164.141 229.271 158.965 229.189 L 153.788 229.107 153.711 213.888 C 153.635 199.144,153.615 198.658,153.047 198.355 C 152.666 198.150,149.083 198.069,142.773 198.120 L 133.083 198.200 132.933 213.653 L 132.783 229.107 127.554 229.190 C 123.572 229.252,122.267 229.181,122.082 228.890 C 121.949 228.679,121.838 223.950,121.835 218.380 L 121.830 208.252 118.305 208.260 L 114.779 208.267 113.503 209.471 C 112.802 210.133,112.218 210.771,112.206 210.889 C 112.194 211.006,111.529 211.643,110.728 212.303 C 109.926 212.963,109.251 213.638,109.227 213.803 C 109.203 213.968,108.528 214.644,107.727 215.304 C 106.926 215.964,106.250 216.639,106.227 216.804 C 106.203 216.969,105.528 217.644,104.726 218.305 C 103.925 218.965,103.259 219.611,103.247 219.740 C 103.236 219.869,102.825 220.367,102.335 220.846 C 101.454 221.707,101.443 221.758,101.360 225.412 L 101.275 229.107 96.024 229.107 L 90.773 229.107 90.623 187.397 L 90.473 145.686 86.129 145.603 C 82.680 145.536,81.734 145.428,81.538 145.078 C 81.360 144.760,80.747 144.636,79.355 144.636 L 77.419 144.636 77.419 193.698 L 77.419 242.761 124.038 242.761 L 170.656 242.761 175.576 247.704 L 180.495 252.648 205.792 252.656 L 231.089 252.663 236.049 247.712 L 241.010 242.761 287.503 242.761 L 333.995 242.761 333.914 160.722 C 333.838 83.076,333.805 78.652,333.308 78.102 C 333.020 77.783,332.783 77.313,332.783 77.057 C 332.783 76.802,332.586 76.429,332.345 76.229 C 332.104 76.029,331.819 75.590,331.712 75.254 C 331.238 73.759,326.666 70.218,325.210 70.218 C 324.960 70.218,324.587 70.015,324.381 69.767 C 323.988 69.294,153.111 69.045,152.638 69.517 M142.624 81.095 C 143.581 81.808,143.606 83.292,142.676 84.154 L 141.848 84.921 135.786 84.921 C 128.563 84.921,127.832 84.728,127.832 82.820 C 127.832 80.751,127.942 80.720,135.448 80.720 C 140.318 80.720,142.257 80.822,142.624 81.095 M226.157 99.525 C 226.047 99.635,225.956 100.030,225.956 100.403 C 225.956 101.229,224.643 102.326,223.653 102.326 C 222.781 102.326,220.284 104.095,220.265 104.726 C 220.257 104.974,220.050 105.563,219.803 106.036 C 219.291 107.018,219.223 107.727,219.641 107.727 C 219.799 107.727,220.014 108.188,220.120 108.752 C 220.366 110.062,221.090 110.721,223.781 112.084 L 225.956 113.186 225.956 115.701 C 225.956 118.898,225.455 119.434,223.184 118.660 C 221.319 118.025,219.529 118.177,219.433 118.980 C 219.297 120.113,220.110 120.675,222.549 121.135 C 225.671 121.725,225.904 121.878,226.014 123.407 C 226.158 125.394,227.220 125.238,227.513 123.188 C 227.742 121.585,228.313 120.930,229.480 120.930 C 232.878 120.930,235.047 116.029,232.836 113.347 C 232.329 112.731,231.736 112.228,231.518 112.228 C 231.300 112.228,231.052 112.045,230.966 111.821 C 230.880 111.597,230.365 111.324,229.823 111.216 C 228.004 110.852,227.456 110.013,227.461 107.600 C 227.468 104.700,227.508 104.660,230.340 104.778 L 232.708 104.876 232.807 104.014 C 232.946 102.797,232.528 102.516,230.071 102.176 L 227.907 101.875 227.624 100.600 C 227.357 99.396,226.739 98.943,226.157 99.525 M225.482 104.908 C 226.404 105.262,226.140 108.870,225.175 109.112 C 224.219 109.352,222.984 108.043,222.967 106.773 C 222.950 105.569,224.401 104.493,225.482 104.908 M121.653 110.283 C 126.651 115.259,127.140 116.110,125.939 117.752 C 124.806 119.301,123.663 118.642,118.520 113.474 C 113.239 108.167,112.887 107.532,114.519 106.248 C 116.130 104.981,116.585 105.239,121.653 110.283 M229.748 114.794 C 230.929 116.069,230.573 117.985,229.086 118.358 C 227.874 118.662,227.457 118.096,227.457 116.142 C 227.457 113.775,228.328 113.262,229.748 114.794 M92.639 120.527 C 93.303 121.300,93.323 121.503,93.323 127.477 L 93.323 133.630 92.369 134.482 C 91.222 135.506,90.867 135.532,89.710 134.677 L 88.822 134.021 88.822 127.424 C 88.822 119.994,88.893 119.730,90.885 119.730 C 91.670 119.730,92.136 119.942,92.639 120.527 M227.232 161.339 C 226.785 161.519,226.682 172.400,227.124 172.673 C 227.410 172.849,229.857 170.552,229.857 170.107 C 229.857 169.962,229.977 169.842,230.122 169.842 C 230.268 169.842,230.943 169.286,231.623 168.607 C 232.302 167.927,232.858 167.252,232.858 167.106 C 232.858 166.961,232.977 166.842,233.123 166.842 C 233.269 166.842,233.944 166.286,234.623 165.606 C 235.303 164.927,235.859 164.251,235.859 164.106 C 235.859 163.960,235.978 163.841,236.124 163.841 C 236.500 163.841,238.807 161.488,238.617 161.298 C 238.417 161.097,227.734 161.136,227.232 161.339 M101.800 208.451 C 101.263 208.668,101.268 214.554,101.806 214.554 C 102.202 214.554,108.027 208.859,108.027 208.472 C 108.027 208.229,102.398 208.210,101.800 208.451 M46.339 247.696 C 46.237 248.100,46.201 249.754,46.258 251.372 L 46.362 254.314 56.053 263.991 L 65.744 273.668 205.762 273.668 L 345.779 273.668 355.785 263.652 L 365.791 253.635 365.787 250.674 C 365.784 249.045,365.674 247.542,365.543 247.335 C 365.351 247.033,352.990 246.973,304.107 247.035 L 242.911 247.112 237.879 252.138 L 232.848 257.164 205.792 257.164 L 178.737 257.164 173.847 252.288 C 171.157 249.606,168.649 247.324,168.274 247.217 C 167.899 247.109,140.351 247.008,107.057 246.992 L 46.523 246.962 46.339 247.696 " stroke="none" fill="#fbfbfb" fill-rule="evenodd"></path><path id="path3" d="M91.026 28.357 C 91.027 29.677,91.079 30.180,91.143 29.474 C 91.206 28.769,91.205 27.688,91.141 27.074 C 91.076 26.459,91.025 27.037,91.026 28.357 M91.038 49.212 C 91.038 51.275,91.086 52.119,91.145 51.088 C 91.204 50.056,91.204 48.368,91.145 47.337 C 91.086 46.305,91.038 47.149,91.038 49.212 M229.632 82.146 C 163.160 82.213,154.539 82.273,154.539 82.671 C 154.539 83.135,303.094 83.389,304.813 82.928 C 305.465 82.754,305.609 82.129,305.008 82.089 C 304.853 82.079,270.934 82.105,229.632 82.146 M320.705 98.300 C 320.581 98.423,320.480 127.789,320.480 163.556 L 320.480 228.587 319.805 228.768 C 318.928 229.003,312.130 229.003,311.253 228.768 L 310.578 228.587 310.578 187.342 C 310.578 159.485,310.477 145.909,310.267 145.517 C 309.864 144.763,289.929 144.596,289.310 145.341 C 289.067 145.634,288.953 157.189,288.898 187.276 L 288.822 228.807 284.096 228.890 L 279.370 228.972 279.370 203.328 C 279.370 187.392,279.259 177.392,279.077 176.914 L 278.785 176.144 268.473 176.144 L 258.161 176.144 257.813 176.908 C 257.557 177.469,257.464 184.455,257.464 203.151 L 257.464 228.630 256.489 228.808 C 255.953 228.906,253.893 228.946,251.913 228.897 L 248.312 228.807 248.238 195.049 C 248.168 163.733,248.126 161.263,247.655 160.915 C 247.049 160.468,245.461 160.414,245.461 160.840 C 245.461 161.005,245.765 161.142,246.137 161.145 C 247.628 161.155,247.554 159.473,247.636 195.366 L 247.712 229.107 252.813 229.107 L 257.914 229.107 258.069 203.151 C 258.153 188.875,258.255 177.161,258.294 177.119 C 258.333 177.078,262.955 177.044,268.565 177.044 L 278.766 177.044 278.843 203.076 L 278.920 229.107 284.171 229.107 L 289.422 229.107 289.497 187.697 C 289.566 149.187,289.607 146.260,290.079 145.911 C 290.516 145.589,309.453 145.300,309.749 145.611 C 309.788 145.653,309.889 164.456,309.974 187.397 L 310.128 229.107 315.461 229.189 C 319.563 229.252,320.827 229.183,320.939 228.889 C 321.181 228.253,320.948 98.057,320.705 98.300 M225.731 99.034 C 225.297 99.209,225.056 99.560,225.056 100.019 C 225.056 100.912,224.297 101.588,223.024 101.828 C 221.978 102.025,219.655 103.953,219.655 104.624 C 219.655 104.845,219.537 105.026,219.393 105.026 C 219.249 105.026,219.045 105.570,218.938 106.235 C 218.534 108.763,220.244 111.150,223.631 112.783 L 225.056 113.470 225.056 115.532 C 225.056 118.220,224.160 118.647,221.090 117.418 C 219.649 116.841,219.132 117.048,218.914 118.289 C 218.492 120.699,219.477 121.528,223.406 122.073 L 224.906 122.281 225.056 123.631 L 225.206 124.981 226.557 124.981 L 227.907 124.981 228.004 123.785 C 228.130 122.236,228.330 122.028,230.173 121.526 C 235.498 120.076,235.785 112.204,230.560 110.893 C 228.548 110.388,228.023 109.652,228.119 107.472 L 228.207 105.476 229.211 105.380 C 229.763 105.327,230.730 105.490,231.360 105.742 C 232.628 106.250,232.719 106.199,233.537 104.508 C 234.225 103.086,233.918 102.386,232.449 102.028 C 231.766 101.861,230.793 101.590,230.286 101.425 C 229.779 101.260,229.152 101.125,228.893 101.125 C 228.393 101.125,228.057 100.527,228.057 99.635 C 228.057 98.857,226.910 98.560,225.731 99.034 M227.624 100.600 L 227.907 101.875 230.071 102.176 C 232.528 102.516,232.946 102.797,232.807 104.014 L 232.708 104.876 230.340 104.778 C 227.508 104.660,227.468 104.700,227.461 107.600 C 227.456 110.013,228.004 110.852,229.823 111.216 C 230.365 111.324,230.880 111.597,230.966 111.821 C 231.052 112.045,231.300 112.228,231.518 112.228 C 231.736 112.228,232.329 112.731,232.836 113.347 C 235.047 116.029,232.878 120.930,229.480 120.930 C 228.313 120.930,227.742 121.585,227.513 123.188 C 227.220 125.238,226.158 125.394,226.014 123.407 C 225.904 121.878,225.671 121.725,222.549 121.135 C 220.110 120.675,219.297 120.113,219.433 118.980 C 219.529 118.177,221.319 118.025,223.184 118.660 C 225.455 119.434,225.956 118.898,225.956 115.701 L 225.956 113.186 223.781 112.084 C 221.090 110.721,220.366 110.062,220.120 108.752 C 220.014 108.188,219.799 107.727,219.641 107.727 C 219.223 107.727,219.291 107.018,219.803 106.036 C 220.050 105.563,220.257 104.974,220.265 104.726 C 220.284 104.095,222.781 102.326,223.653 102.326 C 224.643 102.326,225.956 101.229,225.956 100.403 C 225.956 98.762,227.251 98.914,227.624 100.600 M69.979 103.529 C 67.281 106.250,66.829 106.867,67.592 106.787 C 68.170 106.727,73.000 101.522,72.863 101.108 C 72.796 100.908,71.498 101.997,69.979 103.529 M223.746 105.348 C 222.252 106.524,223.403 109.557,225.175 109.112 C 226.630 108.747,226.261 104.726,224.772 104.726 C 224.643 104.726,224.181 105.006,223.746 105.348 M225.056 106.659 C 225.056 108.257,224.658 108.614,223.998 107.608 C 223.552 106.926,223.553 106.809,224.020 106.098 C 224.752 104.980,225.056 105.145,225.056 106.659 M227.657 114.229 C 227.265 114.621,227.444 117.845,227.878 118.206 C 228.889 119.045,230.458 117.895,230.458 116.314 C 230.458 114.947,228.440 113.445,227.657 114.229 M229.853 116.239 C 229.842 117.754,228.274 118.365,228.109 116.918 C 227.910 115.184,228.262 114.552,229.114 115.111 C 229.525 115.380,229.855 115.884,229.853 116.239 M53.469 120.047 C 51.812 121.717,51.098 122.636,51.301 122.839 C 51.467 123.005,51.639 123.078,51.683 123.002 C 51.727 122.926,52.758 121.835,53.974 120.579 C 55.190 119.322,56.130 118.128,56.063 117.925 C 55.994 117.719,54.848 118.657,53.469 120.047 M90.623 187.322 L 90.773 229.107 96.024 229.107 L 101.275 229.107 101.360 225.222 C 101.464 220.426,101.031 220.493,100.825 225.305 L 100.675 228.807 96.024 228.807 L 91.373 228.807 91.223 187.272 C 91.124 159.982,90.970 145.702,90.773 145.636 C 90.573 145.570,90.523 159.532,90.623 187.322 M226.601 161.023 C 225.901 161.513,225.656 172.945,226.332 173.619 C 226.840 174.126,226.922 173.202,226.876 167.496 C 226.818 160.362,226.064 161.110,233.287 161.141 C 239.995 161.170,239.460 161.196,239.460 160.840 C 239.460 160.282,227.414 160.453,226.601 161.023 M164.070 176.215 C 164.031 176.259,163.930 188.110,163.845 202.551 L 163.691 228.807 159.040 228.807 L 154.389 228.807 154.239 213.353 C 154.156 204.854,153.979 197.731,153.846 197.524 C 153.659 197.236,151.210 197.149,143.285 197.149 L 132.967 197.149 132.500 197.816 C 132.092 198.398,132.033 200.398,132.033 213.538 C 132.033 226.989,131.982 228.612,131.558 228.775 C 130.946 229.010,123.990 229.005,123.110 228.769 L 122.438 228.589 122.359 218.196 L 122.281 207.802 118.605 207.718 C 116.226 207.663,114.929 207.743,114.929 207.943 C 114.929 208.137,116.210 208.252,118.380 208.252 L 121.830 208.252 121.835 218.380 C 121.838 223.950,121.949 228.679,122.082 228.890 C 122.267 229.181,123.572 229.252,127.554 229.190 L 132.783 229.107 132.933 213.653 L 133.083 198.200 142.773 198.120 C 149.083 198.069,152.666 198.150,153.047 198.355 C 153.615 198.658,153.635 199.144,153.711 213.888 L 153.788 229.107 158.965 229.189 L 164.141 229.271 164.146 203.533 C 164.148 189.377,164.259 177.624,164.391 177.415 C 164.579 177.119,166.838 177.053,174.664 177.115 L 184.696 177.194 184.846 203.151 L 184.996 229.107 189.908 229.190 C 193.275 229.247,194.949 229.164,195.234 228.928 C 195.580 228.641,195.649 225.171,195.649 208.097 C 195.649 189.693,195.697 187.593,196.124 187.429 C 196.385 187.329,200.908 187.247,206.176 187.247 L 215.754 187.247 215.759 207.877 C 215.761 219.224,215.872 228.679,216.006 228.890 C 216.191 229.181,217.495 229.252,221.478 229.190 L 226.707 229.107 226.857 204.118 C 226.989 182.014,226.955 179.140,226.557 179.216 C 226.162 179.292,226.088 182.372,225.956 204.055 L 225.806 228.807 222.356 228.899 C 220.458 228.949,218.332 228.907,217.631 228.806 L 216.358 228.621 216.281 207.859 L 216.204 187.097 205.816 187.018 C 197.363 186.954,195.366 187.015,195.091 187.346 C 194.849 187.637,194.731 193.608,194.676 208.280 L 194.599 228.807 189.947 228.807 L 185.296 228.807 185.146 202.551 L 184.996 176.294 174.569 176.215 C 168.833 176.172,164.109 176.172,164.070 176.215 M101.185 208.012 C 100.744 208.453,100.693 214.785,101.125 215.454 C 101.493 216.022,101.495 215.999,101.427 211.886 C 101.366 208.102,101.183 208.263,105.551 208.257 C 107.599 208.254,108.927 208.134,108.927 207.952 C 108.927 207.502,101.639 207.558,101.185 208.012 " stroke="none" fill="#acc4fc" fill-rule="evenodd"></path><path id="path4" d="M91.073 26.107 C 91.175 26.272,92.506 26.407,94.031 26.407 C 95.556 26.407,96.944 26.547,97.115 26.718 C 97.287 26.889,98.630 27.107,100.101 27.203 C 101.572 27.299,103.046 27.544,103.376 27.748 C 103.706 27.952,104.618 28.215,105.403 28.332 C 106.188 28.449,107.201 28.738,107.654 28.974 C 108.106 29.210,108.747 29.409,109.077 29.415 C 109.407 29.421,109.940 29.625,110.260 29.867 C 110.580 30.109,111.145 30.308,111.514 30.308 C 111.883 30.308,112.388 30.510,112.635 30.758 C 112.883 31.005,113.238 31.208,113.426 31.208 C 113.912 31.208,116.984 32.692,117.191 33.027 C 117.287 33.182,117.565 33.308,117.809 33.308 C 118.054 33.308,118.620 33.563,119.067 33.875 C 119.514 34.186,120.690 34.961,121.680 35.595 C 123.402 36.699,123.797 36.977,124.617 37.666 C 124.817 37.834,125.386 38.282,125.881 38.660 C 128.774 40.868,132.633 44.492,132.633 45.000 C 132.633 45.155,132.814 45.389,133.035 45.521 C 133.489 45.793,137.734 51.125,137.734 51.425 C 137.734 51.532,138.207 52.291,138.785 53.113 C 139.362 53.935,139.835 54.727,139.835 54.874 C 139.835 55.020,140.038 55.308,140.285 55.514 C 140.533 55.719,140.735 56.124,140.735 56.414 C 140.735 56.704,140.938 57.109,141.185 57.314 C 141.433 57.520,141.635 57.932,141.635 58.230 C 141.635 58.528,141.840 58.976,142.090 59.226 C 142.339 59.476,142.626 60.090,142.726 60.591 C 142.826 61.092,143.094 61.657,143.322 61.845 C 143.550 62.034,143.736 62.629,143.736 63.166 C 143.736 63.703,143.921 64.296,144.148 64.485 C 144.375 64.673,144.648 65.485,144.754 66.290 C 144.861 67.095,145.148 67.919,145.392 68.122 C 145.674 68.356,145.836 69.030,145.836 69.969 C 145.836 70.783,146.065 71.879,146.346 72.408 C 147.101 73.830,147.090 91.793,146.334 93.173 C 146.062 93.668,145.839 94.565,145.838 95.166 C 145.837 95.767,145.569 96.847,145.243 97.567 C 144.916 98.286,144.646 99.230,144.643 99.663 C 144.639 100.097,144.434 100.620,144.186 100.825 C 143.938 101.031,143.736 101.638,143.736 102.176 C 143.736 102.713,143.533 103.320,143.286 103.526 C 143.038 103.731,142.836 104.092,142.836 104.328 C 142.836 104.696,142.217 106.049,141.282 107.727 C 141.144 107.974,140.955 108.380,140.862 108.627 C 140.768 108.875,140.566 109.280,140.413 109.527 C 140.259 109.775,139.998 110.291,139.833 110.675 C 139.668 111.059,139.331 111.575,139.084 111.822 C 138.837 112.069,138.635 112.464,138.635 112.700 C 138.635 112.935,138.502 113.128,138.340 113.128 C 138.178 113.128,137.961 113.466,137.858 113.878 C 137.754 114.291,137.559 114.629,137.423 114.629 C 137.288 114.629,136.740 115.304,136.205 116.129 C 135.670 116.954,135.120 117.629,134.983 117.629 C 134.846 117.629,134.734 117.778,134.734 117.960 C 134.734 118.142,134.092 118.965,133.308 119.790 C 131.065 122.151,128.366 124.831,128.233 124.831 C 128.166 124.831,127.716 125.236,127.232 125.731 C 126.748 126.227,126.246 126.632,126.117 126.633 C 125.987 126.634,125.389 127.087,124.788 127.639 C 124.186 128.192,123.511 128.736,123.287 128.850 C 122.444 129.277,121.577 129.820,121.080 130.233 C 120.400 130.797,119.467 131.337,118.455 131.753 C 118.001 131.939,117.629 132.214,117.629 132.362 C 117.629 132.511,117.376 132.633,117.066 132.633 C 116.756 132.633,116.337 132.832,116.136 133.075 C 115.934 133.319,115.319 133.602,114.769 133.705 C 114.220 133.808,113.697 134.082,113.609 134.313 C 113.520 134.544,113.131 134.734,112.745 134.734 C 112.359 134.734,111.781 134.932,111.460 135.174 C 111.140 135.417,110.606 135.619,110.273 135.624 C 109.941 135.630,109.165 135.904,108.549 136.234 C 107.933 136.564,106.972 136.834,106.414 136.834 C 105.856 136.834,105.247 137.019,105.060 137.244 C 104.858 137.487,103.865 137.715,102.627 137.804 C 101.476 137.886,100.313 138.137,100.044 138.361 C 99.360 138.928,82.522 138.958,81.841 138.393 C 81.593 138.187,80.464 137.932,79.333 137.826 C 78.202 137.721,77.096 137.454,76.876 137.234 C 76.656 137.014,76.075 136.834,75.586 136.834 C 75.096 136.834,74.165 136.564,73.518 136.234 C 72.871 135.904,71.999 135.634,71.580 135.634 C 71.161 135.634,70.818 135.500,70.818 135.337 C 70.818 135.174,70.266 134.953,69.592 134.845 C 68.917 134.737,68.295 134.465,68.209 134.241 C 68.123 134.017,67.868 133.833,67.642 133.833 C 67.417 133.833,66.357 133.361,65.287 132.783 C 64.217 132.206,63.133 131.733,62.879 131.733 C 62.624 131.733,62.416 131.611,62.416 131.462 C 62.416 131.230,60.739 130.043,59.879 129.667 C 59.721 129.598,59.451 129.423,59.279 129.279 C 59.106 129.134,58.155 128.403,57.164 127.654 C 56.174 126.904,54.570 125.592,53.600 124.736 C 51.407 122.802,51.013 122.561,51.013 123.155 C 51.013 123.565,52.834 125.229,55.476 127.232 C 56.021 127.644,56.667 128.170,56.912 128.400 C 59.529 130.855,69.272 135.844,73.968 137.134 C 74.464 137.270,75.274 137.517,75.769 137.682 C 83.678 140.319,98.368 140.316,106.077 137.676 C 106.572 137.507,107.449 137.259,108.027 137.125 C 109.392 136.808,111.113 136.166,113.639 135.028 C 115.638 134.128,116.151 133.871,118.777 132.456 C 120.682 131.430,125.718 128.011,126.932 126.921 C 128.732 125.305,133.344 120.753,134.195 119.753 C 136.034 117.592,137.994 114.991,138.813 113.626 C 140.865 110.208,141.762 108.580,142.230 107.427 C 142.397 107.014,142.654 106.474,142.799 106.227 C 143.339 105.311,144.336 102.999,144.336 102.664 C 144.336 102.473,144.462 102.083,144.615 101.796 C 144.898 101.267,145.716 98.530,146.565 95.274 C 148.334 88.481,148.327 77.150,146.548 70.068 C 145.931 67.612,144.938 64.195,144.629 63.466 C 144.489 63.136,144.096 62.207,143.755 61.402 C 143.415 60.597,143.136 59.770,143.136 59.563 C 143.136 59.357,142.946 59.031,142.715 58.839 C 142.484 58.647,142.215 58.172,142.117 57.784 C 141.903 56.930,139.185 52.244,137.906 50.522 C 137.399 49.840,136.782 48.976,136.534 48.603 C 134.608 45.701,129.260 40.294,125.557 37.503 C 124.250 36.518,123.046 35.605,122.881 35.474 C 122.716 35.343,121.703 34.725,120.630 34.101 C 119.557 33.477,118.477 32.840,118.230 32.687 C 117.337 32.132,112.810 30.008,112.521 30.008 C 112.359 30.008,111.722 29.737,111.106 29.407 C 110.490 29.077,109.746 28.807,109.453 28.807 C 109.159 28.807,108.685 28.678,108.398 28.520 C 107.241 27.883,103.760 27.076,97.974 26.103 C 95.795 25.736,90.845 25.739,91.073 26.107 M91.523 31.197 L 92.273 31.774 92.273 38.131 C 92.273 44.337,92.257 44.498,91.617 44.924 C 91.256 45.164,91.030 45.541,91.115 45.763 C 91.238 46.085,91.392 46.065,91.880 45.664 C 93.375 44.433,93.323 44.703,93.323 38.100 C 93.323 31.282,93.146 30.595,91.391 30.614 C 90.811 30.621,90.819 30.657,91.523 31.197 M123.631 47.262 C 123.425 47.509,123.096 47.712,122.899 47.712 C 122.024 47.712,113.728 56.618,113.728 57.557 C 113.728 58.567,114.878 59.715,115.889 59.715 C 117.669 59.715,126.332 51.061,126.332 49.283 C 126.332 47.598,124.494 46.222,123.631 47.262 M125.782 48.885 C 126.174 49.953,116.929 59.305,115.770 59.014 C 113.551 58.458,113.964 57.612,118.891 52.620 C 123.871 47.575,125.063 46.929,125.782 48.885 M91.071 52.815 C 90.969 52.982,91.083 53.194,91.326 53.287 C 92.367 53.686,92.442 54.841,92.357 69.249 L 92.273 83.417 83.573 92.121 C 75.734 99.963,74.776 100.825,73.895 100.825 C 73.358 100.825,72.918 100.960,72.918 101.125 C 72.918 101.290,73.474 101.425,74.152 101.425 C 75.370 101.425,75.502 101.309,84.355 92.444 L 93.323 83.463 93.323 68.898 L 93.323 54.334 92.433 53.424 C 91.454 52.422,91.345 52.373,91.071 52.815 M152.963 68.922 C 152.674 68.999,152.438 69.153,152.438 69.264 C 152.438 69.376,191.013 69.433,238.160 69.391 C 310.364 69.327,323.956 69.380,324.356 69.726 C 324.618 69.952,325.214 70.228,325.681 70.339 C 327.466 70.764,331.276 73.878,331.719 75.274 C 331.822 75.599,332.104 76.029,332.345 76.229 C 332.586 76.429,332.783 76.802,332.783 77.057 C 332.783 77.313,333.020 77.783,333.308 78.102 C 333.805 78.652,333.838 83.076,333.914 160.722 L 333.995 242.761 287.503 242.761 L 241.010 242.761 236.049 247.712 L 231.089 252.663 205.792 252.656 L 180.495 252.648 175.576 247.704 L 170.656 242.761 124.038 242.761 L 77.419 242.761 77.392 193.623 C 77.376 163.454,77.259 144.851,77.091 145.432 C 76.930 145.989,76.849 166.178,76.893 194.644 L 76.969 242.911 123.553 243.061 L 170.136 243.211 175.169 248.237 L 180.201 253.263 205.851 253.263 L 231.501 253.263 236.534 248.237 L 241.567 243.211 288.225 243.133 L 334.884 243.055 334.884 162.019 C 334.884 74.321,334.984 80.112,333.415 76.819 C 332.062 73.976,329.351 71.243,326.482 69.829 L 324.531 68.867 239.010 68.825 C 191.973 68.802,153.252 68.846,152.963 68.922 M128.304 81.192 C 128.038 81.457,127.832 82.169,127.832 82.820 C 127.832 84.728,128.563 84.921,135.786 84.921 L 141.848 84.921 142.676 84.154 C 143.606 83.292,143.581 81.808,142.624 81.095 C 141.800 80.481,128.927 80.568,128.304 81.192 M305.365 81.277 C 304.918 81.772,304.912 81.877,305.314 82.210 C 305.693 82.525,305.816 82.456,306.070 81.788 L 306.373 80.991 313.888 81.081 C 320.174 81.156,321.449 81.244,321.687 81.620 C 322.314 82.613,322.044 96.773,321.387 97.368 C 320.711 97.980,320.846 98.486,321.615 98.220 C 322.814 97.804,322.881 97.360,322.881 89.800 C 322.881 83.835,322.797 82.328,322.423 81.606 L 321.965 80.720 313.917 80.720 C 306.458 80.720,305.833 80.761,305.365 81.277 M142.238 81.920 C 142.724 82.563,142.749 82.757,142.409 83.271 C 141.781 84.223,129.232 84.355,128.729 83.415 C 127.666 81.428,128.908 81.027,135.877 81.105 L 141.671 81.170 142.238 81.920 M114.519 106.248 C 112.887 107.532,113.239 108.167,118.520 113.474 C 123.663 118.642,124.806 119.301,125.939 117.752 C 127.140 116.110,126.651 115.259,121.653 110.283 C 116.585 105.239,116.130 104.981,114.519 106.248 M121.116 110.782 C 125.973 115.576,126.578 116.555,125.151 117.319 C 124.081 117.891,123.731 117.647,119.320 113.253 C 114.752 108.702,114.176 107.824,115.090 106.815 C 115.980 105.831,116.339 106.067,121.116 110.782 M67.138 107.652 C 67.314 108.882,58.403 117.732,57.143 117.580 C 56.670 117.522,56.262 117.640,56.190 117.854 C 56.067 118.221,56.796 118.371,58.045 118.236 C 60.292 117.993,69.614 106.827,67.569 106.827 C 67.142 106.827,67.047 107.010,67.138 107.652 M89.319 120.279 C 88.888 120.754,88.822 121.707,88.822 127.424 L 88.822 134.021 89.710 134.677 C 90.867 135.532,91.222 135.506,92.369 134.482 L 93.323 133.630 93.323 127.477 C 93.323 121.503,93.303 121.300,92.639 120.527 C 91.802 119.554,90.091 119.426,89.319 120.279 M92.130 121.100 C 92.291 121.523,92.423 124.283,92.423 127.232 C 92.423 133.295,92.249 134.134,90.990 134.134 C 89.481 134.134,89.422 133.881,89.422 127.420 C 89.422 122.265,89.492 121.351,89.919 120.879 C 90.660 120.060,91.778 120.172,92.130 121.100 M235.634 169.901 C 226.265 179.246,226.258 179.254,227.004 179.092 C 227.371 179.012,245.461 161.208,245.461 160.927 C 245.461 160.282,243.277 162.277,235.634 169.901 M237.710 162.496 C 236.996 163.236,236.287 163.841,236.135 163.841 C 235.983 163.841,235.859 163.960,235.859 164.106 C 235.859 164.251,235.303 164.927,234.623 165.606 C 233.944 166.286,233.269 166.842,233.123 166.842 C 232.977 166.842,232.858 166.961,232.858 167.106 C 232.858 167.252,232.302 167.927,231.623 168.607 C 230.943 169.286,230.268 169.842,230.122 169.842 C 229.977 169.842,229.857 169.957,229.857 170.096 C 229.857 170.236,229.115 171.105,228.207 172.027 C 226.578 173.682,226.326 174.044,226.797 174.044 C 226.971 174.044,238.705 162.472,239.735 161.284 C 239.804 161.205,239.669 161.143,239.435 161.145 C 239.201 161.148,238.425 161.756,237.710 162.496 M107.799 214.331 C 104.129 218.005,101.125 221.110,101.125 221.233 C 101.125 221.915,103.171 220.451,103.247 219.714 C 103.259 219.599,103.925 218.965,104.726 218.305 C 105.528 217.644,106.203 216.969,106.227 216.804 C 106.250 216.639,106.926 215.964,107.727 215.304 C 108.528 214.644,109.203 213.968,109.227 213.803 C 109.251 213.638,109.926 212.963,110.728 212.303 C 111.529 211.643,112.194 211.004,112.206 210.884 C 112.218 210.764,112.836 210.105,113.578 209.420 C 114.846 208.252,115.227 207.652,114.701 207.652 C 114.576 207.652,111.470 210.658,107.799 214.331 M104.876 211.736 C 100.211 216.531,100.565 217.007,105.301 212.307 C 107.460 210.164,109.227 208.375,109.227 208.331 C 109.227 207.679,107.536 209.002,104.876 211.736 M45.783 246.533 C 45.227 247.089,45.095 253.199,45.618 254.176 C 45.787 254.491,50.315 259.141,55.682 264.509 L 65.439 274.269 205.789 274.269 L 346.140 274.269 356.116 264.289 L 366.092 254.310 366.092 250.661 C 366.092 248.653,366.010 246.797,365.909 246.536 C 365.676 245.929,244.139 245.795,242.966 246.400 C 242.606 246.586,240.168 248.882,237.548 251.501 L 232.786 256.264 205.801 256.264 L 178.815 256.264 173.682 251.163 L 168.550 246.062 107.402 246.062 C 52.213 246.062,46.208 246.107,45.783 246.533 M168.274 247.217 C 168.649 247.324,171.157 249.606,173.847 252.288 L 178.737 257.164 205.792 257.164 L 232.848 257.164 237.879 252.138 L 242.911 247.112 304.107 247.035 C 352.990 246.973,365.351 247.033,365.543 247.335 C 365.674 247.542,365.784 249.045,365.787 250.674 L 365.791 253.635 355.785 263.652 L 345.779 273.668 205.762 273.668 L 65.744 273.668 56.053 263.991 L 46.362 254.314 46.258 251.372 C 46.201 249.754,46.237 248.100,46.339 247.696 L 46.523 246.962 107.057 246.992 C 140.351 247.008,167.899 247.109,168.274 247.217 " stroke="none" fill="#d4d4d4" fill-rule="evenodd"></path></g></svg>